<svg width="1503" height="1214" viewBox="0 0 1503 1214" fill="none" xmlns="http://www.w3.org/2000/svg">
<path d="M1502.85 52.8977C1502.85 52.8977 1494.64 443.195 1209.64 381.456C1016.85 339.7 893.02 256.078 779.78 285.152C684.61 309.586 624.93 450.657 615.13 531.249C601.46 643.615 676.32 800.308 653.13 911.255C604.67 1143.18 136.62 1143.07 1 847.875" stroke="url(#paint0_linear_116_75)" stroke-width="0.25" stroke-miterlimit="10"/>
<path d="M1499.64 51.2175C1499.64 51.2175 1490.87 435.824 1211.8 380.886C1023.32 343.781 900.94 265.109 787.64 294.474C766.16 300.024 746.44 311.396 728.64 326.568C717.43 336.11 706.99 347.121 697.36 359.103C654.96 411.811 628.28 484.082 620.8 533.249C604.08 642.185 673.45 794.358 648.53 903.054C597.13 1129.89 141.53 1134.72 10.21 859.127" stroke="url(#paint1_linear_116_75)" stroke-width="0.25" stroke-miterlimit="10"/>
<path d="M1496.43 49.5474C1496.43 49.5474 1487.14 428.453 1213.95 380.316C1029.79 347.862 908.86 274.141 795.48 303.785C774.19 309.326 754.57 320.467 736.79 335.25C725.58 344.551 715.1 355.223 705.4 366.804C662.69 417.742 635.25 487.622 626.44 535.229C606.66 640.735 670.28 788.327 643.89 894.823C588.98 1116.42 146.4 1126.35 19.39 870.349" stroke="url(#paint2_linear_116_75)" stroke-width="0.25" stroke-miterlimit="10"/>
<path d="M1493.23 47.877C1493.23 47.877 1483.44 421.082 1216.12 379.746C1036.3 351.932 916.79 283.162 803.35 313.106C782.24 318.637 762.73 329.549 744.96 343.941C733.75 352.992 723.23 363.334 713.47 374.515C670.44 423.683 642.24 491.173 632.12 537.229C609.28 639.294 667.3 782.336 639.29 886.621C581.17 1103.03 151.3 1118 28.6 881.59" stroke="url(#paint3_linear_116_75)" stroke-width="0.25" stroke-miterlimit="10"/>
<path d="M1490.02 46.1968C1490.02 46.1968 1479.76 413.701 1218.28 379.166C1042.81 355.993 924.7 292.183 811.2 322.408C790.27 327.928 770.86 338.61 753.12 352.612C741.9 361.423 731.35 371.425 721.52 382.207C678.18 429.614 649.33 494.743 637.78 539.21C612.14 637.914 664.31 776.315 634.68 878.4C573.37 1089.63 156.2 1109.62 37.8 892.822" stroke="url(#paint4_linear_116_75)" stroke-width="0.25" stroke-miterlimit="10"/>
<path d="M1486.81 44.5266C1486.81 44.5266 1476.12 406.31 1220.43 378.596C1049.35 360.053 932.62 301.215 819.05 331.729C798.31 337.24 779 347.692 761.27 361.304C750.05 369.875 739.46 379.536 729.57 389.918C685.92 435.554 656.33 498.304 643.44 541.21C614.8 636.514 661.32 770.324 630.06 870.189C565.57 1076.23 161.09 1101.27 47 904.054" stroke="url(#paint5_linear_116_75)" stroke-width="0.25" stroke-miterlimit="10"/>
<path d="M1483.6 42.8562C1483.6 42.8562 1472.5 398.909 1222.59 378.026C1055.91 364.094 940.54 310.236 826.9 341.04C806.34 346.541 787.14 356.763 769.42 369.975C758.2 378.306 747.57 387.627 737.61 397.609C693.64 441.475 663.32 501.854 649.08 543.19C617.44 635.094 658.32 764.303 625.43 861.967C557.79 1062.81 165.96 1092.9 56.1801 915.285" stroke="url(#paint6_linear_116_75)" stroke-width="0.25" stroke-miterlimit="10"/>
<path d="M1480.39 41.176C1480.39 41.176 1468.92 391.478 1224.74 377.446C1062.48 368.124 948.45 319.257 834.75 350.352C814.37 355.843 795.28 365.824 777.58 378.656C766.35 386.747 755.69 395.729 745.67 405.31C701.39 447.406 670.32 505.405 654.75 545.181C620.09 633.684 655.36 758.282 620.82 853.756C550.04 1049.4 170.86 1084.54 65.38 926.527" stroke="url(#paint7_linear_116_75)" stroke-width="0.25" stroke-miterlimit="10"/>
<path d="M1477.19 39.5059C1477.19 39.5059 1465.39 384.037 1226.91 376.876C1069.09 372.135 956.38 328.279 842.61 359.663C822.42 365.144 803.42 374.896 785.74 387.337C774.51 395.189 763.8 403.84 753.72 413.011C709.13 453.337 677.32 508.965 660.41 547.171C622.74 632.284 652.4 752.271 616.2 845.545C542.3 1035.97 175.75 1076.19 74.58 937.759" stroke="url(#paint8_linear_116_75)" stroke-width="0.25" stroke-miterlimit="10"/>
<path d="M1473.98 37.8254C1473.98 37.8254 1461.88 376.566 1229.06 376.296C1075.7 376.116 964.36 337.54 850.46 368.974C830.46 374.495 811.56 383.967 793.9 396.018C782.66 403.62 771.92 411.941 761.78 420.712C716.87 459.268 684.31 512.526 666.07 549.161C625.37 630.883 649.45 746.25 611.59 837.324C534.6 1022.54 180.64 1067.82 83.78 948.99" stroke="url(#paint9_linear_116_75)" stroke-width="0.25" stroke-miterlimit="10"/>
<path d="M1470.77 36.1553C1470.77 36.1553 1458.41 369.065 1231.22 375.726C1082.35 380.086 972.29 346.591 858.31 378.286C838.5 383.797 819.72 393.078 802.05 404.7C790.82 412.081 780.03 420.042 769.82 428.403C724.6 465.199 691.29 516.086 671.72 551.142C628 629.483 646.5 740.23 606.97 829.113C526.91 1009.12 185.53 1059.46 92.97 960.222" stroke="url(#paint10_linear_116_75)" stroke-width="0.25" stroke-miterlimit="10"/>
<path d="M1467.56 34.4849C1467.56 34.4849 1454.97 361.533 1233.37 375.155C1089.01 384.027 980.2 355.632 866.16 387.607C846.53 393.108 827.86 402.159 810.2 413.391C798.97 420.532 788.14 428.153 777.87 436.114C732.34 471.14 698.27 519.657 677.38 553.142C630.61 628.083 643.56 734.208 602.34 820.901C519.23 995.697 190.41 1051.1 102.16 971.464" stroke="url(#paint11_linear_116_75)" stroke-width="0.25" stroke-miterlimit="10"/>
<path d="M1464.36 32.8047C1464.36 32.8047 1451.58 353.942 1235.54 374.575C1095.7 387.927 988.14 364.654 874.02 396.909C854.58 402.399 836.01 411.221 818.37 422.062C807.14 428.963 796.29 436.264 785.93 443.806C740.15 477.15 705.26 523.207 683.04 555.122C633.23 626.683 640.65 728.178 597.73 812.67C511.6 982.255 195.3 1042.72 111.36 982.685" stroke="url(#paint12_linear_116_75)" stroke-width="0.25" stroke-miterlimit="10"/>
<path d="M1461.15 31.1345C1461.15 31.1345 1448.21 346.321 1237.69 374.005C1102.4 391.798 996.05 373.695 881.87 406.23C862.61 411.721 844.14 420.302 826.52 430.754C815.28 437.415 804.4 444.386 793.98 451.517C747.89 483.101 712.23 526.778 688.7 557.122C635.83 625.292 637.74 722.167 593.11 804.469C503.99 968.843 200.2 1034.37 120.56 993.927" stroke="url(#paint13_linear_116_75)" stroke-width="0.25" stroke-miterlimit="10"/>
<path d="M1457.94 29.4641C1457.94 29.4641 1444.87 338.63 1239.85 373.445C1109.12 395.638 1003.98 382.746 889.72 415.551C870.65 421.032 852.28 429.383 834.68 439.445C823.44 445.866 812.51 452.497 802.03 459.228C755.63 489.052 719.2 530.348 694.36 559.123C638.42 623.902 634.85 716.156 588.5 796.268C496.4 955.441 205.09 1026.02 129.76 1005.18" stroke="url(#paint14_linear_116_75)" stroke-width="0.25" stroke-miterlimit="10"/>
<path d="M1454.73 27.7839C1454.73 27.7839 1441.55 330.869 1242 372.865C1115.85 399.419 1011.89 391.768 897.57 424.853C878.68 430.324 860.42 438.445 842.83 448.116C831.59 454.297 820.62 460.588 810.08 466.919C763.36 494.973 726.17 533.899 700.02 561.103C641.01 622.482 631.97 710.135 583.88 788.036C488.84 942.019 209.98 1017.65 138.95 1016.39" stroke="url(#paint15_linear_116_75)" stroke-width="0.25" stroke-miterlimit="10"/>
<path d="M1451.52 26.1138C1451.52 26.1138 1438.24 323.038 1244.16 372.295C1122.59 403.15 1019.81 400.799 905.42 434.174C886.71 439.635 868.56 447.526 850.98 456.808C839.73 462.748 828.73 468.699 818.12 474.63C771.08 500.924 733.12 537.46 705.66 563.103C643.56 621.082 629.08 704.134 579.24 779.835C481.28 928.637 214.84 1009.3 148.12 1027.64" stroke="url(#paint16_linear_116_75)" stroke-width="0.25" stroke-miterlimit="10"/>
<path d="M1448.32 24.4434C1448.32 24.4434 1434.95 315.126 1246.33 371.725C1129.34 406.82 1027.74 409.82 913.29 443.485C894.77 448.936 876.71 456.597 859.16 465.489C847.91 471.189 836.87 476.8 826.2 482.331C778.85 506.855 740.11 541.01 711.35 565.083C646.16 619.651 626.26 698.123 574.66 771.614C473.81 915.245 219.77 1000.93 157.36 1038.86" stroke="url(#paint17_linear_116_75)" stroke-width="0.25" stroke-miterlimit="10"/>
<path d="M1445.11 22.7632C1445.11 22.7632 1431.64 307.125 1248.48 371.145C1136.07 410.441 1035.65 418.842 921.13 452.797C902.79 458.238 884.84 465.669 867.3 474.17C856.04 479.631 844.97 484.912 834.23 490.032C786.56 512.796 747.05 544.56 716.99 567.074C648.71 618.221 623.4 692.132 570.02 763.393C466.31 901.863 224.64 992.567 166.53 1050.1" stroke="url(#paint18_linear_116_75)" stroke-width="0.25" stroke-miterlimit="10"/>
<path d="M1441.9 21.093C1441.9 21.093 1428.32 299.034 1250.64 370.575C1142.8 414.001 1043.57 427.863 928.99 462.108C910.83 467.539 892.98 474.74 875.47 482.851C864.21 488.062 853.1 493.013 842.3 497.734C794.31 518.727 754.02 548.101 722.66 569.064C651.27 616.781 620.58 686.142 565.41 755.182C458.87 888.521 229.53 984.206 175.74 1061.34" stroke="url(#paint19_linear_116_75)" stroke-width="0.25" stroke-miterlimit="10"/>
<path d="M1438.69 19.4128C1438.69 19.4128 1424.95 290.833 1252.79 369.995C1149.49 417.492 1051.48 436.875 936.83 471.42C918.86 476.831 901.11 483.802 883.61 491.533C872.34 496.503 861.19 501.114 850.34 505.435C802.03 524.658 760.97 551.642 728.31 571.055C653.82 615.331 617.75 680.171 560.79 746.971C451.43 875.2 234.42 975.844 184.93 1072.57" stroke="url(#paint20_linear_116_75)" stroke-width="0.25" stroke-miterlimit="10"/>
<path d="M1435.49 17.7424C1435.49 17.7424 1421.55 282.552 1254.96 369.424C1156.17 420.942 1059.41 445.886 944.7 480.731C926.91 486.132 909.27 492.873 891.78 500.214C880.51 504.945 869.32 509.215 858.4 513.136C809.78 530.588 767.93 555.182 733.98 573.045C656.39 613.881 614.96 674.21 556.18 738.749C444.03 861.887 239.32 967.473 194.13 1083.8" stroke="url(#paint21_linear_116_75)" stroke-width="0.25" stroke-miterlimit="10"/>
<path d="M1432.28 16.0723C1432.28 16.0723 1418.07 274.18 1257.11 368.855C1162.8 424.333 1067.32 454.897 952.54 490.052C934.93 495.443 917.39 501.954 899.93 508.905C888.65 513.396 877.43 517.327 866.45 520.847C817.51 536.519 774.88 558.723 739.63 575.045C658.93 612.42 612.16 668.279 551.56 730.548C436.64 848.616 244.2 959.122 203.32 1095.04" stroke="url(#paint22_linear_116_75)" stroke-width="0.25" stroke-miterlimit="10"/>
<path d="M1429.07 14.3921C1429.07 14.3921 1414.5 265.709 1259.27 368.274C1169.38 427.673 1075.24 463.899 960.4 499.354C942.98 504.735 925.54 511.006 908.09 517.577C896.81 521.817 885.55 525.418 874.5 528.538C825.24 542.44 781.84 562.233 745.29 577.025C661.49 610.93 609.38 662.338 546.94 722.327C429.27 835.374 249.09 950.761 212.52 1106.27" stroke="url(#paint23_linear_116_75)" stroke-width="0.25" stroke-miterlimit="10"/>
<path d="M1425.86 12.7217C1425.86 12.7217 1410.82 257.168 1261.42 367.704C1175.9 430.984 1083.14 472.91 968.24 508.675C951 514.036 933.66 520.087 916.24 526.258C904.95 530.258 893.65 533.499 882.55 536.239C832.95 548.271 788.8 565.764 750.95 579.016C664.05 609.45 606.61 656.427 542.32 714.106C421.91 822.152 253.98 942.389 221.71 1117.51" stroke="url(#paint24_linear_116_75)" stroke-width="0.25" stroke-miterlimit="10"/>
<path d="M1422.65 11.0515C1422.65 11.0515 1407.03 248.567 1263.58 367.134C1182.36 434.264 1090.99 481.701 976.1 517.987C959.03 523.307 941.8 529.118 924.4 534.939C913.1 538.67 901.77 541.6 890.6 543.94C840.68 554.202 795.75 569.284 756.61 581.006C666.62 607.96 603.84 650.536 537.71 705.894C414.57 808.98 258.87 934.038 230.92 1128.74" stroke="url(#paint25_linear_116_75)" stroke-width="0.25" stroke-miterlimit="10"/>
<path d="M1419.45 9.37134C1419.45 9.37134 1403.13 239.915 1265.74 366.554C1188.76 437.515 1098.91 490.723 983.95 527.298C967.07 532.609 949.93 538.19 932.55 543.62C921.25 547.111 909.88 549.701 898.65 551.632C848.42 560.123 802.71 572.795 762.26 582.986C669.18 606.45 601.07 644.645 533.08 697.673C407.22 795.818 263.75 925.667 240.1 1139.97" stroke="url(#paint26_linear_116_75)" stroke-width="0.25" stroke-miterlimit="10"/>
<path d="M1416.24 7.70093C1416.24 7.70093 1399.08 231.254 1267.9 365.994C1195.08 440.785 1106.83 499.764 991.81 536.619C975.11 541.92 958.08 547.271 940.72 552.312C929.41 555.562 918.01 557.812 906.71 559.343C856.17 566.064 809.68 576.315 767.93 584.986C671.76 604.949 598.32 638.804 528.48 689.462C399.91 782.716 268.66 917.306 249.31 1151.2" stroke="url(#paint27_linear_116_75)" stroke-width="0.25" stroke-miterlimit="10"/>
<path d="M1413.03 6.02075C1413.03 6.02075 1394.91 222.573 1270.05 365.414C1201.33 444.036 1114.74 508.775 999.65 545.931C983.14 551.221 966.21 556.342 948.86 560.993C937.55 564.003 926.11 565.914 914.75 567.044C863.89 572.005 816.64 579.826 773.58 586.977C674.33 603.449 595.56 632.974 523.85 681.251C392.56 769.644 273.54 908.955 258.5 1162.44" stroke="url(#paint28_linear_116_75)" stroke-width="0.25" stroke-miterlimit="10"/>
<path d="M1409.82 4.35059C1409.82 4.35059 1390.6 213.912 1272.21 364.844C1207.51 447.326 1122.67 517.807 1007.51 555.242C991.18 560.523 974.36 565.414 957.03 569.674C945.71 572.445 934.24 574.025 922.81 574.745C871.64 577.935 823.61 583.276 779.24 588.967C676.9 601.789 592.8 627.163 519.23 673.04C385.23 756.602 278.43 900.593 267.7 1173.67" stroke="url(#paint29_linear_116_75)" stroke-width="0.25" stroke-miterlimit="10"/>
<path d="M1406.62 2.68042C1406.62 2.68042 1386.18 205.29 1274.37 364.274C1213.64 450.637 1130.59 526.838 1015.36 564.554C999.21 569.824 982.49 574.485 965.18 578.356C953.86 580.876 942.34 582.126 930.86 582.446C879.38 583.866 830.58 586.817 784.9 590.958C679.5 600.349 590.04 621.372 514.62 664.818C377.88 743.6 283.32 892.222 276.89 1184.91" stroke="url(#paint30_linear_116_75)" stroke-width="0.25" stroke-miterlimit="10"/>
<path d="M1403.41 1C1403.41 1 1346.6 511.786 973.34 587.037C962.02 589.317 950.46 590.227 938.91 590.147C551.82 587.547 289.89 635.874 286.08 1196.15" stroke="url(#paint31_linear_116_75)" stroke-width="0.25" stroke-miterlimit="10"/>
<path d="M1397.01 2.48022C1397.76 5.06061 1388.02 95.314 1350.65 205.18C1313.56 314.216 1250.03 442.215 1139.89 524.548C1094.8 558.453 1041.73 584.736 979.5 598.639C968.23 601.179 956.73 602.359 945.2 602.569C926.67 602.899 908.37 603.289 890.32 603.769C773.92 606.7 669.29 613.401 581.34 640.055C543.33 651.716 508.37 667.149 476.75 687.582C399.41 737.329 341.7 816.411 308.59 943.97C290.55 1013.46 280.59 1097.43 279.34 1196.7" stroke="url(#paint32_linear_116_75)" stroke-width="0.25" stroke-miterlimit="10"/>
<path d="M1390.61 3.95044C1392.12 9.1212 1382.76 98.9445 1347.58 208.051C1312.01 318.377 1251.34 447.356 1143.95 532.299C1099.74 567.274 1047.43 595.048 985.65 610.22C974.44 613.011 962.98 614.471 951.48 614.971C933.01 615.751 914.7 616.541 896.59 617.341C780.19 622.152 674.59 627.183 585.79 651.836C547.55 662.448 512.4 676.98 480.31 696.183C401.8 743.18 341.63 818.381 305.45 944.08C285.51 1013.35 274.41 1098.04 272.57 1197.23" stroke="url(#paint33_linear_116_75)" stroke-width="0.25" stroke-miterlimit="10"/>
<path d="M1384.22 5.42065C1386.48 13.1718 1377.54 102.605 1344.52 210.921C1310.49 322.558 1252.77 452.677 1148.02 540.06C1104.73 576.175 1053.12 605.229 991.81 621.812C980.65 624.832 969.24 626.603 957.77 627.383C939.35 628.623 921.05 629.843 902.87 630.933C786.5 637.904 679.94 641.145 590.25 663.628C551.81 673.26 516.4 686.792 483.88 704.804C404.13 748.971 341.51 820.381 302.32 944.22C280.46 1013.29 268.23 1098.67 265.82 1197.79" stroke="url(#paint34_linear_116_75)" stroke-width="0.25" stroke-miterlimit="10"/>
<path d="M1377.82 6.90088C1380.84 17.2324 1372.35 106.296 1341.45 213.802C1308.98 326.768 1254.2 458.018 1152.08 547.821C1109.71 585.076 1058.81 615.521 997.96 633.404C986.86 636.664 975.49 638.724 964.04 639.795C945.67 641.485 927.37 643.115 909.13 644.515C792.77 653.447 685.29 655.107 594.7 675.41C556.06 684.071 520.4 696.583 487.44 713.405C406.44 754.742 341.33 822.382 299.18 944.33C275.38 1013.2 262.05 1099.28 259.06 1198.32" stroke="url(#paint35_linear_116_75)" stroke-width="0.25" stroke-miterlimit="10"/>
<path d="M1371.42 8.37109C1375.19 21.283 1367.2 109.996 1338.38 216.672C1307.5 330.999 1255.63 463.368 1156.13 555.582C1114.69 593.988 1064.49 625.802 1004.1 644.995C993.05 648.506 981.74 650.846 970.31 652.216C952 654.357 933.69 656.397 915.39 658.107C799.05 668.999 690.64 669.089 599.14 687.202C560.31 694.893 524.37 706.394 490.98 722.027C408.73 760.522 341.08 824.392 296.03 944.46C270.26 1013.14 255.86 1099.91 252.28 1198.88" stroke="url(#paint36_linear_116_75)" stroke-width="0.25" stroke-miterlimit="10"/>
<path d="M1365.03 9.84131C1369.56 25.3436 1362.1 113.727 1335.32 219.542C1306.04 335.249 1257.08 468.729 1160.2 563.343C1119.69 602.909 1070.19 636.094 1010.26 656.587C999.27 660.348 988 662.968 976.6 664.628C958.34 667.229 940.03 669.669 921.67 671.689C805.35 684.521 696.02 683.071 603.61 698.993C564.58 705.714 528.38 716.196 494.56 730.638C411.05 766.293 340.81 826.412 292.91 944.58C265.14 1013.07 249.69 1100.53 245.54 1199.42" stroke="url(#paint37_linear_116_75)" stroke-width="0.25" stroke-miterlimit="10"/>
<path d="M1358.63 11.3215C1363.91 29.4042 1357.02 117.487 1332.25 222.423C1304.61 339.53 1258.52 474.12 1164.26 571.104C1124.67 611.83 1075.89 646.396 1016.41 668.179C1005.47 672.189 994.25 675.09 982.88 677.04C964.67 680.091 946.36 682.931 927.93 685.281C811.64 700.053 701.39 697.063 608.05 710.785C568.84 716.546 532.36 725.997 498.11 739.249C413.33 772.064 340.46 828.412 289.76 944.71C259.97 1013.02 243.5 1101.15 238.76 1199.97" stroke="url(#paint38_linear_116_75)" stroke-width="0.25" stroke-miterlimit="10"/>
<path d="M1352.23 12.7917C1358.27 33.4548 1351.99 121.248 1329.19 225.293C1303.21 343.821 1259.98 479.521 1168.33 578.866C1129.68 620.762 1081.59 656.697 1022.58 679.771C1011.7 684.031 1000.52 687.222 989.18 689.452C971.03 692.953 952.72 696.203 934.22 698.863C817.95 715.576 706.79 711.065 612.52 722.567C573.12 727.378 536.36 735.789 501.69 747.861C415.64 777.815 340.1 830.423 286.64 944.83C254.81 1012.96 237.33 1101.77 232.02 1200.51" stroke="url(#paint39_linear_116_75)" stroke-width="0.25" stroke-miterlimit="10"/>
<path d="M1345.84 14.262C1352.63 37.5054 1347 125.028 1326.13 228.164C1301.85 348.121 1261.45 484.932 1172.4 586.627C1134.68 629.703 1087.29 666.999 1028.74 691.362C1017.91 695.873 1006.79 699.343 995.46 701.864C977.36 705.824 959.05 709.475 940.49 712.445C824.24 731.078 712.18 725.077 616.98 734.349C577.4 738.209 540.35 745.58 505.26 756.462C417.93 783.566 339.67 832.403 283.52 944.94C249.62 1012.88 231.17 1102.38 225.27 1201.05" stroke="url(#paint40_linear_116_75)" stroke-width="0.25" stroke-miterlimit="10"/>
<path d="M1339.44 15.7422C1346.99 41.576 1342.05 128.839 1323.06 231.044C1300.5 352.462 1262.92 490.362 1176.46 594.388C1139.68 638.644 1092.99 677.3 1034.89 702.954C1024.11 707.715 1013.04 711.465 1001.74 714.276C983.7 718.686 965.38 722.737 946.76 726.027C830.53 746.58 717.58 739.099 621.43 746.13C581.66 749.041 544.32 755.362 508.82 765.073C420.2 789.307 339.18 834.393 280.37 945.06C244.37 1012.81 224.97 1103 218.5 1201.59" stroke="url(#paint41_linear_116_75)" stroke-width="0.25" stroke-miterlimit="10"/>
<path d="M1333.04 17.2124C1341.34 45.6266 1337.13 132.649 1319.99 233.914C1299.19 356.793 1264.39 495.793 1180.52 602.149C1144.68 647.596 1098.68 687.612 1041.04 714.546C1030.32 719.556 1019.3 723.617 1008.02 726.687C990.04 731.588 971.72 735.999 953.03 739.619C836.83 762.083 722.97 753.141 625.89 757.932C585.94 759.902 548.31 765.163 512.38 773.694C422.47 795.058 338.65 836.374 277.24 945.2C239.12 1012.76 218.8 1103.63 211.75 1202.15" stroke="url(#paint42_linear_116_75)" stroke-width="0.25" stroke-miterlimit="10"/>
<path d="M1326.65 18.6826C1335.71 49.6772 1332.25 136.47 1316.93 236.785C1297.93 361.153 1265.89 501.244 1184.58 609.9C1149.69 656.537 1104.38 697.923 1047.19 726.127C1036.52 731.388 1025.55 735.729 1014.3 739.089C996.38 744.45 978.05 749.261 959.3 753.191C843.12 777.565 728.37 767.183 630.34 769.704C590.21 770.734 552.28 774.925 515.94 782.286C424.74 800.758 338.07 838.304 274.1 945.3C233.83 1012.65 212.62 1104.23 204.98 1202.68" stroke="url(#paint43_linear_116_75)" stroke-width="0.25" stroke-miterlimit="10"/>
<path d="M1320.25 20.1628C1330.06 53.7378 1327.41 140.321 1313.86 239.665C1296.7 365.524 1267.39 506.705 1188.64 617.671C1154.7 665.498 1110.07 708.245 1053.34 737.729C1042.73 743.24 1031.8 747.861 1020.58 751.511C1002.71 757.322 984.38 762.533 965.57 766.783C849.41 793.047 733.77 781.246 634.8 781.496C594.49 781.596 556.26 784.716 519.51 790.907C427.01 806.499 337.47 840.254 270.98 945.43C228.54 1012.56 206.45 1104.86 198.24 1203.23" stroke="url(#paint44_linear_116_75)" stroke-width="0.25" stroke-miterlimit="10"/>
<path d="M1313.85 21.6331C1324.42 57.7984 1322.6 144.161 1310.79 242.536C1295.51 369.895 1268.9 512.176 1192.7 625.432C1159.71 674.46 1115.77 718.576 1059.49 749.321C1048.94 755.092 1038.06 759.982 1026.85 763.923C1009.04 770.184 990.7 775.795 971.83 780.365C855.69 808.52 739.16 795.318 639.24 793.277C598.75 792.457 560.22 794.487 523.06 799.508C429.26 812.2 336.8 842.154 267.83 945.54C223.2 1012.44 200.26 1105.46 191.46 1203.76" stroke="url(#paint45_linear_116_75)" stroke-width="0.25" stroke-miterlimit="10"/>
<path d="M1307.46 23.1033C1318.78 61.849 1317.83 148.002 1307.73 245.406C1294.37 374.275 1270.43 517.646 1196.77 633.184C1164.74 683.421 1121.48 728.888 1065.65 760.902C1055.15 766.923 1044.32 772.104 1033.14 776.325C1015.38 783.046 997.05 789.047 978.11 793.947C861.98 823.992 744.56 809.4 643.7 805.069C603.03 803.319 564.21 804.259 526.63 808.13C431.53 817.911 336.12 844.055 264.7 945.68C217.85 1012.34 194.08 1106.1 184.71 1204.32" stroke="url(#paint46_linear_116_75)" stroke-width="0.25" stroke-miterlimit="10"/>
<path d="M1301.06 24.5835C1313.14 65.9096 1313.09 151.862 1304.66 248.277C1293.26 378.666 1271.97 523.127 1200.83 640.945C1169.77 692.382 1127.18 739.219 1071.8 772.494C1061.36 778.765 1050.57 784.226 1039.42 788.747C1021.71 795.918 1003.38 802.319 984.38 807.539C868.27 839.464 749.96 823.502 648.16 816.861C607.31 814.2 568.19 814.03 530.19 816.741C433.8 823.612 335.4 845.925 261.56 945.8C212.47 1012.2 187.9 1106.72 177.94 1204.87" stroke="url(#paint47_linear_116_75)" stroke-width="0.25" stroke-miterlimit="10"/>
<path d="M1294.66 26.0537C1307.49 69.9602 1308.39 155.723 1301.59 251.147C1292.2 383.047 1273.51 528.618 1204.89 648.706C1174.8 701.354 1132.89 749.551 1077.96 784.086C1067.57 790.617 1056.84 796.348 1045.71 801.159C1028.06 808.78 1009.72 815.571 990.65 821.122C874.56 854.917 755.36 837.604 652.61 828.643C611.58 825.062 572.16 823.792 533.75 825.352C436.06 829.293 334.65 847.765 258.42 945.92C207.07 1012.04 181.71 1107.34 171.18 1205.41" stroke="url(#paint48_linear_116_75)" stroke-width="0.25" stroke-miterlimit="10"/>
<path d="M1288.27 27.5239C1301.86 74.0208 1303.72 159.573 1298.54 254.017C1291.21 387.447 1275.09 534.109 1208.97 656.457C1179.86 710.315 1138.61 759.872 1084.13 795.668C1073.8 802.449 1063.1 808.44 1052.01 813.56C1034.4 821.601 1016.07 828.823 996.94 834.693C880.86 870.359 760.77 851.706 657.09 840.414C615.88 835.924 576.16 833.543 537.34 833.943C438.35 834.953 333.91 849.556 255.32 946.02C201.69 1011.84 175.57 1107.93 164.45 1205.93" stroke="url(#paint49_linear_116_75)" stroke-width="0.25" stroke-miterlimit="10"/>
<path d="M1281.87 28.9941C1296.21 78.0714 1299.08 163.424 1295.47 256.888C1290.25 391.838 1276.66 539.61 1213.03 664.218C1184.9 719.296 1144.32 770.204 1090.28 807.259C1080.01 814.3 1069.35 820.561 1058.28 825.972C1040.72 834.463 1022.39 842.074 1003.2 848.285C887.13 885.811 766.15 865.838 661.53 852.216C620.13 846.825 580.12 843.325 540.89 842.565C440.61 840.644 333.1 851.356 252.17 946.16C196.25 1011.66 169.37 1108.57 157.68 1206.49" stroke="url(#paint50_linear_116_75)" stroke-width="0.25" stroke-miterlimit="10"/>
<path d="M1275.47 30.4744C1290.57 82.132 1294.47 167.285 1292.4 259.768C1289.34 396.229 1278.25 545.121 1217.08 671.979C1189.94 728.268 1150.02 780.545 1096.42 818.851C1086.21 826.152 1075.59 832.683 1064.55 838.384C1047.05 847.335 1028.71 855.336 1009.46 861.867C893.39 901.253 771.53 879.97 665.98 863.998C624.4 857.707 584.1 853.076 544.45 851.176C442.87 846.305 332.29 853.116 249.03 946.28C190.8 1011.44 163.19 1109.19 150.92 1207.04" stroke="url(#paint51_linear_116_75)" stroke-width="0.25" stroke-miterlimit="10"/>
<path d="M1269.08 31.9446C1284.93 86.1826 1289.9 171.135 1289.34 262.639C1288.49 400.609 1279.86 550.621 1221.15 679.74C1195.01 737.239 1155.75 790.887 1102.58 830.443C1092.43 837.994 1081.86 844.815 1070.84 850.796C1053.39 860.197 1035.05 868.588 1015.74 875.449C899.68 916.686 776.92 894.112 670.44 875.779C628.67 868.588 588.08 862.828 548.01 859.777C445.14 851.956 331.46 854.836 245.89 946.39C185.33 1011.19 157.01 1109.8 144.15 1207.57" stroke="url(#paint52_linear_116_75)" stroke-width="0.25" stroke-miterlimit="10"/>
<path d="M1262.68 33.4148C1279.29 90.2432 1285.35 174.976 1286.27 265.509C1287.69 404.99 1281.46 556.122 1225.21 687.502C1200.07 746.22 1161.46 801.228 1108.73 842.034C1098.63 849.846 1088.11 856.937 1077.12 863.208C1059.72 873.059 1041.38 881.85 1022.01 889.031C905.95 932.108 782.3 908.264 674.89 887.561C632.94 879.48 592.06 872.569 551.57 868.388C447.42 857.617 330.61 856.537 242.76 946.51C179.86 1010.93 150.83 1110.41 137.4 1208.11" stroke="url(#paint53_linear_116_75)" stroke-width="0.25" stroke-miterlimit="10"/>
<path d="M1256.28 34.895C1273.64 94.3038 1280.82 178.816 1283.2 268.39C1286.94 409.36 1283.09 561.633 1229.27 695.263C1205.13 755.202 1167.18 811.57 1114.88 853.626C1104.84 861.697 1094.36 869.058 1083.4 875.619C1066.06 885.931 1047.71 895.102 1028.28 902.623C912.22 947.55 787.67 922.436 679.35 899.363C637.21 890.382 596.05 882.34 555.14 877.01C449.7 863.278 329.76 858.217 239.63 946.65C174.38 1010.66 144.66 1111.05 130.64 1208.67" stroke="url(#paint54_linear_116_75)" stroke-width="0.25" stroke-miterlimit="10"/>
<path d="M1249.89 36.3652C1268.01 98.3544 1276.34 182.647 1280.14 271.26C1286.26 413.711 1284.73 567.134 1233.34 703.024C1210.21 764.173 1172.91 821.922 1121.04 865.218C1111.06 873.549 1100.62 881.18 1089.68 888.031C1072.39 898.793 1054.04 908.354 1034.55 916.206C918.48 962.963 793.04 936.599 683.8 911.145C641.46 901.283 600.03 892.082 558.7 885.611C451.99 868.909 328.9 859.857 236.49 946.76C168.88 1010.34 138.47 1111.66 123.88 1209.21" stroke="url(#paint55_linear_116_75)" stroke-width="0.25" stroke-miterlimit="10"/>
<path d="M1243.49 37.8354C1262.36 102.405 1271.86 186.457 1277.07 274.13C1285.62 418.052 1286.37 572.635 1237.4 710.785C1215.29 773.154 1178.64 832.263 1127.2 876.81C1117.28 885.391 1106.89 893.312 1095.97 900.443C1078.73 911.665 1060.37 921.606 1040.83 929.787C924.76 978.385 798.41 950.771 688.27 922.926C645.74 912.175 604.03 901.823 562.28 894.222C454.29 874.549 328.04 861.477 233.37 946.88C163.39 1010.01 132.31 1112.28 117.13 1209.75" stroke="url(#paint56_linear_116_75)" stroke-width="0.25" stroke-miterlimit="10"/>
<path d="M1237.09 39.3157C1256.72 106.476 1267.41 190.268 1274 277.011C1285.05 422.382 1288.02 578.145 1241.46 718.546C1220.37 782.126 1184.36 842.615 1133.35 888.401C1123.5 897.243 1113.14 905.434 1102.25 912.855C1085.07 924.527 1066.7 934.858 1047.1 943.369C931.02 993.797 803.77 964.953 692.72 934.708C649.99 923.067 608.01 911.565 565.83 902.824C456.57 880.18 327.16 863.058 230.23 946.99C157.88 1009.65 126.12 1112.88 110.37 1210.28" stroke="url(#paint57_linear_116_75)" stroke-width="0.25" stroke-miterlimit="10"/>
<path d="M1230.69 40.7859C1251.07 110.526 1262.98 194.059 1270.93 279.881C1284.53 426.683 1289.69 583.646 1245.51 726.307C1225.45 791.107 1190.08 852.966 1139.49 899.993C1129.7 909.094 1119.38 917.556 1108.52 925.277C1091.39 937.399 1073.02 948.12 1053.36 956.972C937.26 1009.23 809.11 979.165 697.16 946.51C654.24 933.988 611.98 921.326 569.38 911.455C458.86 885.821 326.28 864.638 227.09 947.13C152.35 1009.29 119.94 1113.52 103.61 1210.84" stroke="url(#paint58_linear_116_75)" stroke-width="0.25" stroke-miterlimit="10"/>
<path d="M1224.3 42.2561C1245.44 114.577 1258.58 197.839 1267.88 282.752C1284.09 430.954 1291.38 589.137 1249.59 734.059C1230.56 800.068 1195.92 863.398 1145.66 911.575C1135.95 920.956 1125.65 929.667 1114.82 937.679C1097.75 950.26 1079.35 961.322 1059.64 970.543C943.43 1024.41 814.47 993.347 701.63 958.292C658.51 944.89 615.99 931.068 572.96 920.056C461.17 891.452 325.41 866.168 223.96 947.25C146.84 1008.89 113.77 1114.14 96.85 1211.39" stroke="url(#paint59_linear_116_75)" stroke-width="0.25" stroke-miterlimit="10"/>
<path d="M1217.9 43.7363C1239.79 118.637 1254.2 201.61 1264.81 285.632C1283.7 435.214 1293.06 594.638 1253.65 741.83C1235.65 809.05 1201.62 873.729 1151.81 923.177C1142.15 932.808 1131.91 941.809 1121.09 950.1C1104.07 963.132 1085.67 974.594 1065.9 984.136C949.7 1039.89 819.8 1007.56 706.07 970.083C662.74 955.801 619.98 940.759 576.51 928.677C463.5 896.933 324.52 867.698 220.81 947.38C141.29 1008.48 107.57 1114.77 90.08 1211.94" stroke="url(#paint60_linear_116_75)" stroke-width="0.25" stroke-miterlimit="10"/>
<path d="M1211.5 45.2065C1234.15 122.698 1249.83 205.35 1261.74 288.503C1283.36 439.445 1294.9 600.159 1257.71 749.591C1240.82 818.041 1207.33 884.051 1157.96 934.768C1148.36 944.65 1138.16 953.931 1127.37 962.512C1110.4 975.994 1092 987.856 1072.17 997.718C955.97 1055.37 825.09 1021.88 710.53 981.865C666.98 966.763 623.97 950.521 580.08 937.279C465.8 902.623 323.66 869.178 217.69 947.5C135.78 1008.04 101.41 1115.39 83.33 1212.48" stroke="url(#paint61_linear_116_75)" stroke-width="0.25" stroke-miterlimit="10"/>
<path d="M1205.11 46.6768C1228.51 126.749 1245.48 209.071 1258.68 291.373C1283.09 443.636 1296.46 605.6 1261.78 757.342C1237.88 861.908 1175.89 961.372 1078.45 1011.29C962.26 1070.82 830.47 1035.96 714.99 993.637C671.25 977.605 627.96 960.282 583.64 945.87C468.09 908.304 322.79 870.629 214.55 947.6C130.24 1007.55 95.2199 1115.99 76.5699 1213.01" stroke="url(#paint62_linear_116_75)" stroke-width="0.25" stroke-miterlimit="10"/>
<defs>
<linearGradient id="paint0_linear_116_75" x1="902.423" y1="936.915" x2="705.217" y2="299.692" gradientUnits="userSpaceOnUse">
<stop offset="0.7946" stop-color="#B40FE7"/>
<stop offset="1" stop-color="#1BA4E5" stop-opacity="0.5"/>
</linearGradient>
<linearGradient id="paint1_linear_116_75" x1="900.736" y1="926.561" x2="705.849" y2="296.83" gradientUnits="userSpaceOnUse">
<stop offset="0.7946" stop-color="#B40FE7"/>
<stop offset="1" stop-color="#1BA4E5" stop-opacity="0.5"/>
</linearGradient>
<linearGradient id="paint2_linear_116_75" x1="899.026" y1="916.134" x2="706.48" y2="293.968" gradientUnits="userSpaceOnUse">
<stop offset="0.7946" stop-color="#B40FE7"/>
<stop offset="1" stop-color="#1BA4E5" stop-opacity="0.5"/>
</linearGradient>
<linearGradient id="paint3_linear_116_75" x1="897.357" y1="905.835" x2="707.112" y2="291.105" gradientUnits="userSpaceOnUse">
<stop offset="0.7946" stop-color="#B40FE7"/>
<stop offset="1" stop-color="#1BA4E5" stop-opacity="0.5"/>
</linearGradient>
<linearGradient id="paint4_linear_116_75" x1="895.711" y1="895.614" x2="707.743" y2="288.243" gradientUnits="userSpaceOnUse">
<stop offset="0.7946" stop-color="#B40FE7"/>
<stop offset="1" stop-color="#1BA4E5" stop-opacity="0.5"/>
</linearGradient>
<linearGradient id="paint5_linear_116_75" x1="894.093" y1="885.484" x2="708.375" y2="285.381" gradientUnits="userSpaceOnUse">
<stop offset="0.7946" stop-color="#B40FE7"/>
<stop offset="1" stop-color="#1BA4E5" stop-opacity="0.5"/>
</linearGradient>
<linearGradient id="paint6_linear_116_75" x1="892.51" y1="875.464" x2="709.006" y2="282.518" gradientUnits="userSpaceOnUse">
<stop offset="0.7946" stop-color="#B40FE7"/>
<stop offset="1" stop-color="#1BA4E5" stop-opacity="0.5"/>
</linearGradient>
<linearGradient id="paint7_linear_116_75" x1="890.968" y1="865.579" x2="709.638" y2="279.656" gradientUnits="userSpaceOnUse">
<stop offset="0.7946" stop-color="#B40FE7"/>
<stop offset="1" stop-color="#1BA4E5" stop-opacity="0.5"/>
</linearGradient>
<linearGradient id="paint8_linear_116_75" x1="889.479" y1="855.861" x2="710.27" y2="276.794" gradientUnits="userSpaceOnUse">
<stop offset="0.7946" stop-color="#B40FE7"/>
<stop offset="1" stop-color="#1BA4E5" stop-opacity="0.5"/>
</linearGradient>
<linearGradient id="paint9_linear_116_75" x1="888.055" y1="846.353" x2="710.903" y2="273.931" gradientUnits="userSpaceOnUse">
<stop offset="0.7946" stop-color="#B40FE7"/>
<stop offset="1" stop-color="#1BA4E5" stop-opacity="0.5"/>
</linearGradient>
<linearGradient id="paint10_linear_116_75" x1="886.715" y1="837.116" x2="711.536" y2="271.068" gradientUnits="userSpaceOnUse">
<stop offset="0.7946" stop-color="#B40FE7"/>
<stop offset="1" stop-color="#1BA4E5" stop-opacity="0.5"/>
</linearGradient>
<linearGradient id="paint11_linear_116_75" x1="885.486" y1="828.235" x2="712.17" y2="268.205" gradientUnits="userSpaceOnUse">
<stop offset="0.7946" stop-color="#B40FE7"/>
<stop offset="1" stop-color="#1BA4E5" stop-opacity="0.5"/>
</linearGradient>
<linearGradient id="paint12_linear_116_75" x1="884.41" y1="819.843" x2="712.805" y2="265.341" gradientUnits="userSpaceOnUse">
<stop offset="0.7946" stop-color="#B40FE7"/>
<stop offset="1" stop-color="#1BA4E5" stop-opacity="0.5"/>
</linearGradient>
<linearGradient id="paint13_linear_116_75" x1="883.553" y1="812.148" x2="713.442" y2="262.477" gradientUnits="userSpaceOnUse">
<stop offset="0.7946" stop-color="#B40FE7"/>
<stop offset="1" stop-color="#1BA4E5" stop-opacity="0.5"/>
</linearGradient>
<linearGradient id="paint14_linear_116_75" x1="883.031" y1="805.528" x2="714.082" y2="259.612" gradientUnits="userSpaceOnUse">
<stop offset="0.7946" stop-color="#B40FE7"/>
<stop offset="1" stop-color="#1BA4E5" stop-opacity="0.5"/>
</linearGradient>
<linearGradient id="paint15_linear_116_75" x1="883.09" y1="800.775" x2="714.726" y2="256.747" gradientUnits="userSpaceOnUse">
<stop offset="0.7946" stop-color="#B40FE7"/>
<stop offset="1" stop-color="#1BA4E5" stop-opacity="0.5"/>
</linearGradient>
<linearGradient id="paint16_linear_116_75" x1="884.535" y1="800.495" x2="715.37" y2="253.88" gradientUnits="userSpaceOnUse">
<stop offset="0.7946" stop-color="#B40FE7"/>
<stop offset="1" stop-color="#1BA4E5" stop-opacity="0.5"/>
</linearGradient>
<linearGradient id="paint17_linear_116_75" x1="889.709" y1="812.359" x2="715.987" y2="251.022" gradientUnits="userSpaceOnUse">
<stop offset="0.7946" stop-color="#B40FE7"/>
<stop offset="1" stop-color="#1BA4E5" stop-opacity="0.5"/>
</linearGradient>
<linearGradient id="paint18_linear_116_75" x1="895.052" y1="824.776" x2="716.604" y2="248.165" gradientUnits="userSpaceOnUse">
<stop offset="0.7946" stop-color="#B40FE7"/>
<stop offset="1" stop-color="#1BA4E5" stop-opacity="0.5"/>
</linearGradient>
<linearGradient id="paint19_linear_116_75" x1="900.397" y1="837.19" x2="717.223" y2="245.306" gradientUnits="userSpaceOnUse">
<stop offset="0.7946" stop-color="#B40FE7"/>
<stop offset="1" stop-color="#1BA4E5" stop-opacity="0.5"/>
</linearGradient>
<linearGradient id="paint20_linear_116_75" x1="905.746" y1="849.603" x2="717.845" y2="242.447" gradientUnits="userSpaceOnUse">
<stop offset="0.7946" stop-color="#B40FE7"/>
<stop offset="1" stop-color="#1BA4E5" stop-opacity="0.5"/>
</linearGradient>
<linearGradient id="paint21_linear_116_75" x1="911.097" y1="862.016" x2="718.469" y2="239.587" gradientUnits="userSpaceOnUse">
<stop offset="0.7946" stop-color="#B40FE7"/>
<stop offset="1" stop-color="#1BA4E5" stop-opacity="0.5"/>
</linearGradient>
<linearGradient id="paint22_linear_116_75" x1="916.449" y1="874.431" x2="719.094" y2="236.726" gradientUnits="userSpaceOnUse">
<stop offset="0.7946" stop-color="#B40FE7"/>
<stop offset="1" stop-color="#1BA4E5" stop-opacity="0.5"/>
</linearGradient>
<linearGradient id="paint23_linear_116_75" x1="921.803" y1="886.847" x2="719.72" y2="233.866" gradientUnits="userSpaceOnUse">
<stop offset="0.7946" stop-color="#B40FE7"/>
<stop offset="1" stop-color="#1BA4E5" stop-opacity="0.5"/>
</linearGradient>
<linearGradient id="paint24_linear_116_75" x1="927.157" y1="899.263" x2="720.346" y2="231.004" gradientUnits="userSpaceOnUse">
<stop offset="0.7946" stop-color="#B40FE7"/>
<stop offset="1" stop-color="#1BA4E5" stop-opacity="0.5"/>
</linearGradient>
<linearGradient id="paint25_linear_116_75" x1="932.512" y1="911.681" x2="720.973" y2="228.143" gradientUnits="userSpaceOnUse">
<stop offset="0.7946" stop-color="#B40FE7"/>
<stop offset="1" stop-color="#1BA4E5" stop-opacity="0.5"/>
</linearGradient>
<linearGradient id="paint26_linear_116_75" x1="937.868" y1="924.099" x2="721.6" y2="225.282" gradientUnits="userSpaceOnUse">
<stop offset="0.7946" stop-color="#B40FE7"/>
<stop offset="1" stop-color="#1BA4E5" stop-opacity="0.5"/>
</linearGradient>
<linearGradient id="paint27_linear_116_75" x1="943.224" y1="936.518" x2="722.227" y2="222.42" gradientUnits="userSpaceOnUse">
<stop offset="0.7946" stop-color="#B40FE7"/>
<stop offset="1" stop-color="#1BA4E5" stop-opacity="0.5"/>
</linearGradient>
<linearGradient id="paint28_linear_116_75" x1="948.58" y1="948.937" x2="722.854" y2="219.558" gradientUnits="userSpaceOnUse">
<stop offset="0.7946" stop-color="#B40FE7"/>
<stop offset="1" stop-color="#1BA4E5" stop-opacity="0.5"/>
</linearGradient>
<linearGradient id="paint29_linear_116_75" x1="953.937" y1="961.357" x2="723.481" y2="216.697" gradientUnits="userSpaceOnUse">
<stop offset="0.7946" stop-color="#B40FE7"/>
<stop offset="1" stop-color="#1BA4E5" stop-opacity="0.5"/>
</linearGradient>
<linearGradient id="paint30_linear_116_75" x1="959.294" y1="973.777" x2="724.109" y2="213.835" gradientUnits="userSpaceOnUse">
<stop offset="0.7946" stop-color="#B40FE7"/>
<stop offset="1" stop-color="#1BA4E5" stop-opacity="0.5"/>
</linearGradient>
<linearGradient id="paint31_linear_116_75" x1="964.65" y1="986.197" x2="724.736" y2="210.972" gradientUnits="userSpaceOnUse">
<stop offset="0.7946" stop-color="#B40FE7"/>
<stop offset="1" stop-color="#1BA4E5" stop-opacity="0.5"/>
</linearGradient>
<linearGradient id="paint32_linear_116_75" x1="957.932" y1="986.729" x2="718.329" y2="212.511" gradientUnits="userSpaceOnUse">
<stop offset="0.7946" stop-color="#B40FE7"/>
<stop offset="1" stop-color="#1BA4E5" stop-opacity="0.5"/>
</linearGradient>
<linearGradient id="paint33_linear_116_75" x1="951.208" y1="987.264" x2="711.899" y2="213.995" gradientUnits="userSpaceOnUse">
<stop offset="0.7946" stop-color="#B40FE7"/>
<stop offset="1" stop-color="#1BA4E5" stop-opacity="0.5"/>
</linearGradient>
<linearGradient id="paint34_linear_116_75" x1="944.484" y1="987.799" x2="705.468" y2="215.479" gradientUnits="userSpaceOnUse">
<stop offset="0.7946" stop-color="#B40FE7"/>
<stop offset="1" stop-color="#1BA4E5" stop-opacity="0.5"/>
</linearGradient>
<linearGradient id="paint35_linear_116_75" x1="937.76" y1="988.333" x2="699.038" y2="216.963" gradientUnits="userSpaceOnUse">
<stop offset="0.7946" stop-color="#B40FE7"/>
<stop offset="1" stop-color="#1BA4E5" stop-opacity="0.5"/>
</linearGradient>
<linearGradient id="paint36_linear_116_75" x1="931.035" y1="988.868" x2="692.607" y2="218.447" gradientUnits="userSpaceOnUse">
<stop offset="0.7946" stop-color="#B40FE7"/>
<stop offset="1" stop-color="#1BA4E5" stop-opacity="0.5"/>
</linearGradient>
<linearGradient id="paint37_linear_116_75" x1="924.311" y1="989.403" x2="686.177" y2="219.931" gradientUnits="userSpaceOnUse">
<stop offset="0.7946" stop-color="#B40FE7"/>
<stop offset="1" stop-color="#1BA4E5" stop-opacity="0.5"/>
</linearGradient>
<linearGradient id="paint38_linear_116_75" x1="917.587" y1="989.938" x2="679.746" y2="221.415" gradientUnits="userSpaceOnUse">
<stop offset="0.7946" stop-color="#B40FE7"/>
<stop offset="1" stop-color="#1BA4E5" stop-opacity="0.5"/>
</linearGradient>
<linearGradient id="paint39_linear_116_75" x1="910.862" y1="990.472" x2="673.316" y2="222.899" gradientUnits="userSpaceOnUse">
<stop offset="0.7946" stop-color="#B40FE7"/>
<stop offset="1" stop-color="#1BA4E5" stop-opacity="0.5"/>
</linearGradient>
<linearGradient id="paint40_linear_116_75" x1="904.138" y1="991.007" x2="666.885" y2="224.382" gradientUnits="userSpaceOnUse">
<stop offset="0.7946" stop-color="#B40FE7"/>
<stop offset="1" stop-color="#1BA4E5" stop-opacity="0.5"/>
</linearGradient>
<linearGradient id="paint41_linear_116_75" x1="897.414" y1="991.541" x2="660.455" y2="225.866" gradientUnits="userSpaceOnUse">
<stop offset="0.7946" stop-color="#B40FE7"/>
<stop offset="1" stop-color="#1BA4E5" stop-opacity="0.5"/>
</linearGradient>
<linearGradient id="paint42_linear_116_75" x1="890.69" y1="992.076" x2="654.024" y2="227.35" gradientUnits="userSpaceOnUse">
<stop offset="0.7946" stop-color="#B40FE7"/>
<stop offset="1" stop-color="#1BA4E5" stop-opacity="0.5"/>
</linearGradient>
<linearGradient id="paint43_linear_116_75" x1="883.965" y1="992.611" x2="647.594" y2="228.834" gradientUnits="userSpaceOnUse">
<stop offset="0.7946" stop-color="#B40FE7"/>
<stop offset="1" stop-color="#1BA4E5" stop-opacity="0.5"/>
</linearGradient>
<linearGradient id="paint44_linear_116_75" x1="877.241" y1="993.146" x2="641.163" y2="230.318" gradientUnits="userSpaceOnUse">
<stop offset="0.7946" stop-color="#B40FE7"/>
<stop offset="1" stop-color="#1BA4E5" stop-opacity="0.5"/>
</linearGradient>
<linearGradient id="paint45_linear_116_75" x1="870.517" y1="993.68" x2="634.733" y2="231.802" gradientUnits="userSpaceOnUse">
<stop offset="0.7946" stop-color="#B40FE7"/>
<stop offset="1" stop-color="#1BA4E5" stop-opacity="0.5"/>
</linearGradient>
<linearGradient id="paint46_linear_116_75" x1="863.793" y1="994.215" x2="628.302" y2="233.285" gradientUnits="userSpaceOnUse">
<stop offset="0.7946" stop-color="#B40FE7"/>
<stop offset="1" stop-color="#1BA4E5" stop-opacity="0.5"/>
</linearGradient>
<linearGradient id="paint47_linear_116_75" x1="857.068" y1="994.749" x2="621.872" y2="234.769" gradientUnits="userSpaceOnUse">
<stop offset="0.7946" stop-color="#B40FE7"/>
<stop offset="1" stop-color="#1BA4E5" stop-opacity="0.5"/>
</linearGradient>
<linearGradient id="paint48_linear_116_75" x1="850.344" y1="995.284" x2="615.441" y2="236.253" gradientUnits="userSpaceOnUse">
<stop offset="0.7946" stop-color="#B40FE7"/>
<stop offset="1" stop-color="#1BA4E5" stop-opacity="0.5"/>
</linearGradient>
<linearGradient id="paint49_linear_116_75" x1="843.62" y1="995.819" x2="609.011" y2="237.737" gradientUnits="userSpaceOnUse">
<stop offset="0.7946" stop-color="#B40FE7"/>
<stop offset="1" stop-color="#1BA4E5" stop-opacity="0.5"/>
</linearGradient>
<linearGradient id="paint50_linear_116_75" x1="836.895" y1="996.353" x2="602.58" y2="239.221" gradientUnits="userSpaceOnUse">
<stop offset="0.7946" stop-color="#B40FE7"/>
<stop offset="1" stop-color="#1BA4E5" stop-opacity="0.5"/>
</linearGradient>
<linearGradient id="paint51_linear_116_75" x1="830.171" y1="996.888" x2="596.15" y2="240.705" gradientUnits="userSpaceOnUse">
<stop offset="0.7946" stop-color="#B40FE7"/>
<stop offset="1" stop-color="#1BA4E5" stop-opacity="0.5"/>
</linearGradient>
<linearGradient id="paint52_linear_116_75" x1="823.447" y1="997.423" x2="589.719" y2="242.189" gradientUnits="userSpaceOnUse">
<stop offset="0.7946" stop-color="#B40FE7"/>
<stop offset="1" stop-color="#1BA4E5" stop-opacity="0.5"/>
</linearGradient>
<linearGradient id="paint53_linear_116_75" x1="816.723" y1="997.957" x2="583.289" y2="243.672" gradientUnits="userSpaceOnUse">
<stop offset="0.7946" stop-color="#B40FE7"/>
<stop offset="1" stop-color="#1BA4E5" stop-opacity="0.5"/>
</linearGradient>
<linearGradient id="paint54_linear_116_75" x1="809.999" y1="998.492" x2="576.858" y2="245.156" gradientUnits="userSpaceOnUse">
<stop offset="0.7946" stop-color="#B40FE7"/>
<stop offset="1" stop-color="#1BA4E5" stop-opacity="0.5"/>
</linearGradient>
<linearGradient id="paint55_linear_116_75" x1="803.274" y1="999.026" x2="570.428" y2="246.64" gradientUnits="userSpaceOnUse">
<stop offset="0.7946" stop-color="#B40FE7"/>
<stop offset="1" stop-color="#1BA4E5" stop-opacity="0.5"/>
</linearGradient>
<linearGradient id="paint56_linear_116_75" x1="798.679" y1="1006.44" x2="563.996" y2="248.124" gradientUnits="userSpaceOnUse">
<stop offset="0.7946" stop-color="#B40FE7"/>
<stop offset="1" stop-color="#1BA4E5" stop-opacity="0.5"/>
</linearGradient>
<linearGradient id="paint57_linear_116_75" x1="796.889" y1="1022.93" x2="557.564" y2="249.609" gradientUnits="userSpaceOnUse">
<stop offset="0.7946" stop-color="#B40FE7"/>
<stop offset="1" stop-color="#1BA4E5" stop-opacity="0.5"/>
</linearGradient>
<linearGradient id="paint58_linear_116_75" x1="795.107" y1="1039.44" x2="551.131" y2="251.093" gradientUnits="userSpaceOnUse">
<stop offset="0.7946" stop-color="#B40FE7"/>
<stop offset="1" stop-color="#1BA4E5" stop-opacity="0.5"/>
</linearGradient>
<linearGradient id="paint59_linear_116_75" x1="793.316" y1="1055.92" x2="544.699" y2="252.578" gradientUnits="userSpaceOnUse">
<stop offset="0.7946" stop-color="#B40FE7"/>
<stop offset="1" stop-color="#1BA4E5" stop-opacity="0.5"/>
</linearGradient>
<linearGradient id="paint60_linear_116_75" x1="791.552" y1="1072.5" x2="538.266" y2="254.062" gradientUnits="userSpaceOnUse">
<stop offset="0.7946" stop-color="#B40FE7"/>
<stop offset="1" stop-color="#1BA4E5" stop-opacity="0.5"/>
</linearGradient>
<linearGradient id="paint61_linear_116_75" x1="789.797" y1="1089.09" x2="531.833" y2="255.547" gradientUnits="userSpaceOnUse">
<stop offset="0.7946" stop-color="#B40FE7"/>
<stop offset="1" stop-color="#1BA4E5" stop-opacity="0.5"/>
</linearGradient>
<linearGradient id="paint62_linear_116_75" x1="788.046" y1="1105.7" x2="525.401" y2="257.031" gradientUnits="userSpaceOnUse">
<stop offset="0.7946" stop-color="#B40FE7"/>
<stop offset="1" stop-color="#1BA4E5" stop-opacity="0.5"/>
</linearGradient>
</defs>
</svg>
