<svg width="245" height="285" viewBox="0 0 245 285" fill="none" xmlns="http://www.w3.org/2000/svg">
<path d="M170.616 245.65H94.9901C82.0194 245.65 71.4077 235.081 71.4077 222.162V155.61C71.4077 142.692 82.0194 132.122 94.9901 132.122H170.617C183.588 132.122 194.199 142.692 194.199 155.61V222.162C194.199 235.08 183.587 245.65 170.616 245.65Z" fill="white"/>
<path d="M170.616 132.121C183.587 132.121 194.198 142.691 194.198 155.61V222.161C194.198 235.08 183.587 245.649 170.616 245.649H94.9901C82.0194 245.649 71.4077 235.08 71.4077 222.161V155.61C71.4077 142.691 82.0194 132.121 94.9901 132.121H170.616ZM170.616 128.409H94.9901C91.3169 128.409 87.7459 129.132 84.3762 130.558C81.128 131.932 78.2088 133.896 75.6996 136.396C73.1905 138.895 71.2181 141.804 69.8379 145.038C68.4065 148.394 67.6802 151.951 67.6802 155.61V222.161C67.6802 225.82 68.4065 229.376 69.8379 232.732C71.2181 235.968 73.1894 238.875 75.6996 241.374C78.2088 243.874 81.129 245.838 84.3762 247.213C87.7459 248.638 91.3169 249.362 94.9901 249.362H170.617C174.29 249.362 177.861 248.638 181.231 247.213C184.479 245.838 187.398 243.875 189.907 241.374C192.417 238.875 194.389 235.967 195.769 232.732C197.201 229.376 197.927 225.82 197.927 222.161V155.61C197.927 151.951 197.201 148.394 195.769 145.038C194.389 141.803 192.418 138.895 189.907 136.396C187.398 133.897 184.478 131.932 181.231 130.558C177.861 129.132 174.289 128.409 170.616 128.409Z" fill="#00227B"/>
<path d="M192.507 204.498C180.733 205.873 168.996 206.211 168.996 206.211C168.996 206.211 163.02 176.527 161.362 153.25C160.142 136.004 161.29 122.278 168.996 126.755C172.542 128.815 176.625 132.694 180.883 137.615C196.853 156.077 215.201 189.23 216.207 196.109C216.857 200.533 204.666 203.071 192.507 204.498Z" fill="white"/>
<path d="M167.42 208.189L167.098 206.592C167.062 206.41 163.407 188.17 161.041 169.285C159.646 158.15 158.965 148.956 159.014 141.961C159.081 132.406 160.474 126.986 163.397 124.906C164.681 123.993 166.864 123.284 169.974 125.091C180.225 131.048 193.237 150.025 200.08 160.806C204.645 167.998 209.015 175.558 212.385 182.092C214.76 186.696 217.684 192.816 218.126 195.83C218.255 196.705 218.168 198.032 217.029 199.383C215.381 201.337 211.959 202.867 206.258 204.195C202.078 205.169 196.707 206.007 190.294 206.686C179.436 207.834 169.156 208.139 169.054 208.142L167.42 208.189ZM166.327 127.831C165.953 127.831 165.757 127.971 165.65 128.046C164.386 128.945 160.596 134.54 164.884 168.787C166.827 184.297 169.646 199.376 170.583 204.224C173.889 204.091 181.733 203.71 189.906 202.845C208.88 200.835 213.119 198.018 214.062 196.901C214.323 196.593 214.301 196.449 214.292 196.388C213.741 192.638 206.583 178.273 196.805 162.868C185.481 145.027 174.991 132.472 168.022 128.423C167.231 127.964 166.693 127.831 166.327 127.831Z" fill="#00227B"/>
<path d="M109.082 125.66L106.699 143.617L105.343 153.825L102.451 175.622C102.451 175.622 97.1667 179.202 88.3762 182.038C85.0917 183.1 81.3088 184.049 77.134 184.672C70.3095 185.694 62.4189 185.825 53.8701 184.083C31.8756 179.596 18.676 163.324 12.9611 155.143C1.91599 139.351 0.216249 135.082 3.28666 128.434C5.63073 123.339 9.64686 122.409 9.64686 122.409C9.64686 122.409 9.44877 118.338 12.6842 116.89C22.3811 112.553 34.8725 124.136 34.8725 124.136C34.8725 124.136 35.3379 111.68 42.0315 114.555C46.643 116.538 47.6888 130.099 47.6888 130.099C47.6888 130.099 53.8786 138.021 63.7118 139.072C68.8504 139.622 75.9614 138.137 83.0235 135.98C83.1055 135.956 83.1886 135.933 83.2706 135.903C87.0343 134.746 90.7735 133.404 94.1975 132.077C95.7332 131.484 97.2051 130.89 98.5853 130.321C104.756 127.773 109.082 125.66 109.082 125.66Z" fill="white"/>
<path opacity="0.35" d="M12.9579 155.143C18.6781 163.322 31.8756 179.597 53.8679 184.083C67.6437 186.89 79.7155 184.828 88.3772 182.035C97.1677 179.202 102.451 175.619 102.451 175.619L102.839 158.419C102.839 158.419 96.8493 152.67 91.2708 155.014C84.5677 157.831 86.7158 167.404 77.1425 170.066C50.5291 177.468 28.9096 163.945 21.953 158.008C12.3019 149.772 9.78423 144.585 8.42635 142.444C5.61581 138.016 3.44534 134.535 2.22165 131.419C0.974528 136.691 3.63704 141.811 12.9579 155.143Z" fill="#00227B"/>
<path d="M67.1397 187.349C62.5474 187.349 57.9742 186.89 53.4799 185.972C43.5935 183.956 34.3695 179.416 26.0657 172.476C20.7215 168.011 15.7767 162.549 11.3697 156.246C5.99142 148.552 2.57276 143.268 1.0136 139.022C-0.480604 134.954 -0.332568 131.653 1.52267 127.627C3.34915 123.662 6.1107 121.838 7.77956 121.056C8.0522 119.018 9.11401 116.373 11.8894 115.132C19.7747 111.604 28.8741 117.064 33.378 120.424C33.4217 120.196 33.4706 119.963 33.5228 119.726C34.2694 116.391 35.5581 114.128 37.3526 113C38.4549 112.307 40.2941 111.708 42.8022 112.787C45.3465 113.882 47.2028 117.105 48.4787 122.641C49.1315 125.478 49.4457 128.14 49.5639 129.32C50.9335 130.864 56.2862 136.338 63.9202 137.153C77.8557 138.641 107.925 124.074 108.227 123.927C108.869 123.614 109.631 123.678 110.211 124.093C110.79 124.508 111.093 125.208 111.001 125.913L104.374 175.872C104.302 176.417 104 176.905 103.544 177.214C103.322 177.364 98.0077 180.932 89.1714 183.807C83.9955 185.492 78.6705 186.589 73.3454 187.069C71.2761 187.256 69.2058 187.349 67.1397 187.349ZM10.0949 124.283C9.8446 124.351 6.88709 125.234 5.04357 129.235C2.56105 134.623 3.17129 137.764 14.5487 154.039C25.2456 169.34 38.9756 179.074 54.2563 182.191C68.1791 185.03 80.2722 182.642 87.9658 180.138C94.4879 178.016 98.9854 175.484 100.649 174.473L106.694 128.903C103.536 130.339 98.3709 132.595 92.5741 134.759C79.6705 139.575 69.8895 141.671 63.5069 140.99C52.9772 139.867 46.4339 131.635 46.1602 131.285C45.9269 130.986 45.7863 130.626 45.7576 130.248C45.7555 130.216 45.4924 126.922 44.6915 123.462C43.3422 117.629 41.7276 116.527 41.2654 116.329C40.1088 115.831 39.6093 116.144 39.4208 116.262C37.7924 117.282 36.9106 121.523 36.8041 124.208C36.7743 124.961 36.3057 125.629 35.606 125.917C34.9052 126.204 34.1022 126.06 33.5473 125.546C33.4323 125.44 21.8802 114.891 13.4763 118.652C11.5401 119.518 11.5752 122.132 11.5806 122.32C11.6381 123.272 11.031 124.086 10.0949 124.283Z" fill="#00227B"/>
<path d="M36.4661 124.134C36.5109 124.676 36.4299 125.169 36.3213 125.597C36.267 125.817 36.1999 126.008 36.1317 126.204C36.0625 126.388 35.9869 126.575 35.9123 126.741C35.6067 127.426 35.2765 127.994 34.9623 128.544C34.6471 129.092 34.3436 129.613 34.0614 130.134L33.8547 130.527C33.7898 130.658 33.7206 130.789 33.6577 130.921L33.4745 131.32L33.2999 131.723L33.1412 132.133L32.9942 132.549C32.9442 132.688 32.9069 132.83 32.8622 132.971C32.8153 133.112 32.7802 133.256 32.7418 133.399C32.5948 133.976 32.4681 134.57 32.3946 135.183C32.3147 135.794 32.2636 136.42 32.2487 137.058C32.2327 137.378 32.2391 137.699 32.2359 138.025C32.2306 138.189 32.2445 138.35 32.2455 138.514C32.2487 138.679 32.254 138.843 32.253 139.01V139.021C32.253 139.15 32.1486 139.254 32.0187 139.254C31.9282 139.254 31.8504 139.203 31.8121 139.127C31.5011 138.527 31.2199 137.903 31.0027 137.252C30.7737 136.603 30.6097 135.926 30.4893 135.233C30.2529 133.848 30.2582 132.382 30.5181 130.95L30.6257 130.416C30.6672 130.239 30.713 130.064 30.7567 129.887C30.8035 129.712 30.8557 129.54 30.9047 129.365C30.9558 129.192 31.0165 129.024 31.073 128.853C31.3062 128.174 31.5948 127.529 31.8919 126.925C32.188 126.321 32.5033 125.751 32.7589 125.257C33.0283 124.756 33.1806 124.35 33.2701 124.131L33.4575 123.671C33.7834 122.875 34.6961 122.492 35.4959 122.816C36.0614 123.048 36.4182 123.568 36.4661 124.134Z" fill="#00227B"/>
<path d="M51.74 185.408C51.2511 185.408 50.7793 185.139 50.5472 184.673C50.2192 184.017 50.4875 183.222 51.1457 182.895C56.5165 180.234 60.1865 171.928 61.7563 158.875C62.9736 148.76 62.4678 139.352 62.4624 139.259C62.422 138.528 62.9832 137.902 63.717 137.861C64.4476 137.82 65.0792 138.38 65.1207 139.111C65.126 139.206 65.6447 148.814 64.4039 159.156C63.6702 165.275 62.472 170.467 60.8426 174.588C58.7339 179.922 55.8701 183.516 52.3321 185.269C52.1415 185.363 51.9391 185.408 51.74 185.408Z" fill="#00227B"/>
<g opacity="0.35">
<g opacity="0.35">
<g opacity="0.35">
<g opacity="0.35">
<path opacity="0.35" d="M223.555 270.756V270.485C221.426 270.577 223.555 270.756 223.555 270.756Z" fill="#00227B"/>
</g>
</g>
</g>
</g>
<path d="M196.684 238.181H68.7876C68.7876 238.181 69.5672 216.197 77.133 184.671C80.165 172.027 84.2919 157.848 89.896 142.936C91.2421 139.356 92.6767 135.733 94.1975 132.076C98.4501 121.872 103.41 111.423 109.194 100.973H156.279C161.06 109.613 165.278 118.249 168.998 126.754C171.405 132.254 173.604 137.695 175.61 143.041C184.362 166.342 189.502 187.849 192.509 204.497C196.219 225.036 196.684 238.181 196.684 238.181Z" fill="white"/>
<path d="M179.126 159.437C181.598 162.185 182.728 165.384 183.772 168.597C184.296 170.204 184.812 171.814 185.305 173.432C185.552 174.24 185.806 175.048 186.026 175.863C186.253 176.677 186.474 177.494 186.695 178.309L187.343 180.761C187.556 181.579 187.771 182.395 187.971 183.217L189.148 188.15C189.339 188.973 189.549 189.791 189.737 190.615L190.298 193.087L190.874 195.555C191.068 196.377 191.268 197.198 191.449 198.023L192.559 202.97C192.75 203.793 192.914 204.622 193.089 205.449L193.609 207.93L193.869 209.17L193.999 209.79L194.12 210.412L194.607 212.899C194.769 213.729 194.936 214.557 195.112 215.384C195.28 216.212 195.449 217.041 195.626 217.868C196.367 221.17 196.908 224.515 197.133 227.903C197.162 228.326 197.195 228.748 197.215 229.173L197.269 230.447C197.297 231.298 197.321 232.148 197.308 233.004C197.302 233.858 197.283 234.713 197.228 235.571C197.178 236.429 197.107 237.287 196.977 238.152C196.952 238.318 196.796 238.433 196.628 238.408C196.514 238.391 196.425 238.314 196.387 238.214L196.385 238.21C195.774 236.592 195.275 234.967 194.803 233.342C194.571 232.53 194.347 231.715 194.131 230.901L193.82 229.678C193.722 229.27 193.621 228.863 193.519 228.454C193.122 226.822 192.773 225.185 192.459 223.541C192.308 222.718 192.17 221.892 192.045 221.065C191.909 220.239 191.785 219.411 191.656 218.584C191.53 217.755 191.398 216.929 191.264 216.103C191.121 215.278 190.963 214.455 190.802 213.633L190.319 211.167L190.199 210.551L190.07 209.936L189.812 208.706L189.297 206.246C189.122 205.427 188.959 204.605 188.771 203.789L187.67 198.884C187.493 198.065 187.286 197.252 187.091 196.438L186.489 193.997L185.873 191.56C185.773 191.154 185.659 190.75 185.55 190.346L185.219 189.133L183.889 184.286C183.429 182.674 182.958 181.066 182.51 179.452C182.286 178.645 182.062 177.837 181.845 177.028L181.683 176.421L181.512 175.817L181.174 174.606C180.724 172.993 180.297 171.372 179.876 169.749L179.567 168.529C179.464 168.123 179.35 167.72 179.241 167.315C179.025 166.504 178.844 165.683 178.708 164.848C178.572 164.013 178.477 163.164 178.441 162.296C178.422 161.862 178.42 161.423 178.436 160.978C178.453 160.532 178.482 160.081 178.561 159.616L178.564 159.598C178.594 159.422 178.761 159.303 178.938 159.333C179.013 159.346 179.079 159.385 179.126 159.437Z" fill="#00227B"/>
<path d="M68.4878 238.172C68.2907 237.735 68.1555 237.301 68.0287 236.865C67.902 236.428 67.8072 235.996 67.7231 235.561C67.5527 234.691 67.4611 233.827 67.41 232.965C67.3865 232.533 67.3706 232.102 67.3716 231.673C67.3727 231.243 67.3897 230.815 67.41 230.388L67.4824 229.105C67.5048 228.678 67.5314 228.251 67.5665 227.824C67.6997 226.118 67.8296 224.411 68.0298 222.713C68.1203 221.863 68.2215 221.014 68.3216 220.164C68.3706 219.74 68.4366 219.318 68.4941 218.894L68.6741 217.624L69.0501 215.088C69.1821 214.243 69.3355 213.403 69.4793 212.561C69.7732 210.878 70.0501 209.192 70.3856 207.517C70.7115 205.84 71.0097 204.159 71.343 202.485C71.6817 200.812 72.0118 199.137 72.3377 197.461C72.4208 197.042 72.4954 196.622 72.5859 196.205L72.8543 194.954L73.39 192.45L73.9257 189.947C73.9715 189.738 74.013 189.529 74.0609 189.321L74.2079 188.698L74.5018 187.452L75.6765 182.468C75.7713 182.052 75.8778 181.638 75.9832 181.224C76.0855 180.81 76.1899 180.396 76.2878 179.981C76.4859 179.151 76.6819 178.32 76.8704 177.487C77.0632 176.656 77.2517 175.822 77.4508 174.991C77.6425 174.159 77.8832 173.34 78.1239 172.52C78.3699 171.702 78.6308 170.888 78.9046 170.078C79.1793 169.269 79.4711 168.464 79.7661 167.661L80.222 166.46C80.2986 166.26 80.3838 166.063 80.4669 165.865C80.551 165.667 80.632 165.469 80.7193 165.272C81.0633 164.484 81.4116 163.699 81.7822 162.921C82.1485 162.141 82.5309 161.368 82.9324 160.602C83.3339 159.836 83.7503 159.076 84.2125 158.331C84.3009 158.188 84.4894 158.143 84.6332 158.233C84.7312 158.293 84.7834 158.4 84.778 158.508V158.513C84.5863 162.013 83.9282 165.344 83.2785 168.674C83.1113 169.504 82.9409 170.334 82.7535 171.159C82.565 171.983 82.3626 172.803 82.1475 173.619C81.6981 175.246 81.2465 176.872 80.7758 178.495C80.5404 179.307 80.3114 180.119 80.0846 180.933C79.9695 181.339 79.862 181.747 79.7523 182.155C79.6447 182.563 79.534 182.97 79.4424 183.383L78.2805 188.314L77.9897 189.547L77.8449 190.163C77.7969 190.369 77.7554 190.576 77.7107 190.782L77.1803 193.259L76.6499 195.735L76.3848 196.974C76.2964 197.387 76.2218 197.803 76.1398 198.216C74.7787 204.834 73.8639 211.532 72.9746 218.216L72.6296 220.721C72.522 221.557 72.4144 222.393 72.2973 223.228L71.6114 228.238C71.4868 229.073 71.3867 229.907 71.2738 230.742C71.2152 231.159 71.1535 231.577 71.0757 231.993C70.999 232.409 70.9234 232.824 70.8297 233.239C70.6433 234.069 70.4122 234.896 70.1385 235.721C70.0022 236.134 69.8392 236.548 69.672 236.959C69.5006 237.371 69.3142 237.785 69.0842 238.195L69.082 238.199C68.9926 238.358 68.7913 238.416 68.6315 238.327C68.5644 238.288 68.5165 238.233 68.4878 238.172Z" fill="#00227B"/>
<path d="M105.624 210.445C98.3297 213.386 87.0406 212.771 79.3449 211.843C74.7292 211.287 71.4884 207.044 72.1689 202.463C72.7898 198.282 76.4843 195.242 80.722 195.44C87.9203 195.776 98.7184 195.933 105.557 194.422" fill="white"/>
<g opacity="0.35">
<g opacity="0.35">
<g opacity="0.35">
<g opacity="0.35">
<path opacity="0.35" d="M105.625 210.444C98.3291 213.389 87.0401 212.768 79.3444 211.846C74.7286 211.289 71.4889 207.044 72.1694 202.466C72.3047 201.531 72.5997 200.654 73.0182 199.853C74.2334 202.165 76.5349 203.868 79.3444 204.208C87.0262 205.136 98.2961 205.751 105.594 202.824L105.625 210.444Z" fill="#00227B"/>
</g>
</g>
</g>
</g>
<path d="M91.1215 214.539C86.9009 214.539 82.7048 214.192 79.1115 213.76C76.3595 213.428 73.9175 212.036 72.2348 209.84C70.5489 207.64 69.8449 204.92 70.2517 202.182C70.6223 199.686 71.9025 197.427 73.8557 195.822C75.811 194.215 78.2818 193.395 80.8123 193.514C91.4165 194.009 100.055 193.663 105.136 192.54C106.156 192.316 108.691 192.307 110.187 197.099C111.707 201.966 111.539 210.144 106.351 212.235C102.073 213.959 96.5775 214.539 91.1215 214.539ZM80.3288 197.361C77.2041 197.361 74.5479 199.627 74.0857 202.745C73.8333 204.444 74.27 206.133 75.3158 207.498C76.3584 208.859 77.8718 209.721 79.578 209.927C90.5826 211.253 99.5755 210.802 104.897 208.656C106.478 208.019 106.931 205.468 107.054 204.401C107.48 200.667 106.339 197.217 105.625 196.383C98.6894 197.835 88.2386 197.723 80.6323 197.368C80.5301 197.363 80.4289 197.361 80.3288 197.361Z" fill="#00227B"/>
<path d="M161.418 210.445C168.713 213.386 180.002 212.771 187.697 211.843C192.313 211.287 195.554 207.044 194.873 202.463C194.252 198.282 190.558 195.242 186.32 195.44C179.122 195.776 168.324 195.933 161.486 194.422" fill="white"/>
<g opacity="0.35">
<g opacity="0.35">
<g opacity="0.35">
<g opacity="0.35">
<path opacity="0.35" d="M187.695 211.846C179.999 212.768 168.711 213.39 161.414 210.444L161.446 202.753C168.742 205.68 180.012 205.065 187.695 204.137C190.492 203.804 192.78 202.113 194.002 199.814C194.432 200.621 194.735 201.511 194.876 202.465C195.552 207.044 192.312 211.289 187.695 211.846Z" fill="#00227B"/>
</g>
</g>
</g>
</g>
<path d="M175.921 214.539C170.465 214.539 164.97 213.959 160.691 212.234C155.503 210.143 155.335 201.965 156.855 197.098C158.35 192.307 160.886 192.315 161.906 192.539C166.988 193.663 175.627 194.009 186.23 193.513C188.762 193.396 191.231 194.215 193.186 195.821C195.14 197.426 196.42 199.685 196.79 202.181C197.197 204.92 196.492 207.639 194.807 209.839C193.125 212.035 190.683 213.427 187.931 213.759C184.337 214.192 180.14 214.539 175.921 214.539ZM161.418 196.383C160.704 197.217 159.563 200.667 159.989 204.401C160.111 205.468 160.564 208.019 162.146 208.657C167.468 210.802 176.461 211.254 187.465 209.927C189.17 209.722 190.685 208.859 191.727 207.498C192.773 206.133 193.21 204.445 192.957 202.745C192.48 199.528 189.667 197.217 186.412 197.368C178.804 197.723 168.354 197.834 161.418 196.383Z" fill="#00227B"/>
<path d="M164.238 189.128V214.805C164.238 219.568 160.323 223.468 155.54 223.468H108.063C103.287 223.468 99.3716 219.568 99.3716 214.805V189.128C99.3716 184.364 103.287 180.471 108.063 180.471H155.54C158.356 180.471 160.869 181.823 162.463 183.903C163.575 185.356 164.238 187.169 164.238 189.128Z" fill="white"/>
<g opacity="0.35">
<g opacity="0.35">
<g opacity="0.35">
<g opacity="0.35">
<path opacity="0.35" d="M164.236 189.128V214.805C164.236 219.568 160.323 223.466 155.54 223.466H108.064C103.281 223.466 99.3687 219.568 99.3687 214.805V205.201C106.499 212.441 120.522 216.987 133.383 217.054C137.515 217.077 140.848 213.821 141.143 209.715C141.147 209.674 141.15 209.632 141.153 209.592C141.469 205.99 144.448 203.073 148.069 202.813C152.193 202.517 155.674 205.551 156.082 209.493C162.307 201.839 160.484 188.535 162.464 183.903C163.577 185.358 164.236 187.168 164.236 189.128Z" fill="#00227B"/>
</g>
</g>
</g>
</g>
<path d="M155.541 225.396H108.063C102.202 225.396 97.4326 220.646 97.4326 214.808V189.128C97.4326 183.29 102.202 178.54 108.063 178.54H155.541C161.403 178.54 166.172 183.29 166.172 189.128V214.808C166.172 220.646 161.403 225.396 155.541 225.396ZM108.063 182.399C104.338 182.399 101.307 185.418 101.307 189.128V214.808C101.307 218.518 104.338 221.537 108.063 221.537H155.541C159.267 221.537 162.298 218.518 162.298 214.808V189.128C162.298 185.418 159.267 182.399 155.541 182.399H108.063Z" fill="#00227B"/>
<path d="M148.622 209.435C152.763 209.435 156.119 206.092 156.119 201.967C156.119 197.843 152.763 194.5 148.622 194.5C144.481 194.5 141.124 197.843 141.124 201.967C141.124 206.092 144.481 209.435 148.622 209.435Z" fill="#22A7F0"/>
<g opacity="0.7">
<g opacity="0.7">
<g opacity="0.7">
<g opacity="0.7">
<path opacity="0.7" d="M156.119 201.967C156.119 202.479 156.07 202.975 155.973 203.46C155.281 200.045 152.252 197.476 148.624 197.476C144.99 197.476 141.961 200.045 141.269 203.46C141.172 202.975 141.123 202.48 141.123 201.967C141.123 197.841 144.481 194.502 148.624 194.502C152.76 194.502 156.119 197.841 156.119 201.967Z" fill="white"/>
</g>
</g>
</g>
</g>
<g opacity="0.35">
<g opacity="0.35">
<g opacity="0.35">
<g opacity="0.35">
<path opacity="0.35" d="M156.117 201.966C156.117 206.09 152.762 209.432 148.622 209.432C144.482 209.432 141.126 206.09 141.126 201.966C141.126 201.013 141.306 200.103 141.641 199.265C142.721 202.05 145.441 204.022 148.623 204.022C151.805 204.022 154.524 202.05 155.605 199.265C155.937 200.103 156.117 201.012 156.117 201.966Z" fill="#00227B"/>
</g>
</g>
</g>
</g>
<path d="M148.622 210.882C143.687 210.882 139.672 206.883 139.672 201.967C139.672 197.052 143.687 193.053 148.622 193.053C153.557 193.053 157.572 197.052 157.572 201.967C157.572 206.883 153.557 210.882 148.622 210.882ZM148.622 195.948C145.29 195.948 142.578 198.648 142.578 201.967C142.578 205.286 145.29 207.987 148.622 207.987C151.955 207.987 154.666 205.286 154.666 201.967C154.666 198.648 151.955 195.948 148.622 195.948Z" fill="#00227B"/>
<path d="M127.377 224.914C126.574 224.914 125.924 224.265 125.924 223.467V205.879L116.43 198.76V180.469C116.43 179.669 117.08 179.022 117.882 179.022C118.684 179.022 119.335 179.67 119.335 180.469V197.315L128.83 204.435V223.467C128.83 224.265 128.179 224.914 127.377 224.914Z" fill="#00227B"/>
<path d="M132.734 237.291C141.132 237.291 149.208 234.188 155.516 228.664C164.253 221.014 178.962 211.891 195.197 217.743C201.712 220.089 206.151 224.395 209.18 229.159C216.98 211.158 233.342 210.079 240.425 220.281C240.425 220.281 228.52 276.849 224.64 278.108C219.082 279.911 205.727 278.015 205.727 278.015C205.727 278.015 159.265 271.75 132.734 271.75C106.202 271.75 59.7403 278.015 59.7403 278.015C59.7403 278.015 46.3852 279.91 40.8269 278.108C36.9471 276.849 25.0425 220.281 25.0425 220.281C32.1237 210.078 48.4875 211.158 56.2876 229.159C59.3154 224.394 63.7554 220.089 70.27 217.743C86.5049 211.891 101.214 221.014 109.951 228.664C116.259 234.187 124.335 237.291 132.734 237.291Z" fill="white"/>
<g opacity="0.35">
<path d="M240.426 220.279C240.426 220.279 228.521 276.849 224.641 278.108C219.085 279.912 205.726 278.017 205.726 278.017C205.726 278.017 159.267 271.75 132.733 271.75C106.205 271.75 59.74 278.017 59.74 278.017C59.74 278.017 46.3859 279.912 40.8309 278.108C36.9511 276.849 25.0454 220.279 25.0454 220.279C26.2127 218.6 27.627 217.225 29.216 216.184C33.0329 232.769 38.4474 254.426 40.8309 255.198C46.387 256.997 59.74 255.101 59.74 255.101C59.74 255.101 106.205 242.568 132.733 242.568C159.267 242.568 205.726 255.101 205.726 255.101C205.726 255.101 219.085 256.997 224.641 255.198C227.024 254.426 232.439 232.769 236.256 216.184C237.845 217.226 239.259 218.601 240.426 220.279Z" fill="#00227B"/>
</g>
<path d="M47.99 280.81C45.0761 280.81 42.2294 280.592 40.2272 279.943C38.8619 279.5 37.7138 277.993 35.5593 271.308C34.2983 267.395 32.7849 261.945 31.0628 255.112C27.9615 242.81 24.9391 229.011 23.7835 223.65C23.1786 220.844 24.102 217.94 26.1947 216.075C30.2119 212.493 35.5966 211.114 40.9663 212.292C44.3509 213.034 47.6439 214.794 50.4896 217.381C52.8464 219.525 54.8955 222.202 56.6037 225.369C60.0703 220.962 64.4347 217.794 69.6128 215.928C75.4799 213.813 81.6185 213.393 87.8595 214.679C92.898 215.719 98.0217 217.873 103.087 221.085C103.99 221.658 104.255 222.85 103.681 223.75C103.107 224.649 101.909 224.914 101.006 224.342C90.5805 217.731 80.462 216.122 70.9312 219.558C65.5562 221.495 61.1801 225.072 57.9265 230.192C57.542 230.797 56.8519 231.139 56.1373 231.084C55.4216 231.028 54.7954 230.582 54.5099 229.925C51.251 222.403 46.0112 217.35 40.1335 216.063C35.9949 215.156 31.8563 216.209 28.7795 218.953C27.7209 219.896 27.2586 221.387 27.5728 222.843C28.6634 227.903 31.5219 240.959 34.4996 252.887C36.1365 259.443 37.587 264.778 38.8118 268.74C40.5265 274.288 41.4221 275.916 41.7406 276.37C46.1177 277.592 55.9626 276.605 59.4686 276.108C59.4729 276.107 59.4771 276.107 59.4814 276.105C59.9468 276.043 106.378 269.823 132.734 269.823C159.092 269.823 205.522 276.043 205.988 276.105C205.992 276.107 205.997 276.107 206.001 276.108C209.508 276.605 219.352 277.592 223.729 276.37C224.043 275.924 224.914 274.344 226.571 269.022C227.767 265.184 229.182 260.012 230.78 253.649C233.628 242.305 236.357 229.961 237.731 223.613C238.181 221.533 237.399 219.401 235.737 218.181C232.567 215.853 228.637 215.158 224.674 216.225C218.995 217.754 214.125 222.619 210.96 229.926C210.676 230.582 210.049 231.029 209.333 231.085C208.616 231.141 207.928 230.798 207.543 230.193C204.29 225.074 199.915 221.496 194.54 219.559C184.925 216.093 174.72 217.759 164.205 224.508C163.305 225.085 162.107 224.828 161.527 223.931C160.947 223.036 161.206 221.842 162.106 221.264C167.202 217.992 172.359 215.79 177.433 214.718C183.735 213.385 189.935 213.794 195.858 215.929C201.036 217.795 205.401 220.964 208.868 225.371C212.507 218.633 217.677 214.11 223.663 212.499C228.717 211.138 233.956 212.076 238.038 215.074C240.924 217.193 242.29 220.864 241.52 224.426C240.065 231.151 237.181 244.18 234.214 255.877C232.533 262.51 231.054 267.794 229.822 271.582C227.72 278.046 226.591 279.508 225.242 279.945C219.35 281.857 206.137 280.025 205.464 279.929C204.735 279.832 158.755 273.683 132.736 273.683C106.712 273.683 60.736 279.832 60.0075 279.929C59.5602 279.99 53.6505 280.81 47.99 280.81Z" fill="#00227B"/>
<path d="M221.19 278.108H224.641C228.692 278.108 232.365 275.742 234.015 272.057C239.18 260.536 248.598 235.221 239.777 219.773C239.52 219.322 239.245 218.889 238.954 218.473C238.954 218.473 230.485 210.8 224.401 221.654C218.718 231.794 206.789 275.148 221.19 278.108Z" fill="#AFAFB2"/>
<g opacity="0.7">
<g opacity="0.7">
<g opacity="0.7">
<g opacity="0.7">
<path opacity="0.7" d="M221.285 228.881C221.437 228.638 221.59 228.409 221.738 228.195C229.218 217.342 239.633 225.014 239.633 225.014C239.99 225.43 240.33 225.864 240.643 226.315C241.687 227.802 242.522 229.379 243.175 231.031C242.753 226.973 241.7 223.138 239.777 219.774C239.52 219.323 239.245 218.89 238.955 218.474C238.955 218.474 230.486 210.801 224.401 221.655C223.478 223.298 222.395 225.808 221.285 228.881Z" fill="white"/>
</g>
</g>
</g>
</g>
<path d="M243.13 232.188C243.042 232.188 242.954 232.181 242.864 232.166L221.696 228.646C220.826 228.502 220.238 227.682 220.383 226.815C220.528 225.948 221.352 225.362 222.221 225.507L243.389 229.026C244.26 229.17 244.847 229.99 244.703 230.858C244.573 231.638 243.896 232.188 243.13 232.188Z" fill="#00227B"/>
<path d="M242.995 243.579C242.923 243.579 242.852 243.575 242.78 243.565L218.017 240.249C217.143 240.132 216.53 239.331 216.647 238.46C216.764 237.589 217.568 236.978 218.443 237.095L243.206 240.411C244.08 240.528 244.694 241.329 244.576 242.199C244.469 242.999 243.783 243.579 242.995 243.579Z" fill="#00227B"/>
<path d="M240.811 254.737C240.746 254.737 240.681 254.732 240.615 254.725L215.478 251.66C214.602 251.553 213.979 250.76 214.086 249.888C214.193 249.016 214.989 248.394 215.865 248.502L241.003 251.566C241.878 251.673 242.501 252.467 242.394 253.339C242.295 254.146 241.606 254.737 240.811 254.737Z" fill="#00227B"/>
<path d="M236.824 266.904C236.776 266.904 236.727 266.902 236.678 266.898L214.205 264.878C213.326 264.8 212.679 264.025 212.757 263.15C212.836 262.275 213.614 261.629 214.492 261.709L236.966 263.728C237.845 263.807 238.493 264.581 238.413 265.456C238.339 266.283 237.641 266.904 236.824 266.904Z" fill="#00227B"/>
<g opacity="0.35">
<g opacity="0.35">
<g opacity="0.35">
<g opacity="0.35">
<path opacity="0.35" d="M221.189 278.108H224.639C228.691 278.108 232.364 275.741 234.014 272.056C235.349 269.07 236.973 265.165 238.492 260.739C236.42 264.163 232.212 266.335 227.591 266.335H223.477C217.624 265.325 215.422 259.607 215.335 252.113C213.356 264.763 213.899 276.609 221.189 278.108Z" fill="#00227B"/>
</g>
</g>
</g>
</g>
<path d="M224.641 279.699H221.19C221.082 279.699 220.974 279.689 220.868 279.666C218.078 279.093 215.971 277.291 214.602 274.312C211.376 267.287 212.944 255.05 214.828 246.02C217.131 234.987 220.686 225.02 223.007 220.879C225.142 217.07 227.831 214.878 230.998 214.363C235.856 213.574 239.862 217.144 240.03 217.295C240.119 217.375 240.197 217.465 240.266 217.562C240.584 218.016 240.888 218.496 241.168 218.987C245.2 226.048 246.055 235.706 243.711 247.691C241.805 257.435 238.18 266.672 235.475 272.705C233.572 276.954 229.321 279.699 224.641 279.699ZM221.364 276.517H224.641C228.06 276.517 231.167 274.512 232.556 271.41C235.193 265.528 238.725 256.532 240.573 247.084C242.768 235.867 242.032 226.943 238.389 220.56C238.191 220.212 237.979 219.873 237.759 219.548C237.16 219.061 234.441 217.018 231.494 217.507C229.345 217.865 227.428 219.521 225.798 222.43C223.648 226.264 220.17 236.062 217.957 246.669C215.432 258.773 215.272 268.12 217.509 272.989C218.416 274.965 219.678 276.121 221.364 276.517Z" fill="#00227B"/>
<path d="M44.2798 278.108H40.8292C36.7779 278.108 33.1047 275.742 31.4551 272.057C26.2898 260.536 16.872 235.221 25.6934 219.773C25.9501 219.322 26.2248 218.889 26.5156 218.473C26.5156 218.473 34.9845 210.8 41.0688 221.654C46.7517 231.794 58.6797 275.148 44.2798 278.108Z" fill="#AFAFB2"/>
<g opacity="0.7">
<g opacity="0.7">
<g opacity="0.7">
<g opacity="0.7">
<path opacity="0.7" d="M44.183 228.881C44.0307 228.638 43.8785 228.409 43.7304 228.195C36.2498 217.342 25.8352 225.014 25.8352 225.014C25.4784 225.43 25.1387 225.864 24.8255 226.315C23.7808 227.802 22.9458 229.379 22.293 231.031C22.7147 226.973 23.768 223.138 25.6914 219.774C25.9481 219.323 26.2228 218.89 26.5136 218.474C26.5136 218.474 34.9825 210.801 41.0668 221.655C41.9891 223.298 43.0733 225.808 44.183 228.881Z" fill="white"/>
</g>
</g>
</g>
</g>
<path d="M22.3392 232.188C21.5724 232.188 20.8961 231.637 20.7651 230.859C20.6203 229.992 21.2071 229.172 22.0783 229.027L43.2463 225.508C44.1164 225.363 44.9396 225.948 45.0845 226.815C45.2293 227.682 44.6425 228.502 43.7713 228.647L22.6033 232.167C22.5149 232.182 22.4265 232.188 22.3392 232.188Z" fill="#00227B"/>
<path d="M22.4728 243.579C21.6847 243.579 20.9989 242.999 20.8913 242.201C20.7741 241.33 21.3876 240.529 22.262 240.412L47.0254 237.095C47.9009 236.977 48.7039 237.589 48.8221 238.46C48.9392 239.331 48.3258 240.132 47.4514 240.249L22.688 243.566C22.6155 243.575 22.5442 243.579 22.4728 243.579Z" fill="#00227B"/>
<path d="M24.6582 254.737C23.8627 254.737 23.1736 254.146 23.0746 253.338C22.967 252.467 23.59 251.673 24.4665 251.566L49.6038 248.501C50.4793 248.395 51.2759 249.015 51.3835 249.888C51.491 250.76 50.868 251.553 49.9915 251.66L24.8542 254.725C24.7882 254.733 24.7221 254.737 24.6582 254.737Z" fill="#00227B"/>
<path d="M28.6453 266.904C27.8274 266.904 27.1308 266.283 27.0563 265.456C26.9775 264.581 27.625 263.808 28.5036 263.728L50.9773 261.709C51.857 261.63 52.6324 262.275 52.7122 263.15C52.791 264.025 52.1435 264.799 51.2649 264.878L28.7912 266.898C28.7422 266.902 28.6932 266.904 28.6453 266.904Z" fill="#00227B"/>
<g opacity="0.35">
<g opacity="0.35">
<g opacity="0.35">
<g opacity="0.35">
<path opacity="0.35" d="M44.2787 278.108H40.8281C36.7768 278.108 33.1036 275.741 31.4539 272.056C30.1184 269.07 28.4943 265.165 26.9756 260.739C29.047 264.163 33.2559 266.335 37.877 266.335H41.99C47.8433 265.325 50.0457 259.607 50.133 252.113C52.1118 264.763 51.5676 276.609 44.2787 278.108Z" fill="#00227B"/>
</g>
</g>
</g>
</g>
<path d="M44.2789 279.699H40.8283C36.1497 279.699 31.8972 276.954 29.9951 272.705C27.2911 266.673 23.6658 257.436 21.7594 247.692C19.4154 235.707 20.2706 226.049 24.3027 218.987C24.5827 218.496 24.8863 218.017 25.2036 217.563C25.2718 217.465 25.3506 217.376 25.439 217.296C25.6073 217.144 29.6128 213.575 34.4713 214.364C37.6386 214.879 40.3278 217.071 42.462 220.88C44.7837 225.021 48.3387 234.987 50.6412 246.021C52.5252 255.051 54.0929 267.288 50.867 274.313C49.4985 277.292 47.3909 279.093 44.6016 279.667C44.4951 279.689 44.3865 279.699 44.2789 279.699ZM27.7096 219.549C27.4891 219.873 27.2783 220.212 27.0802 220.559C23.4357 226.943 22.6998 235.866 24.8948 247.084C26.7436 256.533 30.2741 265.528 32.9121 271.409C34.302 274.513 37.4086 276.518 40.8272 276.518H44.1042C45.7901 276.122 47.0532 274.966 47.9606 272.989C50.1961 268.12 50.0374 258.773 47.5123 246.668C45.2992 236.062 41.8209 226.264 39.6717 222.43C38.0412 219.521 36.1242 217.865 33.975 217.507C31.0335 217.019 28.3156 219.056 27.7096 219.549Z" fill="#00227B"/>
<path d="M83.2296 276.656C83.0028 276.656 82.7728 276.603 82.5576 276.491C81.8462 276.12 81.5714 275.245 81.9442 274.537C88.0115 262.99 88.101 250.005 82.2104 235.942C77.7672 225.336 71.4049 218.078 71.341 218.006C70.8106 217.407 70.8681 216.492 71.4699 215.963C72.0716 215.435 72.9896 215.491 73.52 216.09C73.7916 216.397 80.2231 223.72 84.858 234.746C87.593 241.251 89.1181 247.689 89.3928 253.881C89.7379 261.665 88.0978 269.066 84.5183 275.878C84.2584 276.374 83.7526 276.656 83.2296 276.656Z" fill="#00227B"/>
<path d="M182.828 276.656C182.304 276.656 181.8 276.374 181.54 275.879C177.96 269.067 176.32 261.666 176.665 253.882C176.94 247.69 178.465 241.252 181.2 234.747C185.835 223.721 192.266 216.397 192.538 216.091C193.069 215.492 193.987 215.435 194.589 215.964C195.191 216.492 195.248 217.407 194.717 218.006C194.653 218.078 188.291 225.336 183.848 235.942C177.957 250.006 178.046 262.99 184.114 274.537C184.485 275.245 184.211 276.119 183.5 276.49C183.285 276.603 183.055 276.656 182.828 276.656Z" fill="#00227B"/>
<g opacity="0.35">
<path d="M180.883 137.615C179.207 139.525 177.444 141.339 175.608 143.043C171.249 147.085 166.473 150.525 161.363 153.251C152.731 157.863 143.155 160.45 133.071 160.497C123.218 160.541 113.841 158.157 105.341 153.825C99.7756 150.983 94.588 147.312 89.8945 142.937C87.56 140.756 85.3459 138.406 83.2681 135.903C87.0318 134.746 90.771 133.404 94.195 132.077C98.4476 121.873 103.407 111.424 109.191 100.974H156.276C161.057 109.614 165.275 118.25 168.996 126.755C172.542 128.815 176.625 132.694 180.883 137.615Z" fill="#00227B"/>
</g>
<path d="M204.636 91.0256C203.816 91.1137 203.08 90.5228 202.991 89.7061L198.396 47.1127C198.308 46.2959 198.901 45.5629 199.721 45.4749C208.323 44.5542 216.045 50.7532 216.97 59.3209L218.538 73.8457C219.463 82.4134 213.238 90.1049 204.636 91.0256Z" fill="white"/>
<path d="M204.473 91.4012C204.05 91.4012 203.642 91.259 203.309 90.9907C202.921 90.6799 202.68 90.2375 202.626 89.7454L198.031 47.152C197.978 46.6598 198.12 46.1761 198.432 45.791C198.744 45.406 199.189 45.1641 199.683 45.1111C208.474 44.1702 216.393 50.5273 217.337 59.2827L218.904 73.8076C219.362 78.0485 218.134 82.213 215.446 85.5342C212.759 88.8554 208.933 90.9355 204.676 91.3916L204.636 91.0267L204.676 91.3916C204.608 91.398 204.54 91.4012 204.473 91.4012ZM201.407 45.7507C200.863 45.7507 200.314 45.7793 199.762 45.8387C199.462 45.8706 199.194 46.017 199.005 46.2493C198.817 46.4826 198.731 46.7743 198.763 47.0724L203.358 89.6658C203.39 89.9639 203.537 90.2312 203.771 90.4189C204.006 90.6067 204.299 90.6926 204.598 90.6608C208.661 90.2259 212.309 88.2412 214.874 85.0727C217.439 81.9043 218.61 77.9307 218.173 73.8839L216.607 59.3591C215.763 51.5573 209.116 45.7507 201.407 45.7507Z" fill="#00227B"/>
<g opacity="0.35">
<g opacity="0.35">
<g opacity="0.35">
<g opacity="0.35">
<path opacity="0.35" d="M217.803 67.0346L218.54 73.8467C219.463 82.4112 213.239 90.1048 204.636 91.0287C203.816 91.1178 203.08 90.5217 202.992 89.706L201.766 78.3835C202.052 78.8747 202.61 79.1759 203.211 79.1165L204.225 79.0051C211.022 78.2785 216.339 73.3195 217.803 67.0346Z" fill="#00227B"/>
</g>
</g>
</g>
</g>
<path d="M204.471 93.0761C203.666 93.0761 202.89 92.8046 202.254 92.2943C201.517 91.7035 201.056 90.8613 200.955 89.9246L196.36 47.3313C196.258 46.3946 196.53 45.4739 197.123 44.7398C197.716 44.0058 198.562 43.5465 199.502 43.4457C209.213 42.4062 217.964 49.4305 219.008 59.1035L220.575 73.6283C221.081 78.3137 219.724 82.9152 216.754 86.5854C213.785 90.2545 209.559 92.5532 204.854 93.056C204.727 93.0687 204.599 93.0761 204.471 93.0761ZM204.42 88.9965H204.419C204.419 88.9965 204.419 88.9965 204.42 88.9965ZM200.496 47.4564L204.97 88.9275C208.364 88.4268 211.4 86.6999 213.566 84.0237C215.848 81.2031 216.891 77.6666 216.502 74.0643L214.935 59.5394C214.153 52.2881 207.737 46.9727 200.496 47.4564Z" fill="#00227B"/>
<path d="M58.5665 60.5831C59.3866 60.495 60.1225 61.0859 60.2109 61.9027L64.8064 104.496C64.8948 105.313 64.3016 106.046 63.4815 106.134C54.8795 107.055 47.1571 100.856 46.2327 92.2879L44.6661 77.763C43.7395 69.1953 49.9645 61.5038 58.5665 60.5831Z" fill="white"/>
<path d="M61.7947 106.591C53.7155 106.592 46.7472 100.506 45.8654 92.3272L44.2988 77.8023C43.3541 69.0469 49.7367 61.1591 58.5272 60.2182L58.5666 60.5831L58.5272 60.2182C59.5464 60.109 60.4666 60.8473 60.5763 61.8635L65.1718 104.457C65.2815 105.473 64.5402 106.388 63.52 106.498C62.9417 106.56 62.3644 106.591 61.7947 106.591ZM58.7264 60.9406C58.6859 60.9406 58.6465 60.9427 58.605 60.947C50.2181 61.8444 44.1284 69.3704 45.0304 77.7238L46.597 92.2487C47.498 100.602 55.0532 106.667 63.4412 105.77C64.0578 105.704 64.5062 105.151 64.4401 104.536L59.8446 61.943C59.7829 61.3681 59.293 60.9406 58.7264 60.9406Z" fill="#00227B"/>
<g opacity="0.35">
<g opacity="0.35">
<g opacity="0.35">
<g opacity="0.35">
<path opacity="0.35" d="M63.5355 92.6794L64.8093 104.496C64.8987 105.313 64.3002 106.046 63.4812 106.134C58.9656 106.616 54.6885 105.138 51.5127 102.382C48.6446 99.8936 46.6744 96.357 46.2345 92.2901L45.5742 86.1696C48.5956 91.2781 54.4393 94.436 60.7463 93.7624L62.3065 93.5948C62.8752 93.5333 63.3257 93.1673 63.5355 92.6794Z" fill="#00227B"/>
</g>
</g>
</g>
</g>
<path d="M61.7936 108.265C52.8668 108.266 45.1689 101.542 44.1944 92.5053L42.6278 77.9805C41.5841 68.3075 48.6366 59.5924 58.3483 58.5528C60.2888 58.3449 62.0396 59.7494 62.2484 61.6831L66.8439 104.278C67.0526 106.212 65.6426 107.954 63.7 108.162C63.0599 108.232 62.423 108.265 61.7936 108.265ZM58.2333 62.6823C51.0552 63.7431 45.9197 70.2943 46.7014 77.5456L48.2681 92.0704C49.0508 99.3217 55.4664 104.636 62.7074 104.153L58.2333 62.6823Z" fill="#00227B"/>
<path d="M131.608 148.805C172.087 148.805 204.902 116.121 204.902 75.8038C204.902 35.4865 172.087 2.80296 131.608 2.80296C91.1296 2.80296 58.3149 35.4865 58.3149 75.8038C58.3149 116.121 91.1296 148.805 131.608 148.805Z" fill="white"/>
<path d="M131.538 149.173C122.551 149.173 113.773 147.568 105.403 144.391C96.5025 141.013 88.4394 136.009 81.4349 129.519C74.4303 123.028 68.8391 115.378 64.8144 106.781C60.6481 97.8791 58.3541 88.3472 57.9952 78.4493C57.6363 68.5515 59.2349 58.8795 62.7462 49.7019C66.1371 40.8372 71.1618 32.8063 77.6775 25.8297C84.1932 18.8532 91.8761 13.2832 100.509 9.2746C109.447 5.12495 119.017 2.84009 128.954 2.48262C138.892 2.12514 148.602 3.71733 157.817 7.21462C166.717 10.5921 174.78 15.5967 181.785 22.0863C188.789 28.5771 194.381 36.2272 198.405 44.8246C202.572 53.7264 204.866 63.2583 205.224 73.1562C205.583 83.054 203.985 92.726 200.473 101.904C197.083 110.768 192.058 118.799 185.541 125.776C179.024 132.752 171.344 138.321 162.712 142.33C153.774 146.479 144.204 148.764 134.266 149.122C133.354 149.156 132.444 149.173 131.538 149.173ZM131.643 3.16786C130.757 3.16786 129.873 3.18377 128.98 3.2156C88.7951 4.66034 57.2816 38.3975 58.7311 78.4217C59.4329 97.8101 67.6739 115.767 81.9354 128.981C95.5366 141.585 113.063 148.438 131.543 148.439C132.44 148.439 133.337 148.423 134.238 148.39C153.704 147.691 171.732 139.483 185 125.278C198.268 111.074 205.188 92.5732 204.486 73.1848C203.07 34.0495 170.649 3.16786 131.643 3.16786Z" fill="#00227B"/>
<g opacity="0.35">
<g opacity="0.35">
<g opacity="0.35">
<g opacity="0.35">
<path opacity="0.35" d="M203.788 63.0982C204.374 66.3802 204.733 69.7428 204.858 73.1722C206.311 113.463 174.703 147.303 134.251 148.759C93.7992 150.207 59.8234 118.725 58.3612 78.4356C58.3186 77.2773 58.3037 76.1168 58.3175 74.9723C64.5414 110.308 96.1262 136.551 133.138 135.222C172.427 133.808 203.369 101.849 203.788 63.0982Z" fill="#00227B"/>
</g>
</g>
</g>
</g>
<path d="M131.538 150.847C122.345 150.847 113.366 149.205 104.805 145.955C95.7023 142.501 87.4539 137.382 80.2907 130.744C73.1274 124.106 67.4084 116.281 63.2921 107.487C59.03 98.3819 56.6838 88.6315 56.3174 78.5087C55.9511 68.386 57.5858 58.4924 61.1781 49.1047C64.6468 40.0385 69.7855 31.823 76.4503 24.6884C83.115 17.5538 90.9694 11.8565 99.7994 7.75778C108.941 3.51265 118.731 1.17582 128.894 0.810924C139.059 0.446026 148.991 2.07428 158.416 5.65219C167.519 9.10705 175.767 14.2252 182.93 20.8633C190.094 27.5015 195.813 35.3267 199.929 44.1203C204.191 53.2258 206.537 62.9762 206.904 73.0989C207.27 83.2217 205.635 93.1153 202.043 102.503C198.574 111.569 193.436 119.785 186.771 126.919C180.106 134.054 172.249 139.75 163.421 143.85C154.279 148.095 144.489 150.432 134.326 150.797C133.395 150.83 132.464 150.847 131.538 150.847ZM131.644 4.84284C130.778 4.84284 129.914 4.85875 129.042 4.88951C89.783 6.30031 58.9959 39.2599 60.4124 78.3624C61.0982 97.3042 69.1497 114.846 83.082 127.757C96.3701 140.07 113.492 146.766 131.547 146.766C132.423 146.766 133.3 146.75 134.18 146.718C153.198 146.035 170.81 138.016 183.773 124.139C196.736 110.262 203.497 92.1882 202.81 73.2464C201.424 35.0116 169.75 4.84284 131.644 4.84284Z" fill="#00227B"/>
<path d="M204.69 75.0539C205.424 89.3199 201.455 102.803 194.067 114.167C188.528 122.687 164.76 138.316 134.512 140.13C106.465 141.812 80.1691 128.213 73.7855 120.302C65.2697 109.749 59.9394 96.7409 59.2056 82.4749C57.2641 44.7217 89.0257 27.4092 129.203 25.3599C169.378 23.3105 202.749 37.3007 204.69 75.0539Z" fill="#3949AB"/>
<path d="M129.644 141.677C115.698 141.677 103.568 138.215 95.5168 135.122C85.3215 131.206 76.3595 125.733 72.6863 121.181C63.6711 110.009 58.5228 96.6486 57.7976 82.546C57.3162 73.188 58.8658 64.6967 62.4005 57.3075C65.7286 50.3533 70.8332 44.3282 77.5747 39.3978C89.8904 30.3899 107.717 25.0512 129.128 23.9597C150.54 22.8682 168.821 26.3644 181.996 34.0718C189.207 38.2904 194.904 43.7649 198.928 50.3448C203.203 57.3351 205.615 65.6249 206.095 74.9828C206.82 89.0855 203.068 102.899 195.247 114.93C191.998 119.928 183.926 126.055 174.184 130.917C165.627 135.189 151.812 140.498 134.595 141.53C132.923 141.63 131.27 141.677 129.644 141.677ZM136.689 26.5681C134.264 26.5681 131.793 26.6317 129.273 26.7601C108.413 27.824 91.113 32.9761 79.2414 41.6583C65.9874 51.3525 59.7188 65.0616 60.6102 82.4028C61.3046 95.9125 66.2398 108.715 74.8813 119.424C77.4522 122.611 84.6644 127.948 96.5307 132.506C105.261 135.859 118.92 139.661 134.427 138.731C151.167 137.726 164.603 132.564 172.924 128.41C184.076 122.843 190.647 116.847 192.886 113.405C200.383 101.873 203.98 88.6357 203.286 75.126C202.394 57.7849 194.752 44.7854 180.572 36.4903C169.406 29.9582 154.341 26.5681 136.689 26.5681Z" fill="#00227B"/>
<g opacity="0.5">
<g opacity="0.5">
<g opacity="0.5">
<g opacity="0.5">
<path d="M190.098 72.3251C191.013 65.2487 187.581 58.977 182.433 58.3168C177.285 57.6566 172.37 62.8579 171.455 69.9343C170.54 77.0107 173.972 83.2825 179.12 83.9427C184.269 84.6029 189.184 79.4015 190.098 72.3251Z" fill="white"/>
</g>
</g>
</g>
</g>
<g opacity="0.5">
<g opacity="0.5">
<g opacity="0.5">
<g opacity="0.5">
<path d="M175.53 98.628C176.397 95.4691 174.893 92.3078 172.172 91.567C169.45 90.8262 166.541 92.7865 165.674 95.9454C164.808 99.1043 166.311 102.266 169.033 103.006C171.755 103.747 174.664 101.787 175.53 98.628Z" fill="white"/>
</g>
</g>
</g>
</g>
<g opacity="0.35">
<path d="M188.732 40.5552C198.059 48.5533 203.908 59.8895 204.69 75.0519C205.423 89.3211 201.452 102.803 194.069 114.167C188.528 122.687 164.758 138.315 134.51 140.133C123.83 140.777 113.407 139.201 104.235 136.563C141.369 133.54 170.315 114.369 177.184 103.801C186.562 89.3784 191.599 72.2642 190.665 54.1615C190.42 49.3223 189.756 44.7918 188.732 40.5552Z" fill="#00227B"/>
</g>
<path d="M63.0277 51.9656C62.6145 51.9656 62.1992 51.8372 61.8435 51.571C61.0064 50.943 60.8136 49.7794 61.3834 48.9212C64.425 43.9442 68.3091 39.3957 72.9269 35.403C77.4234 31.5164 82.6526 28.1231 88.4685 25.3174C94.1631 22.5711 100.457 20.3711 107.175 18.7779C113.833 17.1995 120.939 16.2088 128.301 15.8333C135.541 15.4641 142.635 15.7134 149.386 16.5726C156.198 17.4403 162.676 18.9328 168.637 21.0065C174.736 23.1291 180.317 25.8701 185.224 29.1531C190.269 32.5284 194.632 36.4977 198.196 40.9518C198.818 41.6381 198.882 42.6893 198.299 43.4531C197.641 44.3165 196.404 44.4841 195.538 43.8286L195.331 43.6758L195.175 43.4785C181.981 26.9138 157.679 18.2666 128.502 19.7548C99.1633 21.2516 75.9164 32.644 64.7211 51.0109L64.67 51.0947L64.6029 51.1827C64.2173 51.6951 63.6263 51.9656 63.0277 51.9656Z" fill="#00227B"/>
<g opacity="0.5">
<g opacity="0.5">
<g opacity="0.5">
<g opacity="0.5">
<path d="M76.6964 104.101C76.6964 104.101 63.042 67.4558 82.4315 51.586C101.821 35.7161 130.818 34.2979 130.235 36.1839C130.235 36.1839 98.5354 45.5609 87.2751 71.475C78.5921 91.4585 76.6964 104.101 76.6964 104.101Z" fill="white"/>
</g>
</g>
</g>
</g>
<path d="M198.034 282.308H68.044C63.8351 282.308 60.4229 278.91 60.4229 274.718C60.4229 272.302 62.3889 270.344 64.8139 270.344H201.264C203.689 270.344 205.655 272.302 205.655 274.718C205.655 278.911 202.243 282.308 198.034 282.308Z" fill="#E6E9FA"/>
<g opacity="0.3">
<g opacity="0.3">
<g opacity="0.3">
<g opacity="0.3">
<path opacity="0.3" d="M205.653 274.719C205.653 275.548 205.518 276.345 205.271 277.093C204.588 275.563 203.052 274.502 201.265 274.502H64.8149C63.604 274.502 62.5049 274.989 61.7104 275.786C61.3324 276.162 61.0225 276.602 60.8052 277.094C60.5581 276.346 60.4229 275.55 60.4229 274.72C60.4229 273.514 60.9117 272.419 61.7115 271.628C62.506 270.832 63.6051 270.344 64.816 270.344H201.265C203.691 270.343 205.653 272.301 205.653 274.719Z" fill="white"/>
</g>
</g>
</g>
</g>
<g opacity="0.35">
<g opacity="0.35">
<g opacity="0.35">
<g opacity="0.35">
<path opacity="0.35" d="M205.653 274.719C205.653 276.813 204.801 278.714 203.419 280.083C202.043 281.458 200.135 282.307 198.034 282.307H68.0457C63.8368 282.307 60.4214 278.911 60.4214 274.719C60.4214 273.913 60.6397 273.155 61.0263 272.504C62.1786 275.221 64.8912 277.131 68.0447 277.131H198.033C200.135 277.131 202.043 276.282 203.418 274.907C204.106 274.221 204.663 273.407 205.046 272.504C205.435 273.155 205.653 273.913 205.653 274.719Z" fill="#00227B"/>
</g>
</g>
</g>
</g>
<path d="M198.035 284.239H68.0447C62.774 284.239 58.4863 279.969 58.4863 274.719C58.4863 271.244 61.3256 268.416 64.8146 268.416H201.265C204.754 268.416 207.593 271.244 207.593 274.719C207.593 279.968 203.305 284.239 198.035 284.239ZM64.8135 272.275C63.461 272.275 62.3598 273.371 62.3598 274.719C62.3598 277.841 64.9094 280.38 68.0437 280.38H198.035C201.169 280.38 203.719 277.841 203.719 274.719C203.719 273.372 202.619 272.275 201.265 272.275H64.8135Z" fill="#00227B"/>
<path d="M213.243 184.885L200.529 270.342H65.5518L65.0917 267.25L52.8314 184.885C52.4299 182.179 54.5365 179.752 57.2778 179.752H208.796C211.543 179.752 213.645 182.179 213.243 184.885Z" fill="#FF0075"/>
<path d="M213.243 184.885L200.529 270.342H65.5518L65.0917 267.25L52.8314 184.885C52.4299 182.179 54.5365 179.752 57.2778 179.752H208.796C211.543 179.752 213.645 182.179 213.243 184.885Z" fill="#E6E9FA"/>
<g opacity="0.5">
<g opacity="0.5">
<g opacity="0.5">
<g opacity="0.5">
<path opacity="0.5" d="M57.6244 190.19C57.2228 187.484 59.3294 185.057 62.0707 185.057H213.218L213.244 184.886C213.645 182.18 211.544 179.753 208.797 179.753H57.2793C54.538 179.753 52.4314 182.18 52.8329 184.886L65.0922 267.251L65.5522 270.343H69.5556L57.6244 190.19Z" fill="white"/>
</g>
</g>
</g>
</g>
<g opacity="0.35">
<g opacity="0.35">
<g opacity="0.35">
<g opacity="0.35">
<path opacity="0.35" d="M204.537 179.752H193.897C197.931 194.473 195.706 227.715 169.679 245.088C137.007 266.897 78.125 266.758 65.624 267.25L66.0841 270.342H196.269L208.983 184.885C209.385 182.179 207.283 179.752 204.537 179.752Z" fill="#00227B"/>
</g>
</g>
</g>
</g>
<path d="M202.198 272.275H63.8801L50.918 185.167C50.6432 183.323 51.1874 181.456 52.41 180.044C53.6327 178.632 55.408 177.823 57.2792 177.823H208.799C210.672 177.823 212.446 178.632 213.669 180.044C214.891 181.456 215.435 183.323 215.161 185.167L202.198 272.275ZM67.2232 268.415H198.855L211.328 184.601C211.438 183.857 211.228 183.134 210.734 182.564C210.241 181.995 209.554 181.682 208.799 181.682H57.2792C56.5241 181.682 55.8372 181.996 55.3441 182.564C54.851 183.134 54.6402 183.857 54.7509 184.601L67.2232 268.415Z" fill="#00227B"/>
<g opacity="0.3">
<g opacity="0.3">
<g opacity="0.3">
<g opacity="0.3">
<path opacity="0.3" d="M76.2958 250.377C71.1753 239.135 67.4467 219.945 68.287 208.651C69.1272 197.358 75.7036 200.813 77.7421 215.28C83.1661 253.781 78.5813 255.396 76.2958 250.377Z" fill="white"/>
</g>
</g>
</g>
</g>
<path d="M212.573 189.394C212.573 189.394 202.113 184.45 192.289 188.885C182.882 193.132 176.227 223.37 188.415 231.03C195.937 235.758 201.057 231.581 205.313 232.808C211.625 234.626 224.576 203.492 212.573 189.394Z" fill="white"/>
<g opacity="0.35">
<path d="M217.293 209.072C216.053 221.746 209.335 233.966 205.315 232.808C201.057 231.583 195.938 235.76 188.416 231.032C182.593 227.37 181.072 218.562 182.099 209.887C182.791 214.948 184.753 219.284 188.416 221.586C195.938 226.308 200.946 224.114 205.315 223.362C210.716 222.43 215.118 216.555 217.293 209.072Z" fill="#00227B"/>
</g>
<path d="M196.128 235.272C193.59 235.272 190.652 234.719 187.38 232.662C184.45 230.821 182.334 227.841 181.091 223.806C180.047 220.42 179.657 216.294 179.962 211.874C180.323 206.639 181.616 201.268 183.6 196.752C185.117 193.301 187.716 188.83 191.487 187.127C202.009 182.377 212.942 187.433 213.402 187.65L213.779 187.829L214.048 188.146C219.542 194.597 219.859 203.511 219.157 209.851C218.367 216.995 215.836 224.573 212.55 229.628C209.259 234.691 206.504 235.16 204.772 234.662C203.649 234.338 202.229 234.564 200.585 234.826C199.285 235.034 197.792 235.272 196.128 235.272ZM201.243 188.963C198.298 188.963 195.569 189.524 193.089 190.644C191.05 191.565 188.885 194.355 187.152 198.3C185.367 202.361 184.156 207.405 183.829 212.14C183.252 220.501 185.3 226.792 189.448 229.399C193.63 232.028 196.856 231.513 199.974 231.016C201.99 230.695 203.895 230.391 205.851 230.954C206.076 230.994 207.688 230.374 209.962 226.45C215.265 217.302 218.628 200.023 211.373 190.978C210.551 190.637 208.435 189.837 205.666 189.357C204.144 189.094 202.668 188.963 201.243 188.963Z" fill="#00227B"/>
</svg>
