<svg width="2238" height="1634" viewBox="0 0 2238 1634" fill="none" xmlns="http://www.w3.org/2000/svg">
<g opacity="0.5">
<path opacity="0.5" d="M112.73 1471.11C857.329 1424.43 540.834 984.193 645.874 839.617C675.215 799.23 733.064 812.754 764.283 845.831C806.231 890.272 780.064 978.733 718.448 968.716C656.25 958.608 644.267 848.389 680.85 802.805C699.001 780.19 727.117 770.836 754.037 770.528C853.563 769.408 928.317 868.948 1011.32 918.838C1072.02 955.33 1139.5 980.777 1208.14 978.47C1284.77 975.9 1357.8 934.794 1401.48 862.244C1507.59 686.065 1494.38 340.685 1735.95 307.071C1949.36 277.387 2110.46 550.764 2199.99 733.248" stroke="url(#paint0_linear_115_11)" stroke-width="0.5658" stroke-miterlimit="10"/>
<path opacity="0.5" d="M2199.06 725.047C2143.86 616.53 2061.72 475.552 1959.81 390.564C1916.44 354.494 1870.11 328.727 1820.46 318.539C1793 312.908 1764.41 312.063 1734.72 317.054C1687.75 324.832 1650.31 344.363 1619.56 371.924C1563.78 421.893 1529.76 499.092 1501.87 579.101C1482.34 635.136 1466.23 691.855 1449.47 744.966C1436.87 784.885 1422.81 823.067 1404.16 856.065C1386.33 887.703 1362.51 913.904 1335.01 933.561C1299.64 958.894 1258.34 973.445 1215.69 975.843C1147.61 979.841 1079.86 955.844 1018.77 919.215C933.912 868.4 858.836 775.496 763.148 779.345C756.86 779.597 750.542 780.408 744.354 781.778C725.289 785.993 707.138 795.37 694.381 811.657C660.228 855.128 672.392 958.791 729.98 967.152C739.573 968.545 748.191 967.46 755.725 964.365C794.358 948.763 804.995 883.568 769.808 848.561C738.528 817.437 681.664 805.307 652.303 845.831C641.374 860.907 634.895 879.148 631.228 899.775C599.848 1076.7 761.762 1426.18 113.594 1452.35" stroke="url(#paint1_linear_115_11)" stroke-width="0.5658" stroke-miterlimit="10"/>
<path opacity="0.5" d="M2198.13 716.823C2141.66 609.734 2057.28 470.686 1955.15 390.483C1911.6 356.481 1866.08 333.524 1817.53 325.472C1790.68 321.04 1762.67 321.291 1733.51 326.991C1687.45 335.991 1650.43 356.024 1619.71 383.745C1564.18 433.772 1528.65 510.08 1499.44 586.399C1478.99 639.852 1462.47 691.958 1447.74 741.871C1436.56 779.779 1424.18 817.002 1406.85 849.84C1390.29 881.363 1367.4 908.056 1340.58 928.249C1306.09 954.371 1265.44 969.733 1223.25 973.182C1155.69 978.699 1087.7 956.324 1026.21 919.569C939.487 867.829 864.07 781.561 772.259 788.151C766.242 788.585 760.245 789.602 754.429 791.121C736.579 795.781 719.714 805.032 707.911 820.497C676.189 861.866 688.535 958.939 741.512 965.575C750.542 966.706 758.608 965.564 765.589 962.434C801.861 946.729 810.661 884.184 775.313 851.279C743.983 822.108 688.083 811.371 658.701 852.033C647.802 867.098 641.213 885.258 637.356 905.76C604.318 1081.56 743.902 1423.05 114.437 1433.6" stroke="url(#paint2_linear_115_11)" stroke-width="0.5658" stroke-miterlimit="10"/>
<path opacity="0.5" d="M2197.18 708.6C2139.45 602.938 2052.83 465.821 1950.48 390.415C1906.76 358.492 1862.04 338.321 1814.6 332.427C1788.35 329.195 1760.92 330.509 1732.28 336.962C1687.15 347.127 1650.53 367.732 1619.84 395.601C1564.56 445.696 1527.54 521.09 1497 593.732C1475.62 644.604 1458.7 692.084 1446 738.798C1436.25 774.685 1425.54 810.96 1409.51 843.649C1394.25 875.07 1372.27 902.231 1346.15 922.973C1312.53 949.871 1272.54 966.112 1230.79 970.555C1163.78 977.694 1095.53 956.838 1033.66 919.946C945.072 867.292 869.263 787.649 781.37 796.969C775.624 797.574 769.949 798.796 764.494 800.464C747.86 805.581 732.28 814.684 721.432 829.338C692.141 868.594 704.657 959.065 753.033 964.011C761.511 964.879 769.015 963.679 775.453 960.516C809.375 944.708 816.346 884.813 780.827 854.009C749.447 826.791 694.511 817.448 665.12 858.235C654.261 873.288 647.561 891.369 643.503 911.756C608.808 1086.44 726.072 1419.93 115.301 1414.86" stroke="url(#paint3_linear_115_11)" stroke-width="0.5658" stroke-miterlimit="10"/>
<path opacity="0.5" d="M2196.24 700.387C2137.24 596.142 2048.55 460.658 1945.8 390.346C1901.98 360.365 1857.99 343.118 1811.66 339.383C1786.01 337.35 1759.16 339.726 1731.05 346.921C1686.83 358.252 1650.63 379.427 1619.96 407.445C1564.93 457.597 1526.4 532.089 1494.54 601.053C1472.23 649.344 1454.92 692.186 1444.24 735.714C1435.94 769.591 1426.8 804.861 1412.16 837.436C1398.11 868.697 1377.09 896.314 1351.7 917.673C1318.9 945.267 1279.61 962.468 1238.32 967.905C1171.85 976.654 1103.36 957.329 1041.08 920.311C950.637 866.732 874.406 793.702 790.46 805.786C784.986 806.574 779.622 807.99 774.549 809.818C759.12 815.38 744.867 824.381 734.942 838.189C708.172 875.413 720.739 959.167 764.544 962.445C772.46 963.039 779.411 961.794 785.297 958.596C816.868 942.697 822.022 885.452 786.322 856.738C754.911 831.485 700.93 823.513 671.508 864.448C660.68 879.49 653.87 897.491 649.621 917.753C613.268 1091.32 708.203 1416.8 116.135 1396.11" stroke="url(#paint4_linear_115_11)" stroke-width="0.5658" stroke-miterlimit="10"/>
<path opacity="0.5" d="M2195.3 692.164C2135.04 589.346 2044.14 455.713 1941.14 390.278C1897.16 362.341 1853.98 347.915 1808.72 346.328C1783.69 345.494 1757.41 348.92 1729.83 356.881C1686.54 369.365 1650.74 391.123 1620.11 419.289C1565.34 469.499 1525.3 543.088 1492.12 608.363C1468.88 654.084 1451.21 692.267 1442.53 732.631C1435.68 764.474 1428.16 798.808 1414.85 831.234C1402.08 862.381 1381.99 890.467 1357.3 912.385C1325.35 940.745 1286.73 958.848 1245.9 965.267C1179.95 975.649 1111.21 957.832 1048.55 920.677C956.242 866.184 879.549 799.767 799.601 814.604C794.388 815.575 789.356 817.185 784.644 819.173C770.411 825.18 757.473 834.066 748.493 847.053C724.184 882.197 737.062 955.981 776.086 960.893C783.399 961.818 789.838 959.922 795.182 956.689C824.392 940.688 827.757 886.115 791.847 859.48C760.426 836.179 707.369 829.601 677.937 870.661C667.149 885.692 660.228 903.613 655.778 923.749C617.768 1096.19 690.373 1413.68 117.009 1377.37" stroke="url(#paint5_linear_115_11)" stroke-width="0.5658" stroke-miterlimit="10"/>
<path opacity="0.5" d="M2194.36 683.94C2132.83 582.539 2039.71 450.778 1936.46 390.198C1892.33 364.305 1849.94 352.712 1805.79 353.272C1781.36 353.637 1755.68 358.115 1728.61 366.829C1686.23 380.467 1650.85 402.807 1620.24 431.122C1565.72 481.388 1524.17 554.076 1489.68 615.673C1465.52 658.812 1447.49 692.324 1440.79 729.535C1435.41 759.346 1429.5 792.743 1417.52 825.009C1406.01 856.041 1386.86 884.596 1362.86 907.073C1331.78 936.199 1293.81 955.193 1253.43 962.605C1188.02 974.61 1119.04 958.311 1055.98 921.031C961.806 865.613 884.591 805.832 808.692 823.398C803.74 824.541 799.029 826.357 794.699 828.504C781.651 834.968 770.039 843.718 762.003 855.882C740.155 888.936 753.063 955.17 787.598 959.305C794.348 960.116 800.234 958.014 805.025 954.747C831.886 938.643 833.473 886.731 797.341 862.198C765.921 840.851 713.787 835.665 684.336 876.863C673.578 891.883 666.556 909.723 661.905 929.734C622.238 1101.06 672.523 1410.55 117.842 1358.62" stroke="url(#paint6_linear_115_11)" stroke-width="0.5658" stroke-miterlimit="10"/>
<path opacity="0.5" d="M2193.42 675.717C2130.63 575.743 2035.29 445.844 1931.79 390.129C1887.5 366.281 1845.9 357.509 1802.86 360.228C1779.03 361.792 1753.93 367.32 1727.38 376.789C1685.92 391.58 1650.96 414.492 1620.38 442.966C1566.11 493.301 1523.06 565.086 1487.24 622.994C1462.15 663.552 1443.8 692.358 1439.05 726.463C1435.18 754.217 1430.83 786.701 1420.2 818.818C1409.95 849.737 1391.73 878.759 1368.44 901.797C1338.21 931.687 1300.9 951.584 1260.98 959.979C1196.1 973.627 1126.87 958.825 1063.43 921.408C967.402 865.065 889.614 811.931 817.803 832.227C813.112 833.552 808.712 835.563 804.774 837.858C792.891 844.78 782.625 853.392 775.534 864.733C756.157 895.698 768.974 954.245 799.129 957.751C805.317 958.471 810.651 956.141 814.9 952.84C839.409 936.633 839.228 887.394 802.856 864.939C771.445 845.556 720.216 841.753 690.745 883.088C680.027 898.096 672.885 915.857 668.043 935.742C626.718 1105.95 654.673 1407.44 118.696 1339.89" stroke="url(#paint7_linear_115_11)" stroke-width="0.5658" stroke-miterlimit="10"/>
<path opacity="0.5" d="M2192.48 667.504C2128.43 568.958 2030.84 440.922 1927.12 390.061C1882.65 368.257 1841.86 362.306 1799.92 367.172C1776.7 369.936 1752.19 376.515 1726.15 386.749C1685.62 402.682 1651.06 426.188 1620.51 454.81C1566.49 505.203 1521.94 576.086 1484.8 630.316C1458.79 668.304 1440.13 692.358 1437.31 723.379C1434.98 749.055 1432.18 780.647 1422.87 812.605C1413.9 843.421 1396.59 872.911 1374.01 896.497C1344.65 927.164 1308 947.963 1268.54 957.329C1204.18 972.611 1134.72 959.316 1070.87 921.762C972.977 864.505 894.556 818.042 826.914 841.034C822.474 842.541 818.395 844.757 814.84 847.201C804.102 854.591 795.212 863.066 789.054 873.574C772.149 902.448 784.725 959.248 810.651 956.175C816.276 955.513 821.057 954.245 824.754 950.91C846.913 934.6 844.994 888.022 808.36 867.657C776.98 850.217 726.635 847.807 697.153 889.279C686.465 904.275 679.223 921.956 674.18 941.715C631.198 1110.81 636.823 1404.3 119.55 1321.12" stroke="url(#paint8_linear_115_11)" stroke-width="0.5658" stroke-miterlimit="10"/>
<path opacity="0.5" d="M2191.55 659.281C2126.23 562.151 2026.41 435.999 1922.45 389.993C1877.81 370.233 1837.83 367.104 1796.98 374.128C1774.37 378.091 1750.43 385.709 1724.92 396.708C1685.31 413.784 1651.16 437.884 1620.64 466.655C1566.87 517.104 1520.82 587.085 1482.34 637.637C1455.41 673.044 1436.48 692.278 1435.57 720.295C1434.8 743.858 1433.51 774.594 1425.53 806.403C1417.83 837.105 1401.45 867.064 1379.57 891.209C1351.08 922.641 1315.09 944.342 1276.08 954.691C1212.26 971.629 1142.54 959.819 1078.32 922.139C978.562 863.957 899.438 824.232 836.024 849.851C831.825 851.542 828.079 853.951 824.915 856.556C815.312 864.425 807.798 872.74 802.585 882.437C788.16 909.232 800.435 959.191 822.182 954.622C827.205 953.571 831.474 952.372 834.628 949.002C854.427 932.589 850.79 888.662 813.875 870.399C782.545 854.899 733.074 853.894 703.562 895.503C692.914 910.489 685.561 928.089 680.318 947.735C635.678 1115.71 618.974 1401.2 120.404 1302.39" stroke="url(#paint9_linear_115_11)" stroke-width="0.5658" stroke-miterlimit="10"/>
<path opacity="0.5" d="M2190.6 651.057C2124.02 555.355 2021.95 431.076 1917.78 389.912C1872.97 372.209 1833.8 371.9 1794.05 381.072C1772.04 386.235 1748.7 394.892 1723.69 406.668C1685.01 424.874 1651.27 449.579 1620.77 478.499C1567.25 529.005 1519.69 598.083 1479.9 644.958C1452.05 677.784 1432.85 692.106 1433.83 717.223C1434.66 738.604 1434.85 768.563 1428.2 800.201C1421.77 830.8 1406.33 861.227 1385.14 885.92C1357.5 918.13 1322.17 940.733 1283.63 952.052C1220.32 970.635 1150.38 960.333 1085.75 922.504C984.136 863.397 904.249 830.491 845.125 858.668C841.167 860.553 837.742 863.168 834.969 865.898C826.481 874.27 820.384 882.403 816.095 891.277C804.162 915.982 817.351 963.188 833.694 953.046C838.234 952.623 841.87 950.487 844.482 947.072C861.93 930.556 856.586 889.278 819.38 873.128C788.12 859.559 739.492 859.971 709.97 901.705C699.363 916.679 691.889 934.188 686.455 953.719C640.158 1120.58 601.134 1398.07 121.248 1283.63" stroke="url(#paint10_linear_115_11)" stroke-width="0.5658" stroke-miterlimit="10"/>
<path opacity="0.5" d="M2189.67 642.833C2121.82 548.559 2017.5 426.165 1913.12 389.844C1868.14 374.196 1829.77 376.698 1791.13 388.016C1769.72 394.378 1746.96 404.075 1722.49 416.616C1684.73 435.953 1651.39 461.263 1620.93 490.332C1567.68 540.907 1518.6 609.071 1477.48 652.268C1448.7 682.524 1429.26 691.787 1432.11 714.127C1434.55 733.247 1436.22 762.498 1430.89 793.988C1425.74 824.483 1411.23 855.379 1390.73 880.621C1363.95 913.607 1329.28 937.124 1291.19 949.402C1228.42 969.653 1158.22 960.824 1093.21 922.869C989.731 862.849 909.041 836.842 854.256 867.474C850.529 869.553 847.435 872.374 845.064 875.241C837.681 884.15 833.001 892.065 829.646 900.118C820.223 922.721 833.483 963.645 845.245 951.481C849.223 950.853 852.307 948.602 854.366 945.153C869.464 928.535 862.432 889.884 824.914 875.858C793.735 864.197 745.941 866.035 716.399 907.919C705.822 922.881 698.248 940.31 692.613 959.716C644.658 1125.46 583.304 1394.95 122.122 1264.89" stroke="url(#paint11_linear_115_11)" stroke-width="0.5658" stroke-miterlimit="10"/>
<path opacity="0.5" d="M2188.72 634.621C2119.61 541.763 2013.04 421.265 1908.44 389.775C1863.28 376.184 1825.72 381.495 1788.18 394.972C1767.38 402.533 1745.21 413.27 1721.25 426.587C1684.42 447.055 1651.49 472.959 1621.05 502.187C1568.05 552.819 1517.46 620.093 1475.03 659.6C1445.33 687.275 1425.6 691.307 1430.36 711.066C1434.4 727.799 1437.55 756.479 1433.56 787.797C1429.68 818.19 1416.09 849.554 1396.3 875.344C1370.38 909.118 1336.36 933.537 1298.73 946.775C1236.48 968.693 1166.06 961.338 1100.65 923.246C995.306 862.301 913.742 843.341 863.356 876.304C859.861 878.588 857.098 881.626 855.13 884.607C848.841 894.098 845.597 901.74 843.166 908.992C836.275 929.494 849.595 964.125 856.767 949.939C860.182 949.105 862.713 946.741 864.23 943.246C876.967 926.525 868.278 890.489 830.419 878.599C799.33 868.834 752.37 872.123 722.808 914.143C712.271 929.094 704.586 946.444 698.75 965.724C649.138 1130.34 565.454 1391.84 122.976 1246.16" stroke="url(#paint12_linear_115_11)" stroke-width="0.5658" stroke-miterlimit="10"/>
<path opacity="0.5" d="M2187.79 626.398C2117.41 534.968 2008.58 416.365 1903.78 389.707C1858.44 378.171 1821.67 386.212 1785.25 401.928C1765.04 410.643 1743.46 422.453 1720.03 436.547C1684.12 458.134 1651.59 484.655 1621.19 514.032C1568.43 564.721 1516.35 631.092 1472.58 666.911C1441.95 692.004 1418.84 692.529 1428.61 707.971C1431.45 723.174 1438.89 750.426 1436.21 781.584C1433.61 811.874 1420.94 843.706 1401.85 870.045C1376.8 904.595 1343.43 929.928 1306.27 944.126C1244.54 967.711 1173.89 961.829 1108.08 923.612C1000.88 861.752 918.423 849.988 872.457 885.121C869.183 887.623 866.762 890.878 865.185 893.962C860.001 904.07 858.193 911.402 856.677 917.844C852.337 936.21 865.687 964.593 868.278 948.374C871.141 947.335 873.11 944.856 874.074 941.327C884.461 924.514 874.125 891.06 835.914 881.329C804.935 873.437 758.779 878.2 729.207 920.346C718.7 935.285 710.905 952.555 704.878 971.709C653.608 1135.21 547.604 1388.71 123.819 1227.41" stroke="url(#paint13_linear_115_11)" stroke-width="0.5658" stroke-miterlimit="10"/>
<path opacity="0.5" d="M2186.84 618.175C2115.2 528.172 2004.11 411.477 1899.11 389.627C1853.58 380.159 1817.62 390.998 1782.32 408.861C1762.71 418.775 1741.72 431.613 1718.8 446.484C1683.82 469.19 1651.7 496.328 1621.33 525.853C1568.82 576.6 1515.23 642.069 1470.15 674.209C1438.6 696.733 1414.91 692.575 1426.89 704.865C1431.01 718.011 1440.26 744.361 1438.89 775.348C1437.56 805.535 1425.83 837.847 1407.43 864.722C1383.25 900.061 1350.54 926.296 1313.82 941.453C1252.63 966.718 1181.72 962.297 1115.52 923.944C1006.46 861.159 923.114 856.796 881.558 893.893C878.504 896.623 876.445 900.095 875.25 903.259C871.191 914.03 870.81 920.974 870.197 926.639C868.439 942.812 881.799 964.993 879.8 946.753C882.1 945.508 883.506 942.915 883.938 939.351C891.974 922.436 879.991 891.552 841.418 884.013C810.56 877.983 765.207 884.23 735.605 926.513C725.138 941.43 717.233 958.631 711.005 977.66C658.078 1140.04 529.745 1385.54 124.653 1208.62" stroke="url(#paint14_linear_115_11)" stroke-width="0.5658" stroke-miterlimit="10"/>
<path opacity="0.5" d="M2185.91 609.951C2113 521.364 1999.64 406.6 1894.44 389.558C1848.73 382.157 1813.59 395.806 1779.38 415.817C1760.38 426.93 1739.98 440.796 1717.58 456.455C1683.51 480.269 1651.81 508.035 1621.46 537.709C1569.2 588.524 1514.11 653.079 1467.71 681.542C1435.23 701.484 1410.98 692.655 1425.16 701.804C1430.58 712.894 1441.61 738.353 1441.57 769.168C1441.53 799.265 1430.71 832.033 1413.01 859.457C1389.7 895.572 1357.64 922.733 1321.38 938.837C1260.72 965.792 1189.58 962.823 1122.99 924.343C1012.06 860.633 927.855 863.854 890.689 902.745C887.856 905.703 886.158 909.392 885.335 912.647C882.442 924.103 883.446 930.602 883.738 935.525C884.551 949.425 897.921 965.495 891.341 945.222C893.079 943.771 893.933 941.064 893.813 937.466C899.498 920.448 885.887 892.1 846.943 886.777C816.206 882.574 771.646 890.329 742.034 932.749C731.597 947.655 723.591 964.776 717.163 983.69C662.579 1144.95 511.915 1382.45 125.527 1189.91" stroke="url(#paint15_linear_115_11)" stroke-width="0.5658" stroke-miterlimit="10"/>
<path opacity="0.5" d="M2184.97 601.738C2110.81 514.58 1995.16 401.745 1889.77 389.49C1843.88 384.156 1809.55 400.603 1776.45 422.773C1758.05 435.097 1738.23 449.979 1716.35 466.415C1683.2 491.337 1651.91 519.731 1621.6 549.553C1569.59 600.425 1512.99 664.089 1465.27 688.863C1431.87 706.224 1407.04 692.712 1423.42 698.72C1430.14 707.754 1442.97 732.311 1444.24 762.955C1445.49 792.948 1435.6 826.185 1418.59 854.157C1396.15 891.06 1364.73 919.135 1328.93 936.187C1268.8 964.833 1197.4 963.314 1130.43 924.697C1017.65 860.073 932.646 871.061 899.799 911.539C897.198 914.749 895.872 918.644 895.41 921.979C893.732 934.131 896.053 940.139 897.268 944.365C900.583 955.867 914.033 965.941 902.873 943.657C904.048 942.001 904.35 939.18 903.687 935.548C907.012 918.427 891.783 892.591 852.468 889.507C821.861 887.108 778.085 896.406 748.453 938.963C738.056 953.857 729.93 970.898 723.31 989.686C667.069 1149.83 494.075 1379.34 126.391 1171.16" stroke="url(#paint16_linear_115_11)" stroke-width="0.5658" stroke-miterlimit="10"/>
<path opacity="0.5" d="M2184.03 593.515C2108.61 507.784 1990.69 396.879 1885.11 389.421C1839.04 386.166 1805.52 405.411 1773.52 429.717C1755.72 443.24 1736.48 459.139 1715.14 476.374C1682.9 502.393 1652.03 531.415 1621.74 561.397C1569.99 612.326 1511.88 675.088 1462.84 696.184C1428.51 710.963 1403.11 692.78 1421.69 695.636C1429.71 702.614 1444.34 726.268 1446.93 756.753C1449.46 786.643 1440.49 820.36 1424.17 848.869C1402.6 886.56 1371.84 915.56 1336.49 933.549C1276.9 963.896 1205.26 963.816 1137.88 925.062C1023.23 859.513 937.548 878.462 908.92 920.357C906.54 923.829 905.605 927.918 905.495 931.321C905.083 944.171 908.599 949.653 910.809 953.205C916.444 962.263 930.165 966.386 914.405 942.081C915.018 940.219 914.766 937.283 913.551 933.617C914.525 916.393 897.67 893.036 857.972 892.225C827.496 891.608 784.514 902.47 754.861 945.164C744.495 960.047 736.268 977.008 729.448 995.671C671.549 1154.69 476.235 1376.21 127.245 1152.41" stroke="url(#paint17_linear_115_11)" stroke-width="0.5658" stroke-miterlimit="10"/>
<path opacity="0.5" d="M2183.09 585.292C2106.39 500.977 1986.22 392.037 1880.42 389.342C1834.17 388.165 1801.47 410.209 1770.57 436.662C1753.38 451.384 1734.72 468.3 1713.9 486.323C1682.58 513.438 1652.12 543.1 1621.87 573.23C1570.37 624.216 1510.76 686.076 1460.39 703.494C1425.13 715.704 1399.16 692.838 1419.95 692.552C1429.26 697.475 1445.69 720.227 1449.59 750.54C1453.41 780.339 1445.36 814.524 1429.73 843.569C1409.03 882.049 1378.92 911.974 1344.03 930.899C1284.96 962.948 1213.07 964.319 1145.32 925.428C1028.81 858.954 942.571 886.012 918.021 929.175C915.891 932.921 915.319 937.181 915.55 940.676C916.434 954.2 921.064 959.236 924.319 962.058C932.114 968.808 946.257 966.855 925.916 940.516C925.976 938.438 925.163 935.399 923.405 931.699C922.029 914.372 903.546 893.459 863.477 894.967C833.131 896.109 790.932 908.547 761.26 951.378C750.934 966.249 742.596 983.13 735.575 1001.67C676.019 1159.57 458.375 1373.09 128.078 1133.66" stroke="url(#paint18_linear_115_11)" stroke-width="0.5658" stroke-miterlimit="10"/>
<path opacity="0.5" d="M2182.14 577.068C2104.19 494.181 1981.74 387.194 1875.75 389.273C1829.32 390.187 1797.43 415.006 1767.64 443.617C1751.05 459.539 1732.97 477.46 1712.67 496.294C1682.27 524.494 1652.23 554.807 1622 585.086C1570.75 636.129 1509.64 697.087 1457.95 710.827C1421.76 720.455 1395.22 692.918 1418.21 689.48C1428.81 692.346 1447.06 714.196 1452.26 744.349C1457.38 774.046 1450.24 808.699 1435.3 838.292C1415.49 877.56 1386.02 908.41 1351.58 928.272C1293.06 962.035 1220.92 964.833 1152.76 925.805C1034.39 858.417 947.764 893.664 927.131 937.992C925.253 942.024 925.062 946.444 925.625 950.03C927.845 964.193 933.53 968.899 937.849 970.909C947.794 975.535 962.379 967.311 937.448 938.951C936.945 936.667 935.579 933.515 933.269 929.78C929.532 912.35 909.422 893.847 868.981 897.696C838.766 900.575 797.361 914.623 767.668 957.592C757.372 972.451 748.925 989.252 741.712 1007.66C680.499 1164.46 440.525 1369.96 128.932 1114.91" stroke="url(#paint19_linear_115_11)" stroke-width="0.5658" stroke-miterlimit="10"/>
<path opacity="0.5" d="M2181.21 568.855C2101.99 487.396 1977.28 382.374 1871.08 389.204C1824.46 392.208 1793.45 419.883 1764.71 450.561C1748.76 467.728 1731.22 486.62 1711.45 506.242C1681.95 535.539 1652.34 566.491 1622.14 596.918C1571.14 648.03 1508.52 708.074 1455.5 718.136C1418.4 725.184 1391.17 680.479 1416.47 686.396C1428.14 689.125 1448.43 708.154 1454.93 738.136C1461.35 767.729 1455.12 802.862 1440.88 832.993C1421.93 873.06 1393.13 904.823 1359.13 925.622C1301.15 961.098 1228.76 965.324 1160.21 926.17C1039.98 857.857 953.138 901.34 936.242 946.809C934.635 951.127 934.806 955.684 935.69 959.385C939.256 974.153 946.016 978.619 951.37 979.772C963.544 982.388 978.481 967.791 948.969 937.409C947.904 934.919 945.986 931.653 943.133 927.884C937.046 910.351 915.289 894.235 874.496 900.449C844.392 905.04 803.79 920.722 774.077 963.828C763.821 978.676 755.263 995.397 747.85 1013.68C684.979 1169.36 422.686 1366.86 129.786 1096.19" stroke="url(#paint20_linear_115_11)" stroke-width="0.5658" stroke-miterlimit="10"/>
<path opacity="0.5" d="M2180.27 560.632C2099.78 480.589 1972.8 377.554 1866.41 389.136C1819.61 394.23 1789.41 424.68 1761.76 457.517C1746.42 475.883 1729.45 495.78 1710.21 516.213C1681.62 546.595 1652.43 578.198 1622.26 608.774C1571.52 659.943 1507.39 719.096 1453.05 725.469C1415.02 729.946 1386.57 689.571 1414.72 683.323C1427.72 680.445 1449.79 702.123 1457.59 731.945C1465.31 761.436 1459.99 797.049 1446.43 827.716C1428.36 868.571 1400.21 901.271 1366.67 922.995C1309.24 960.196 1236.58 965.838 1167.64 926.547C1045.54 857.309 958.632 909.015 945.333 955.627C944.017 960.241 944.519 964.924 945.745 968.728C950.667 984.067 958.572 987.779 964.88 988.613C979.285 990.509 990.374 973.216 960.481 935.833C958.552 933.412 956.382 929.757 952.987 925.954C944.549 908.318 921.135 894.555 880.001 903.167C849.997 909.449 810.209 926.776 780.486 970.018C770.26 984.855 761.591 1001.5 753.987 1019.66C689.459 1174.21 404.836 1363.72 130.64 1077.43" stroke="url(#paint21_linear_115_11)" stroke-width="0.5658" stroke-miterlimit="10"/>
<path opacity="0.5" d="M2179.33 552.409C2097.58 473.793 1968.35 372.746 1861.75 389.056C1814.77 396.252 1785.39 429.466 1758.84 464.462C1744.09 484.027 1727.7 504.929 1709 526.162C1681.29 557.617 1652.56 589.872 1622.4 620.607C1571.91 671.833 1506.27 730.084 1450.61 732.768C1411.66 734.664 1382.56 690.222 1412.98 680.217C1427.18 675.545 1451.16 696.047 1460.27 725.709C1469.29 755.097 1464.89 791.19 1452.01 822.394C1434.82 864.037 1407.32 897.674 1374.21 920.323C1317.34 959.259 1244.41 966.306 1175.08 926.89C1051.13 856.738 964.288 916.576 954.444 964.422C953.439 969.322 954.263 974.142 955.82 978.059C962.098 993.947 971.088 998.036 978.411 997.442C995.276 996.071 1007.51 972.862 972.012 934.246C969.581 931.607 966.799 927.85 962.851 924.012C952.063 906.286 926.971 894.841 885.505 905.874C855.602 913.835 816.637 932.83 786.894 976.209C776.709 991.034 767.93 1007.6 760.125 1025.64C693.939 1179.08 386.986 1360.59 131.494 1058.67" stroke="url(#paint22_linear_115_11)" stroke-width="0.5658" stroke-miterlimit="10"/>
<path opacity="0.5" d="M2178.39 544.185C2095.37 466.997 1963.88 367.937 1857.07 388.987C1809.92 398.285 1781.34 434.263 1755.9 471.406C1741.75 492.171 1725.92 514.077 1707.77 536.11C1680.96 568.65 1652.67 601.556 1622.54 632.44C1572.31 683.723 1505.17 741.071 1448.18 740.078C1408.3 739.392 1378.65 690.816 1411.26 677.133C1426.72 670.645 1452.54 690.005 1462.94 719.507C1473.25 748.781 1469.78 785.364 1457.58 817.105C1441.28 859.537 1414.43 894.11 1381.76 917.684C1325.44 958.345 1252.25 966.809 1182.52 927.256C1056.7 856.179 970.053 924.069 963.554 973.239C962.871 978.413 964.006 983.359 965.885 987.413C973.509 1003.83 983.634 1007.76 991.931 1006.3C1011.2 1002.92 1024.36 972.622 983.534 932.692C980.601 929.814 977.205 925.976 972.715 922.093C959.567 904.264 932.787 895.126 891.02 908.615C861.187 918.244 823.066 938.917 793.303 982.422C783.148 997.236 774.268 1013.72 766.262 1031.64C698.419 1183.96 369.146 1357.47 132.337 1039.93" stroke="url(#paint23_linear_115_11)" stroke-width="0.5658" stroke-miterlimit="10"/>
<path opacity="0.5" d="M2177.45 535.973C2093.18 460.201 1959.44 363.152 1852.41 388.919C1805.09 400.318 1777.31 439.071 1752.97 478.362C1739.44 500.326 1724.17 523.238 1706.56 546.081C1680.63 579.695 1652.78 613.263 1622.68 644.296C1572.7 695.647 1504.05 752.082 1445.75 747.41C1404.95 744.155 1374.78 691.341 1409.53 674.06C1426.28 665.734 1453.93 683.963 1465.62 713.305C1477.24 742.476 1474.68 779.539 1463.17 811.817C1447.75 855.048 1421.55 890.546 1389.33 915.046C1333.57 957.443 1260.1 967.311 1189.99 927.633C1062.31 855.642 975.93 931.425 972.685 982.057C972.334 987.493 973.76 992.576 975.98 996.756C984.95 1013.67 996.23 1017.45 1005.48 1015.15C1027.17 1009.74 1041.06 972.451 995.085 931.128C991.63 928.021 987.642 924.092 982.6 920.174C967.1 902.242 938.613 895.401 896.545 911.345C866.782 922.63 829.505 944.993 799.732 988.636C789.617 1003.44 780.616 1019.84 772.42 1037.63C702.919 1188.83 351.317 1354.35 133.211 1021.19" stroke="url(#paint24_linear_115_11)" stroke-width="0.5658" stroke-miterlimit="10"/>
<path opacity="0.5" d="M2176.51 527.749C2090.97 453.406 1954.99 358.355 1847.74 388.85C1800.25 402.351 1773.28 443.869 1750.03 485.318C1737.1 508.481 1722.39 532.398 1705.32 556.041C1680.28 590.728 1652.88 624.959 1622.81 656.14C1573.08 707.549 1502.93 763.081 1443.3 754.732C1401.57 748.895 1370.93 691.798 1407.78 670.988C1425.85 660.777 1455.29 677.921 1468.28 707.115C1481.21 736.171 1479.56 773.714 1468.72 806.529C1454.2 850.548 1428.64 886.994 1396.86 912.408C1341.67 956.552 1267.92 967.814 1197.41 927.998C1067.87 855.082 981.816 938.643 981.776 990.874C981.776 996.574 983.473 1001.79 986.025 1006.11C996.331 1023.53 1008.78 1027.15 1018.98 1024C1043.1 1016.55 1057.58 972.371 1006.59 929.563C1002.6 926.216 998.029 922.219 992.444 918.255C974.594 900.221 944.369 895.652 902.039 914.075C872.316 927.016 835.924 951.058 806.12 994.849C796.045 1009.64 786.935 1025.96 778.537 1043.63C707.379 1193.71 333.447 1351.23 134.045 1002.44" stroke="url(#paint25_linear_115_11)" stroke-width="0.5658" stroke-miterlimit="10"/>
<path opacity="0.5" d="M2175.57 519.525C2088.77 446.598 1950.55 353.569 1843.07 388.77C1795.4 404.384 1769.25 448.654 1747.1 492.251C1734.77 516.613 1720.62 541.523 1704.1 565.989C1679.94 601.761 1652.98 636.643 1622.94 667.973C1573.46 719.439 1501.8 774.08 1440.86 762.041C1398.21 753.624 1367.1 692.186 1406.04 667.893C1425.44 655.786 1456.67 671.844 1470.95 700.89C1485.19 729.832 1484.45 767.866 1474.3 801.218C1460.66 846.025 1435.77 883.408 1404.42 909.758C1349.79 955.638 1275.76 968.305 1204.86 928.363C1073.46 854.522 987.763 945.724 990.887 999.68C991.228 1005.62 993.207 1011 996.1 1015.45C1007.73 1033.36 1021.35 1036.83 1032.51 1032.84C1059.07 1023.35 1074.05 972.337 1018.12 927.987C1013.6 924.4 1008.45 920.323 1002.31 916.325C982.097 898.187 950.114 895.88 907.544 916.793C877.861 931.379 842.342 957.123 812.529 1001.04C802.484 1015.82 793.273 1032.06 784.675 1049.6C711.859 1198.57 315.597 1348.09 134.899 983.678" stroke="url(#paint26_linear_115_11)" stroke-width="0.5658" stroke-miterlimit="10"/>
<path opacity="0.5" d="M2174.63 511.313C2086.56 439.814 1946.11 348.794 1838.4 388.713C1790.56 406.44 1765.21 453.474 1744.17 499.218C1732.44 524.779 1718.84 550.695 1702.87 575.96C1679.59 612.806 1653.09 648.339 1623.08 679.828C1573.85 731.351 1500.69 785.09 1438.42 769.374C1394.84 758.386 1363.27 692.552 1404.31 664.82C1425.05 650.806 1458.05 665.802 1473.63 694.699C1489.16 723.516 1489.35 762.053 1479.87 795.941C1467.13 841.547 1442.89 879.867 1411.96 907.131C1357.92 954.759 1283.59 968.83 1212.3 928.74C1079.03 853.985 993.699 952.68 999.987 1008.51C1000.68 1014.69 1002.93 1020.23 1006.16 1024.82C1019.11 1043.21 1033.92 1046.53 1046.03 1041.71C1075.03 1030.15 1090.45 972.394 1029.64 926.444C1024.59 922.63 1018.85 918.461 1012.17 914.429C989.611 896.189 955.85 896.143 913.059 919.557C883.386 935.787 848.781 963.234 818.938 1007.29C808.933 1022.06 799.601 1038.22 790.812 1055.63C716.339 1203.48 297.757 1345 135.743 964.958" stroke="url(#paint27_linear_115_11)" stroke-width="0.5658" stroke-miterlimit="10"/>
<path opacity="0.5" d="M2173.7 503.09C2084.36 433.018 1941.69 344.02 1833.73 388.633C1785.73 408.473 1761.17 458.26 1741.23 506.162C1730.12 532.923 1717.06 559.844 1701.65 585.92C1679.22 623.84 1653.2 660.035 1623.21 691.673C1574.24 743.264 1499.57 796.089 1435.98 776.696C1391.48 763.127 1359.45 692.872 1402.58 661.748C1424.67 645.803 1459.43 659.749 1476.31 688.498C1493.15 717.2 1494.31 756.239 1485.46 790.653C1473.68 837.07 1450.02 876.315 1419.52 904.492C1366.06 953.868 1291.44 969.333 1219.76 929.106C1084.64 853.426 999.666 959.522 1009.12 1017.33C1010.16 1023.72 1012.67 1029.43 1016.25 1034.16C1030.5 1053.03 1046.52 1056.21 1059.57 1050.55C1091.01 1036.94 1106.82 972.451 1041.18 924.869C1035.59 920.814 1029.28 916.565 1022.05 912.499C997.135 894.156 961.576 896.372 918.583 922.276C888.921 940.151 855.22 969.287 825.367 1013.48C815.392 1028.22 805.96 1044.32 796.97 1061.62C720.839 1208.34 279.927 1341.87 136.617 946.204" stroke="url(#paint28_linear_115_11)" stroke-width="0.5658" stroke-miterlimit="10"/>
<path opacity="0.5" d="M2172.75 494.866C2082.15 426.211 1937.33 339.418 1829.05 388.565C1780.93 410.597 1757.13 463.057 1738.29 513.107C1727.78 541.067 1715.27 568.993 1700.42 595.868C1678.86 634.873 1653.3 671.719 1623.35 703.506C1574.63 755.154 1498.46 807.077 1433.54 784.006C1388.11 767.855 1355.63 693.146 1400.84 658.653C1424.28 640.767 1460.85 653.65 1478.98 682.284C1497.16 710.827 1499.19 750.392 1491.02 785.353C1480.11 832.548 1457.14 872.752 1427.07 901.843C1374.19 952.977 1299.28 969.824 1227.19 929.472C1090.2 852.867 1005.57 966.261 1018.22 1026.13C1019.62 1032.75 1022.4 1038.64 1026.31 1043.51C1041.87 1062.85 1059.09 1065.91 1073.09 1059.39C1107 1043.77 1123.13 972.543 1052.7 923.304C1046.57 919.009 1039.68 914.681 1031.91 910.58C1004.64 892.134 967.271 896.6 924.088 925.006C894.415 944.525 861.639 975.364 831.775 1019.69C821.841 1034.43 812.298 1050.43 803.107 1067.62C725.319 1213.22 262.078 1338.74 137.47 927.461" stroke="url(#paint29_linear_115_11)" stroke-width="0.5658" stroke-miterlimit="10"/>
<path opacity="0.5" d="M2171.82 486.643C2079.95 419.415 1932.89 334.552 1824.39 388.485C1776.1 412.585 1753.12 467.843 1735.37 520.051C1725.46 549.211 1713.46 578.119 1699.2 605.816C1678.47 645.872 1653.42 683.404 1623.5 715.339C1575.02 767.044 1497.34 818.076 1431.11 791.304C1384.76 772.573 1351.82 693.386 1399.11 655.546C1423.9 635.707 1462.21 647.574 1481.66 676.048C1501.13 704.488 1504.08 744.521 1496.61 780.031C1486.57 828.002 1464.31 869.2 1434.63 899.17C1382.4 952.121 1307.12 970.293 1234.66 929.803C1095.81 852.284 1011.49 972.886 1027.35 1034.92C1029.1 1041.74 1032.14 1047.81 1036.4 1052.83C1053.27 1072.65 1071.68 1075.54 1086.63 1068.21C1122.97 1050.47 1139.44 972.646 1064.23 921.705C1057.55 917.182 1050.1 912.762 1041.77 908.627C1012.15 890.09 972.946 896.806 929.603 927.701C899.9 948.866 868.077 981.406 838.184 1025.87C828.279 1040.59 818.626 1056.51 809.244 1073.58C729.799 1218.07 244.238 1335.59 138.324 908.684" stroke="url(#paint30_linear_115_11)" stroke-width="0.5658" stroke-miterlimit="10"/>
<path opacity="0.5" d="M2170.87 478.43C2077.74 412.63 1928.44 329.698 1819.71 388.428C1771.25 414.606 1749.07 472.662 1732.42 527.018C1709.69 601.236 1674.2 672.907 1623.62 727.205C1575.4 778.968 1496.21 829.098 1428.64 798.648C1381.37 777.346 1347.97 693.66 1397.35 652.496C1423.5 630.692 1463.55 641.554 1484.31 669.88C1505.08 698.206 1508.93 738.718 1502.16 774.777C1476.8 909.723 1356.16 993.798 1242.08 930.202C1085.99 843.192 999.656 1009.88 1046.46 1062.2C1112.82 1136.41 1198.83 975.969 1051.64 906.742C990.605 871.152 896.484 936.233 815.382 1079.61C734.279 1222.99 226.388 1332.51 139.168 889.975" stroke="url(#paint31_linear_115_11)" stroke-width="0.5658" stroke-miterlimit="10"/>
<path opacity="0.5" d="M2168.08 471.829C2077.96 408.153 1933.33 333.889 1825.94 395.601C1778.76 422.716 1756.61 479.961 1739.91 533.974C1717.1 607.678 1681.8 678.846 1631.7 733.008C1583.82 784.805 1505.77 834.763 1438.73 806.312C1391.78 786.427 1358.14 705.938 1404.47 666.294C1414.97 657.294 1427.94 654.084 1440.85 655.523C1458.06 657.408 1475.12 667.516 1486.07 683.118C1505.37 710.45 1508.14 749.535 1500.8 784.394C1473.32 914.703 1353.73 997.225 1240.43 936.804C1086.96 854.957 1001.24 1017.57 1045.01 1070.33C1106.92 1144.99 1189.09 990.258 1044.53 924.275C983.072 890.981 891.02 955.855 808.16 1093.33C723.642 1233.53 222.732 1333.56 137.993 896.177" stroke="url(#paint32_linear_115_11)" stroke-width="0.5658" stroke-miterlimit="10"/>
<path opacity="0.5" d="M2165.29 465.239C2078.17 403.676 1938.24 338.036 1832.17 402.796C1786.28 430.814 1764.16 487.294 1747.38 540.964C1724.51 614.154 1689.38 684.831 1639.77 738.833C1592.23 790.653 1515.3 840.44 1448.78 813.987C1402.17 795.518 1368.28 718.228 1411.56 680.114C1421.35 671.456 1433.53 668.395 1445.62 669.789C1461.77 671.605 1477.72 681.37 1487.82 696.379C1505.59 722.785 1507.34 760.351 1499.41 794.034C1469.84 919.683 1351.32 1000.67 1238.78 943.429C1087.97 866.721 1002.78 1025.21 1043.55 1078.49C1100.96 1153.51 1179.35 1004.56 1037.4 941.841C975.528 910.832 885.385 975.512 800.917 1107.07C712.863 1244.21 219.065 1334.63 136.787 902.414" stroke="url(#paint33_linear_115_11)" stroke-width="0.5658" stroke-miterlimit="10"/>
<path opacity="0.5" d="M2162.51 458.637C2078.39 399.199 1943.2 342.113 1838.41 409.969C1793.81 438.855 1771.73 494.604 1754.87 547.931C1731.92 620.607 1696.98 690.793 1647.85 744.635C1600.65 796.489 1524.86 846.105 1458.86 821.64C1412.56 804.587 1378.44 730.495 1418.66 693.911C1427.74 685.608 1439.11 682.684 1450.4 684.043C1465.5 685.802 1480.37 695.202 1489.58 709.616C1505.85 735.064 1506.55 771.145 1498.04 803.651C1466.38 924.629 1348.97 1004.11 1237.13 950.031C1089.04 878.428 1004.28 1032.75 1042.12 1086.63C1094.98 1161.92 1169.64 1018.86 1030.3 959.385C967.994 930.671 879.599 995.135 793.705 1120.8C701.985 1254.98 215.419 1335.68 135.612 908.627" stroke="url(#paint34_linear_115_11)" stroke-width="0.5658" stroke-miterlimit="10"/>
<path opacity="0.5" d="M2159.71 452.035C2078.6 394.721 1948.15 346.122 1844.63 417.153C1801.32 446.872 1779.27 501.925 1762.36 554.898C1739.33 627.06 1704.58 696.744 1655.93 750.449C1609.07 802.326 1534.41 851.781 1468.92 829.304C1422.96 813.667 1388.59 742.773 1425.76 707.72C1434.13 699.759 1444.7 696.972 1455.18 698.297C1469.24 699.988 1483 709.034 1491.33 722.854C1506.11 747.342 1505.77 781.927 1496.67 813.268C1462.94 929.54 1346.65 1007.54 1235.47 956.632C1090.15 890.09 1005.71 1040.19 1040.66 1094.77C1088.98 1170.22 1159.89 1033.15 1023.18 976.928C960.45 950.51 873.622 1014.73 786.462 1134.51C690.935 1265.82 211.752 1336.73 134.406 914.829" stroke="url(#paint35_linear_115_11)" stroke-width="0.5658" stroke-miterlimit="10"/>
<path opacity="0.5" d="M2156.92 445.445C2078.81 390.255 1953.11 350.085 1850.86 424.337C1808.83 454.856 1786.83 509.235 1769.84 561.877C1746.75 633.514 1712.16 702.717 1664.02 756.262C1617.5 808.162 1543.97 857.458 1479.01 836.967C1433.37 822.748 1398.83 755.154 1432.87 721.517C1440.55 713.934 1450.3 711.261 1459.97 712.552C1472.97 714.173 1485.64 722.854 1493.11 736.103C1506.38 759.632 1505.01 792.72 1495.32 822.896C1459.54 934.44 1344.4 1010.96 1233.85 963.234C1091.36 901.717 1007.16 1047.54 1039.25 1102.9C1083.01 1178.38 1150.2 1047.43 1016.11 994.472C952.957 970.338 867.515 1034.28 779.28 1148.24C679.795 1276.74 208.136 1337.8 133.261 921.054" stroke="url(#paint36_linear_115_11)" stroke-width="0.5658" stroke-miterlimit="10"/>
<path opacity="0.5" d="M2154.13 438.843C2079.02 385.778 1958.09 353.968 1857.09 431.521C1816.35 462.805 1794.37 516.556 1777.31 568.855C1754.15 639.978 1719.75 708.691 1672.08 762.075C1625.9 814.01 1553.5 863.134 1489.06 844.631C1443.75 831.827 1408.99 767.455 1439.96 735.326C1446.94 728.096 1455.88 725.549 1464.74 726.805C1476.69 728.359 1488.25 736.685 1494.85 749.34C1506.61 771.898 1504.21 803.49 1493.94 832.513C1456.13 939.305 1342.16 1014.38 1232.19 969.835C1092.56 913.287 1008.54 1054.78 1037.79 1111.03C1076.99 1186.41 1140.46 1061.72 1008.99 1012C945.413 990.166 861.176 1053.76 772.038 1161.96C668.445 1287.7 204.46 1338.85 132.066 927.255" stroke="url(#paint37_linear_115_11)" stroke-width="0.5658" stroke-miterlimit="10"/>
<path opacity="0.5" d="M2151.34 432.253C2079.23 381.312 1963.06 357.795 1863.33 438.706C1823.86 470.721 1801.93 523.877 1784.81 575.823C1761.56 646.431 1727.35 714.641 1680.17 767.878C1634.32 819.835 1563.1 868.64 1499.14 852.295C1454.17 840.794 1419.17 779.756 1447.07 749.135C1453.32 742.259 1461.46 739.849 1469.52 741.071C1480.42 742.556 1490.87 750.517 1496.61 762.601C1506.85 784.188 1503.44 814.273 1492.56 842.153C1452.75 944.171 1339.98 1017.81 1230.54 976.46C1093.85 924.823 1009.9 1061.92 1036.34 1119.18C1071.03 1194.32 1130.72 1076.03 1001.88 1029.57C937.88 1010.03 854.678 1073.2 764.816 1175.7C656.963 1298.72 200.814 1339.92 130.881 933.48" stroke="url(#paint38_linear_115_11)" stroke-width="0.5658" stroke-miterlimit="10"/>
<path opacity="0.5" d="M2148.54 425.651C2079.44 376.835 1968.04 361.553 1869.56 445.89C1831.36 478.602 1809.48 531.198 1792.29 582.801C1768.98 652.896 1734.94 720.615 1688.26 773.703C1642.75 825.694 1572.65 874.316 1509.21 859.971C1464.57 849.874 1429.36 792.069 1454.18 762.944C1459.73 756.422 1467.06 754.149 1474.31 755.326C1484.16 756.742 1493.5 764.337 1498.38 775.839C1507.11 796.455 1502.7 825.02 1491.2 851.77C1449.44 948.991 1337.86 1021.19 1228.9 983.062C1095.19 936.279 1011.29 1068.92 1034.91 1127.33C1065.14 1202.06 1121.01 1090.33 994.784 1047.11C930.366 1029.86 848.018 1092.54 757.603 1189.43C645.331 1309.73 197.167 1340.97 129.706 939.705" stroke="url(#paint39_linear_115_11)" stroke-width="0.5658" stroke-miterlimit="10"/>
<path opacity="0.5" d="M2145.75 419.061C2079.66 372.357 1973 365.242 1875.78 453.074C1838.84 486.448 1817.03 538.508 1799.77 589.78C1776.39 659.361 1742.54 726.589 1696.33 779.516C1651.17 831.531 1582.2 879.97 1519.28 867.635C1474.96 858.943 1439.53 804.37 1461.27 776.753C1466.12 770.585 1472.64 768.438 1479.08 769.591C1487.88 770.95 1496.12 778.169 1500.12 789.099C1507.33 808.733 1501.93 835.791 1489.83 861.41C1446.14 953.811 1335.77 1024.57 1227.24 989.686C1096.59 947.689 1012.66 1075.82 1033.46 1135.48C1059.31 1209.66 1111.26 1104.65 987.662 1064.68C922.822 1049.72 841.167 1111.8 750.371 1203.17C633.529 1320.75 193.511 1342.04 128.51 945.93" stroke="url(#paint40_linear_115_11)" stroke-width="0.5658" stroke-miterlimit="10"/>
<path opacity="0.5" d="M2142.96 412.459C2079.87 367.88 1977.94 368.851 1882.01 460.247C1846.31 494.261 1824.58 545.818 1807.26 596.736C1783.8 665.791 1750.13 732.528 1704.41 785.307C1659.59 837.344 1591.74 885.612 1529.35 875.276C1485.37 867.989 1449.73 816.648 1468.38 790.538C1472.53 784.725 1478.24 782.715 1483.87 783.834C1491.63 785.125 1498.74 791.966 1501.89 802.326C1507.56 820.977 1501.21 846.516 1488.46 871.015C1442.9 958.585 1333.74 1027.89 1225.61 996.277C1098.06 958.985 1014.1 1082.57 1032.02 1143.6C1053.6 1217.07 1101.55 1118.92 980.561 1082.2C915.299 1069.54 834.176 1130.9 743.149 1216.87C621.575 1331.7 189.855 1343.08 127.335 952.121" stroke="url(#paint41_linear_115_11)" stroke-width="0.5658" stroke-miterlimit="10"/>
<path opacity="0.5" d="M2140.17 405.868C2080.08 363.414 1982.86 372.403 1888.24 467.442C1853.78 502.061 1832.13 553.151 1814.73 603.726C1791.2 672.267 1757.72 738.512 1712.47 791.143C1667.98 843.215 1601.28 891.288 1539.41 882.962C1495.74 877.091 1459.92 828.972 1475.46 804.358C1478.91 798.899 1483.8 797.026 1488.63 798.099C1495.33 799.321 1501.33 805.775 1503.63 815.586C1507.76 833.232 1500.47 857.275 1487.08 880.655C1439.68 963.393 1331.73 1031.2 1223.94 1002.89C1099.54 970.212 1015.57 1089.23 1030.56 1151.75C1047.98 1224.37 1091.81 1133.22 973.439 1099.76C907.755 1089.39 827.014 1149.93 735.916 1230.61C609.461 1342.6 186.198 1344.16 126.14 958.345" stroke="url(#paint42_linear_115_11)" stroke-width="0.5658" stroke-miterlimit="10"/>
<path opacity="0.5" d="M2137.38 399.267C2080.3 358.937 1987.76 375.887 1894.48 474.616C1861.23 509.806 1839.69 560.461 1822.22 610.693C1798.62 678.721 1765.32 744.475 1720.57 796.946C1676.42 849.04 1610.84 896.943 1549.49 890.626C1506.15 886.16 1470.15 841.262 1482.58 818.167C1485.33 813.062 1489.41 811.314 1493.41 812.365C1499.07 813.519 1503.94 819.572 1505.39 828.835C1507.98 845.454 1499.75 868.023 1485.71 890.284C1436.55 968.179 1329.8 1034.47 1222.3 1009.5C1101.12 981.36 1017.13 1095.78 1029.13 1159.89C1042.54 1231.56 1082.08 1147.52 966.337 1117.31C900.231 1109.23 819.741 1168.84 728.694 1244.34C597.196 1353.42 182.542 1345.22 124.954 964.57" stroke="url(#paint43_linear_115_11)" stroke-width="0.5658" stroke-miterlimit="10"/>
<path opacity="0.5" d="M2134.59 392.677C2080.52 354.471 1992.63 379.302 1900.71 481.811C1868.65 517.55 1847.24 567.794 1829.71 617.672C1806.03 685.185 1772.9 750.437 1728.65 802.76C1684.84 854.888 1620.38 902.608 1559.56 898.291C1516.55 895.23 1480.37 853.529 1489.68 831.976C1491.74 827.214 1494.99 825.615 1498.2 826.62C1502.8 827.705 1506.55 833.347 1507.15 842.085C1508.2 857.652 1499.06 878.759 1484.33 899.912C1433.46 972.977 1327.9 1037.68 1220.64 1016.12C1102.73 992.405 1018.79 1102.26 1027.68 1168.05C1037.22 1238.67 1072.36 1161.83 959.225 1134.87C892.698 1129.08 812.328 1187.6 721.472 1258.08C584.791 1364.12 178.885 1346.28 123.769 970.795" stroke="url(#paint44_linear_115_11)" stroke-width="0.5658" stroke-miterlimit="10"/>
<path opacity="0.5" d="M2131.8 386.075C2080.73 349.994 1997.44 382.648 1906.93 488.984C1876.07 525.248 1854.79 575.092 1837.19 624.639C1813.45 691.638 1780.5 756.399 1736.72 808.573C1693.26 860.724 1629.92 908.273 1569.63 905.954C1526.94 904.309 1490.61 865.784 1496.78 845.773C1498.15 841.353 1500.58 839.903 1502.98 840.874C1506.52 841.89 1509.17 847.098 1508.9 855.322C1508.43 869.805 1498.39 889.496 1482.97 909.529C1430.44 977.773 1326.06 1040.82 1219.01 1022.72C1104.39 1003.34 1020.58 1108.67 1026.24 1176.18C1032.07 1245.68 1062.64 1176.11 952.133 1152.41C885.184 1148.92 804.825 1206.23 714.26 1271.81C572.245 1374.65 175.249 1347.34 122.594 977.008" stroke="url(#paint45_linear_115_11)" stroke-width="0.5658" stroke-miterlimit="10"/>
<path opacity="0.5" d="M2129.01 379.484C2080.94 345.516 2002.2 385.949 1913.16 496.179C1883.46 532.946 1862.34 582.424 1844.67 631.629C1820.85 698.103 1788.09 762.384 1744.8 814.398C1701.68 866.584 1639.47 913.961 1579.7 913.629C1537.33 913.401 1500.85 878.005 1503.88 859.594C1504.55 855.505 1506.16 854.203 1507.76 855.139C1510.26 856.099 1511.81 860.85 1510.66 868.571C1508.68 881.946 1497.72 900.243 1481.59 919.157C1427.48 982.605 1324.24 1043.9 1217.35 1029.33C1106.09 1014.16 1022.5 1115.05 1024.79 1184.32C1027.06 1252.67 1052.89 1190.41 945.012 1169.95C877.64 1168.74 797.191 1224.71 707.027 1285.53C559.558 1385.01 171.583 1348.39 121.408 983.222" stroke="url(#paint46_linear_115_11)" stroke-width="0.5658" stroke-miterlimit="10"/>
<path opacity="0.5" d="M2237.2 663.729C2192.14 631.886 2117.9 680.016 2030.37 794.199C2001.83 831.445 1980.87 880.581 1963.13 929.442C1939.24 995.403 1906.66 1059.18 1863.86 1111.05C1821.07 1163.26 1760 1210.47 1700.75 1212.13C1658.7 1213.32 1622.06 1180.99 1621.96 1164.24C1621.94 1160.47 1622.73 1159.34 1623.52 1160.24C1624.96 1161.13 1625.43 1165.41 1623.4 1172.67C1619.96 1184.92 1608.06 1201.85 1591.2 1219.63C1535.56 1278.33 1433.45 1337.74 1326.68 1326.79C1218.81 1315.72 1135.53 1412.28 1134.33 1483.31C1133.18 1550.51 1154.16 1495.56 1048.89 1478.36C981.093 1479.44 900.472 1533.92 810.781 1590.12C657.717 1686.02 278.913 1640.31 231.199 1280.29" stroke="url(#paint47_linear_115_11)" stroke-width="0.5658" stroke-miterlimit="10"/>
<path opacity="0.5" d="M2005.38 8.87309C1963.33 -20.846 1893.52 34.9372 1807.58 153.128C1780.16 190.843 1759.4 239.648 1741.59 288.155C1717.63 353.601 1685.23 416.889 1642.91 468.595C1600.46 520.826 1540.51 567.872 1481.79 571.538C1440.07 574.142 1403.2 544.846 1400.04 529.78C1399.31 526.32 1399.29 525.372 1399.27 526.228C1399.67 527.051 1399.08 530.877 1396.13 537.638C1391.28 548.763 1378.4 564.354 1360.81 580.984C1303.7 634.974 1202.68 692.368 1096.02 685.115C991.57 678.022 908.749 770.389 903.868 843.179C899.438 909.231 915.409 861.579 812.76 847.634C744.545 851.014 663.683 903.862 574.545 955.568C415.785 1047.66 46.2423 993.1 1 638.229" stroke="url(#paint48_linear_115_11)" stroke-width="0.5658" stroke-miterlimit="10"/>
<path opacity="0.5" d="M2120.63 359.691C2081.57 332.096 2016.14 395.475 1931.84 517.721C1905.54 555.881 1884.99 604.365 1867.12 652.542C1843.07 717.474 1810.86 780.27 1769.03 831.828C1726.92 884.093 1668.1 930.968 1609.89 936.621C1568.49 940.642 1531.31 914.361 1525.17 901.009C1523.71 897.856 1522.91 897.08 1522.07 897.913C1521.42 898.667 1519.8 902.048 1515.9 908.318C1509.69 918.335 1495.8 932.567 1477.45 948.032C1418.92 997.373 1318.98 1052.57 1212.38 1049.15C1111.38 1045.9 1029.13 1134.26 1020.43 1208.74C1012.84 1273.71 1023.68 1233.3 923.656 1222.6C855.019 1228.26 773.866 1279.36 685.33 1326.72C520.764 1414.73 160.604 1351.57 117.822 1001.87" stroke="url(#paint49_linear_115_11)" stroke-width="0.5658" stroke-miterlimit="10"/>
<path opacity="0.5" d="M2117.84 353.101C2081.78 327.63 2020.65 398.547 1938.07 524.917C1912.85 563.51 1892.54 611.698 1874.6 659.532C1850.48 723.95 1818.46 786.244 1777.11 837.653C1735.35 889.941 1677.65 936.667 1619.98 944.297C1578.9 949.733 1541.35 926.536 1532.29 914.829C1530.1 911.996 1528.52 911.391 1526.87 912.179C1525.18 912.864 1522.54 915.823 1517.69 921.568C1510.13 930.522 1495.23 943.383 1476.12 957.66C1416.21 1002.42 1317.32 1055.25 1210.77 1055.76C1113.22 1056.23 1031.7 1140.79 1019.03 1216.89C1008.38 1280.84 1014.01 1247.6 916.594 1240.15C847.536 1248.11 766.061 1297.31 678.148 1340.46C507.696 1424.11 156.988 1352.64 116.677 1008.1" stroke="url(#paint50_linear_115_11)" stroke-width="0.5658" stroke-miterlimit="10"/>
<path opacity="0.5" d="M2115.05 346.499C2082.01 323.153 2025.1 401.574 1944.31 532.09C1920.15 571.106 1900.1 619.008 1882.08 666.488C1857.89 730.381 1826.05 792.195 1785.19 843.444C1743.76 895.766 1687.19 942.321 1630.04 951.938C1589.28 958.803 1551.35 938.758 1539.38 928.604C1536.44 926.114 1534.1 925.657 1531.64 926.411C1528.89 927.028 1525.27 929.597 1519.44 934.794C1510.54 942.732 1494.64 954.2 1474.74 967.266C1413.49 1007.52 1315.61 1057.75 1209.11 1062.35C1115.02 1066.42 1034.36 1147.4 1017.58 1225.01C1003.96 1288.02 1004.27 1261.88 909.473 1257.67C839.992 1267.93 758.176 1315.1 670.916 1354.15C494.497 1433.11 153.321 1353.67 115.492 1014.28" stroke="url(#paint51_linear_115_11)" stroke-width="0.5658" stroke-miterlimit="10"/>
<path opacity="0.5" d="M2112.26 339.909C2082.22 318.687 2029.45 404.566 1950.54 539.285C1927.43 578.724 1907.65 626.341 1889.57 673.478C1865.31 736.857 1833.64 798.179 1793.26 849.28C1752.17 901.625 1696.73 948.032 1640.11 959.624C1599.68 967.905 1561.38 951.092 1546.48 942.435C1542.8 940.299 1539.68 939.968 1536.43 940.699C1532.63 941.247 1528 943.451 1521.2 948.066C1510.96 955.022 1494.06 965.084 1473.36 976.917C1410.77 1012.74 1313.89 1060.15 1207.46 1068.99C1116.82 1076.5 1037.15 1154.16 1016.13 1233.17C999.586 1295.34 994.533 1276.2 902.361 1275.25C832.458 1287.8 750.291 1332.82 663.683 1367.91C481.258 1441.85 149.665 1354.77 114.297 1020.54" stroke="url(#paint52_linear_115_11)" stroke-width="0.5658" stroke-miterlimit="10"/>
<path opacity="0.5" d="M2109.47 333.307C2082.43 314.198 2033.73 407.525 1956.77 546.458C1934.69 586.308 1915.2 633.639 1897.05 680.445C1872.71 743.31 1841.23 804.13 1801.34 855.082C1760.59 907.462 1706.28 953.708 1650.17 967.289C1610.07 976.997 1571.44 963.417 1553.57 956.244C1549.16 954.474 1545.26 954.268 1541.2 954.953C1536.35 955.444 1530.7 957.295 1522.95 961.315C1511.34 967.323 1493.46 975.969 1471.99 986.545C1408.07 1018.01 1312.14 1062.36 1205.81 1075.59C1118.6 1086.44 1040.06 1161.02 1014.68 1241.32C995.266 1302.75 984.809 1290.5 895.259 1292.81C824.934 1307.64 742.426 1350.38 656.471 1381.64C467.998 1450.18 146.018 1355.83 113.121 1026.75" stroke="url(#paint53_linear_115_11)" stroke-width="0.5658" stroke-miterlimit="10"/>
<path opacity="0.5" d="M2106.68 326.705C2082.64 309.721 2037.92 410.449 1962.99 553.631C1941.93 593.892 1922.74 640.949 1904.53 687.401C1880.12 749.752 1848.82 810.081 1809.43 860.873C1769.02 913.276 1715.83 959.373 1660.26 974.93C1620.47 986.066 1581.56 975.74 1560.69 970.018C1555.56 968.613 1550.87 968.533 1546 969.184C1540.1 969.607 1533.42 971.126 1524.72 974.53C1511.75 979.613 1492.9 986.865 1470.64 996.14C1405.39 1023.33 1310.39 1064.35 1204.18 1082.17C1120.37 1096.23 1043.07 1167.99 1013.26 1249.43C990.997 1310.24 975.096 1304.76 888.167 1310.32C817.421 1327.45 734.601 1367.8 649.259 1395.34C454.739 1458.11 142.382 1356.85 111.946 1032.93" stroke="url(#paint54_linear_115_11)" stroke-width="0.5658" stroke-miterlimit="10"/>
<path opacity="0.5" d="M2103.88 320.115C2082.85 305.255 2042.03 413.361 1969.22 560.826C1949.14 601.487 1930.3 648.282 1912.02 694.391C1887.54 756.228 1856.42 816.066 1817.5 866.71C1777.43 919.135 1725.38 965.084 1670.33 982.616C1630.87 995.18 1591.67 988.099 1567.79 983.85C1561.93 982.811 1556.45 982.845 1550.76 983.462C1543.81 983.816 1536.09 985.004 1526.46 987.802C1512.08 991.959 1492.3 997.83 1469.25 1005.79C1402.64 1028.79 1308.52 1066.21 1202.51 1088.8C1122.04 1105.96 1046.1 1175.16 1011.8 1257.59C986.708 1317.89 965.353 1319.09 881.046 1327.89C809.867 1347.32 726.786 1385.17 642.027 1409.1C441.47 1465.71 138.716 1357.94 110.761 1039.19" stroke="url(#paint55_linear_115_11)" stroke-width="0.5658" stroke-miterlimit="10"/>
<path opacity="0.5" d="M2101.09 313.513C2083.07 300.778 2046.03 416.251 1975.45 567.999C1956.34 609.071 1937.84 655.592 1919.49 701.358C1894.94 762.67 1864 822.017 1825.57 872.512C1785.83 924.971 1734.91 970.772 1680.38 990.269C1641.24 1004.26 1601.79 1000.42 1574.88 997.647C1568.31 996.974 1562.02 997.133 1555.53 997.716C1547.53 998.001 1538.77 998.869 1528.21 1001.04C1512.41 1004.28 1491.7 1008.79 1467.87 1015.41C1399.88 1034.28 1306.58 1067.82 1200.86 1095.41C1123.66 1115.54 1049.2 1182.43 1010.34 1265.72C982.409 1325.61 955.619 1333.38 873.923 1345.43C802.323 1367.14 719.011 1402.4 634.784 1422.81C428.22 1472.86 135.049 1358.98 109.555 1045.38" stroke="url(#paint56_linear_115_11)" stroke-width="0.5658" stroke-miterlimit="10"/>
<path opacity="0.5" d="M2098.3 306.923C2083.28 296.312 2049.96 419.141 1981.68 575.195C1963.53 616.678 1945.4 662.913 1926.97 708.337C1902.34 769.134 1871.6 827.99 1833.66 878.325C1794.26 930.808 1744.48 976.472 1690.46 997.933C1651.65 1013.35 1611.92 1012.76 1581.98 1011.44C1574.7 1011.12 1567.62 1011.42 1560.31 1011.96C1551.26 1012.18 1541.45 1012.72 1529.97 1014.28C1512.74 1016.61 1491.09 1019.78 1466.5 1025.03C1397.08 1039.82 1304.54 1069.23 1199.22 1102.01C1125.23 1125.03 1052.34 1189.83 1008.91 1273.86C978.12 1333.43 945.896 1347.65 866.822 1362.97C794.8 1386.98 711.327 1419.55 627.572 1436.54C415.072 1479.62 131.403 1360.04 108.38 1051.59" stroke="url(#paint57_linear_115_11)" stroke-width="0.5658" stroke-miterlimit="10"/>
<path opacity="0.5" d="M2095.51 300.321C2083.49 291.835 2053.8 422.019 1987.91 582.368C1970.69 624.274 1952.95 670.223 1934.46 715.304C1909.76 775.588 1879.19 833.952 1841.73 884.128C1802.68 936.644 1754.06 982.251 1700.52 1005.6C1662.07 1022.52 1622.07 1025.08 1589.08 1025.25C1581.08 1025.3 1573.2 1025.71 1565.09 1026.22C1554.99 1026.37 1544.11 1026.59 1531.73 1027.53C1513.05 1028.93 1490.47 1030.8 1465.13 1034.65C1394.23 1045.41 1302.35 1070.41 1197.56 1108.62C1126.66 1134.47 1055.48 1197.34 1007.46 1282.01C973.8 1341.37 936.162 1361.96 859.71 1380.54C787.266 1406.84 703.702 1436.64 620.34 1450.29C401.993 1486.01 127.737 1361.13 107.185 1057.84" stroke="url(#paint58_linear_115_11)" stroke-width="0.5658" stroke-miterlimit="10"/>
<path opacity="0.5" d="M2092.72 293.731C2083.71 287.358 2057.56 424.897 1994.14 589.563C1977.84 631.892 1960.5 677.556 1941.95 722.294C1917.18 782.064 1886.79 839.926 1849.82 889.964C1811.1 942.504 1763.62 987.95 1710.61 1013.28C1672.48 1031.63 1632.23 1037.42 1596.19 1039.09C1587.48 1039.48 1578.8 1040.03 1569.89 1040.5C1558.74 1040.59 1546.79 1040.47 1533.49 1040.79C1513.37 1041.27 1489.85 1041.85 1463.77 1044.29C1391.36 1051.07 1300.02 1071.42 1195.92 1115.23C1128.01 1143.82 1058.62 1204.97 1006.02 1290.16C969.461 1349.38 926.449 1376.26 852.608 1398.08C779.742 1426.67 696.179 1453.63 613.127 1464C389.055 1491.99 124.101 1362.17 106.01 1064.04" stroke="url(#paint59_linear_115_11)" stroke-width="0.5658" stroke-miterlimit="10"/>
<path opacity="0.5" d="M2089.93 287.129C2083.92 282.88 2061.22 427.787 2000.37 596.736C1984.97 639.498 1968.06 684.865 1949.42 729.25C1924.58 788.505 1894.38 845.876 1857.88 895.755C1819.51 948.328 1773.15 993.604 1720.66 1020.92C1682.86 1040.68 1642.37 1049.78 1603.29 1052.86C1593.86 1053.64 1584.37 1054.3 1574.66 1054.73C1562.45 1054.76 1549.43 1054.3 1535.24 1054.01C1513.66 1053.57 1489.19 1052.88 1462.39 1053.9C1388.39 1056.71 1297.46 1072.18 1194.27 1121.82C1129.22 1153.12 1061.73 1212.66 1004.58 1298.28C965.081 1357.44 916.715 1390.54 845.507 1415.61C772.219 1446.5 688.745 1470.55 605.905 1477.72C376.228 1497.6 120.444 1363.22 104.834 1070.24" stroke="url(#paint60_linear_115_11)" stroke-width="0.5658" stroke-miterlimit="10"/>
<path opacity="0.5" d="M2087.14 280.539C2084.14 278.414 2064.8 430.688 2006.6 603.931C1992.08 647.139 1975.6 692.186 1956.91 736.24C1931.99 794.97 1901.96 851.861 1865.97 901.58C1827.93 954.176 1782.72 999.292 1730.74 1028.6C1693.27 1049.78 1652.53 1062.07 1610.39 1066.68C1600.25 1067.8 1589.97 1068.6 1579.43 1069C1566.18 1068.95 1552.09 1068.16 1536.99 1067.26C1513.96 1065.89 1488.51 1063.94 1461.01 1063.53C1385.38 1062.4 1294.7 1072.78 1192.61 1128.44C1130.28 1162.42 1064.82 1220.46 1003.12 1306.42C960.651 1365.6 906.971 1404.84 838.385 1433.15C764.675 1466.33 681.393 1487.43 598.673 1491.44C363.551 1502.86 116.788 1364.27 103.639 1076.45" stroke="url(#paint61_linear_115_11)" stroke-width="0.5658" stroke-miterlimit="10"/>
<path opacity="0.5" d="M2084.35 273.937C2084.35 273.937 2004.38 1069.71 1584.21 1083.26C1452.28 1082.21 1246.78 995.294 1001.69 1314.58C756.589 1633.87 120.073 1549.15 102.454 1082.69" stroke="url(#paint62_linear_115_11)" stroke-width="0.5658" stroke-miterlimit="10"/>
</g>
<defs>
<linearGradient id="paint0_linear_115_11" x1="802.503" y1="659.996" x2="1629.42" y2="1384.57" gradientUnits="userSpaceOnUse">
<stop stop-color="#1BA4E5" stop-opacity="0.5"/>
<stop offset="1" stop-color="#B40FE7"/>
</linearGradient>
<linearGradient id="paint1_linear_115_11" x1="808.887" y1="658.513" x2="1628.31" y2="1376.52" gradientUnits="userSpaceOnUse">
<stop stop-color="#1BA4E5" stop-opacity="0.5"/>
<stop offset="1" stop-color="#B40FE7"/>
</linearGradient>
<linearGradient id="paint2_linear_115_11" x1="805.029" y1="645.149" x2="1628.65" y2="1366.84" gradientUnits="userSpaceOnUse">
<stop stop-color="#1BA4E5" stop-opacity="0.5"/>
<stop offset="1" stop-color="#B40FE7"/>
</linearGradient>
<linearGradient id="paint3_linear_115_11" x1="801.295" y1="631.645" x2="1629.12" y2="1357.01" gradientUnits="userSpaceOnUse">
<stop stop-color="#1BA4E5" stop-opacity="0.5"/>
<stop offset="1" stop-color="#B40FE7"/>
</linearGradient>
<linearGradient id="paint4_linear_115_11" x1="797.734" y1="617.944" x2="1629.75" y2="1346.99" gradientUnits="userSpaceOnUse">
<stop stop-color="#1BA4E5" stop-opacity="0.5"/>
<stop offset="1" stop-color="#B40FE7"/>
</linearGradient>
<linearGradient id="paint5_linear_115_11" x1="794.26" y1="604.144" x2="1630.47" y2="1336.86" gradientUnits="userSpaceOnUse">
<stop stop-color="#1BA4E5" stop-opacity="0.5"/>
<stop offset="1" stop-color="#B40FE7"/>
</linearGradient>
<linearGradient id="paint6_linear_115_11" x1="790.911" y1="590.202" x2="1631.32" y2="1326.6" gradientUnits="userSpaceOnUse">
<stop stop-color="#1BA4E5" stop-opacity="0.5"/>
<stop offset="1" stop-color="#B40FE7"/>
</linearGradient>
<linearGradient id="paint7_linear_115_11" x1="787.687" y1="576.118" x2="1632.29" y2="1316.19" gradientUnits="userSpaceOnUse">
<stop stop-color="#1BA4E5" stop-opacity="0.5"/>
<stop offset="1" stop-color="#B40FE7"/>
</linearGradient>
<linearGradient id="paint8_linear_115_11" x1="784.588" y1="561.893" x2="1633.38" y2="1305.64" gradientUnits="userSpaceOnUse">
<stop stop-color="#1BA4E5" stop-opacity="0.5"/>
<stop offset="1" stop-color="#B40FE7"/>
</linearGradient>
<linearGradient id="paint9_linear_115_11" x1="781.615" y1="547.524" x2="1634.61" y2="1294.94" gradientUnits="userSpaceOnUse">
<stop stop-color="#1BA4E5" stop-opacity="0.5"/>
<stop offset="1" stop-color="#B40FE7"/>
</linearGradient>
<linearGradient id="paint10_linear_115_11" x1="778.768" y1="533.013" x2="1635.95" y2="1284.11" gradientUnits="userSpaceOnUse">
<stop stop-color="#1BA4E5" stop-opacity="0.5"/>
<stop offset="1" stop-color="#B40FE7"/>
</linearGradient>
<linearGradient id="paint11_linear_115_11" x1="776.048" y1="518.358" x2="1637.42" y2="1273.13" gradientUnits="userSpaceOnUse">
<stop stop-color="#1BA4E5" stop-opacity="0.5"/>
<stop offset="1" stop-color="#B40FE7"/>
</linearGradient>
<linearGradient id="paint12_linear_115_11" x1="773.455" y1="503.56" x2="1639.02" y2="1262" gradientUnits="userSpaceOnUse">
<stop stop-color="#1BA4E5" stop-opacity="0.5"/>
<stop offset="1" stop-color="#B40FE7"/>
</linearGradient>
<linearGradient id="paint13_linear_115_11" x1="770.988" y1="488.619" x2="1640.75" y2="1250.73" gradientUnits="userSpaceOnUse">
<stop stop-color="#1BA4E5" stop-opacity="0.5"/>
<stop offset="1" stop-color="#B40FE7"/>
</linearGradient>
<linearGradient id="paint14_linear_115_11" x1="768.648" y1="473.535" x2="1642.6" y2="1239.32" gradientUnits="userSpaceOnUse">
<stop stop-color="#1BA4E5" stop-opacity="0.5"/>
<stop offset="1" stop-color="#B40FE7"/>
</linearGradient>
<linearGradient id="paint15_linear_115_11" x1="766.433" y1="458.309" x2="1644.57" y2="1227.77" gradientUnits="userSpaceOnUse">
<stop stop-color="#1BA4E5" stop-opacity="0.5"/>
<stop offset="1" stop-color="#B40FE7"/>
</linearGradient>
<linearGradient id="paint16_linear_115_11" x1="764.342" y1="442.943" x2="1646.67" y2="1216.07" gradientUnits="userSpaceOnUse">
<stop stop-color="#1BA4E5" stop-opacity="0.5"/>
<stop offset="1" stop-color="#B40FE7"/>
</linearGradient>
<linearGradient id="paint17_linear_115_11" x1="762.372" y1="427.441" x2="1648.89" y2="1204.24" gradientUnits="userSpaceOnUse">
<stop stop-color="#1BA4E5" stop-opacity="0.5"/>
<stop offset="1" stop-color="#B40FE7"/>
</linearGradient>
<linearGradient id="paint18_linear_115_11" x1="760.473" y1="411.86" x2="1651.19" y2="1192.33" gradientUnits="userSpaceOnUse">
<stop stop-color="#1BA4E5" stop-opacity="0.5"/>
<stop offset="1" stop-color="#B40FE7"/>
</linearGradient>
<linearGradient id="paint19_linear_115_11" x1="758.575" y1="396.278" x2="1653.48" y2="1180.43" gradientUnits="userSpaceOnUse">
<stop stop-color="#1BA4E5" stop-opacity="0.5"/>
<stop offset="1" stop-color="#B40FE7"/>
</linearGradient>
<linearGradient id="paint20_linear_115_11" x1="756.678" y1="380.696" x2="1655.78" y2="1168.52" gradientUnits="userSpaceOnUse">
<stop stop-color="#1BA4E5" stop-opacity="0.5"/>
<stop offset="1" stop-color="#B40FE7"/>
</linearGradient>
<linearGradient id="paint21_linear_115_11" x1="754.782" y1="365.114" x2="1658.08" y2="1156.61" gradientUnits="userSpaceOnUse">
<stop stop-color="#1BA4E5" stop-opacity="0.5"/>
<stop offset="1" stop-color="#B40FE7"/>
</linearGradient>
<linearGradient id="paint22_linear_115_11" x1="752.83" y1="349.578" x2="1660.33" y2="1144.76" gradientUnits="userSpaceOnUse">
<stop stop-color="#1BA4E5" stop-opacity="0.5"/>
<stop offset="1" stop-color="#B40FE7"/>
</linearGradient>
<linearGradient id="paint23_linear_115_11" x1="750.27" y1="334.697" x2="1661.99" y2="1133.58" gradientUnits="userSpaceOnUse">
<stop stop-color="#1BA4E5" stop-opacity="0.5"/>
<stop offset="1" stop-color="#B40FE7"/>
</linearGradient>
<linearGradient id="paint24_linear_115_11" x1="747.088" y1="320.527" x2="1663.03" y2="1123.11" gradientUnits="userSpaceOnUse">
<stop stop-color="#1BA4E5" stop-opacity="0.5"/>
<stop offset="1" stop-color="#B40FE7"/>
</linearGradient>
<linearGradient id="paint25_linear_115_11" x1="743.407" y1="306.926" x2="1663.57" y2="1113.2" gradientUnits="userSpaceOnUse">
<stop stop-color="#1BA4E5" stop-opacity="0.5"/>
<stop offset="1" stop-color="#B40FE7"/>
</linearGradient>
<linearGradient id="paint26_linear_115_11" x1="739.319" y1="293.791" x2="1663.7" y2="1103.77" gradientUnits="userSpaceOnUse">
<stop stop-color="#1BA4E5" stop-opacity="0.5"/>
<stop offset="1" stop-color="#B40FE7"/>
</linearGradient>
<linearGradient id="paint27_linear_115_11" x1="734.894" y1="281.04" x2="1663.5" y2="1094.71" gradientUnits="userSpaceOnUse">
<stop stop-color="#1BA4E5" stop-opacity="0.5"/>
<stop offset="1" stop-color="#B40FE7"/>
</linearGradient>
<linearGradient id="paint28_linear_115_11" x1="730.189" y1="268.611" x2="1663.01" y2="1085.98" gradientUnits="userSpaceOnUse">
<stop stop-color="#1BA4E5" stop-opacity="0.5"/>
<stop offset="1" stop-color="#B40FE7"/>
</linearGradient>
<linearGradient id="paint29_linear_115_11" x1="725.245" y1="256.455" x2="1662.29" y2="1077.52" gradientUnits="userSpaceOnUse">
<stop stop-color="#1BA4E5" stop-opacity="0.5"/>
<stop offset="1" stop-color="#B40FE7"/>
</linearGradient>
<linearGradient id="paint30_linear_115_11" x1="720.099" y1="244.532" x2="1661.36" y2="1069.3" gradientUnits="userSpaceOnUse">
<stop stop-color="#1BA4E5" stop-opacity="0.5"/>
<stop offset="1" stop-color="#B40FE7"/>
</linearGradient>
<linearGradient id="paint31_linear_115_11" x1="714.779" y1="232.809" x2="1660.26" y2="1061.27" gradientUnits="userSpaceOnUse">
<stop stop-color="#1BA4E5" stop-opacity="0.5"/>
<stop offset="1" stop-color="#B40FE7"/>
</linearGradient>
<linearGradient id="paint32_linear_115_11" x1="715.879" y1="236.417" x2="1654.1" y2="1058.52" gradientUnits="userSpaceOnUse">
<stop stop-color="#1BA4E5" stop-opacity="0.5"/>
<stop offset="1" stop-color="#B40FE7"/>
</linearGradient>
<linearGradient id="paint33_linear_115_11" x1="716.967" y1="240.04" x2="1647.93" y2="1055.78" gradientUnits="userSpaceOnUse">
<stop stop-color="#1BA4E5" stop-opacity="0.5"/>
<stop offset="1" stop-color="#B40FE7"/>
</linearGradient>
<linearGradient id="paint34_linear_115_11" x1="718.041" y1="243.678" x2="1641.74" y2="1053.06" gradientUnits="userSpaceOnUse">
<stop stop-color="#1BA4E5" stop-opacity="0.5"/>
<stop offset="1" stop-color="#B40FE7"/>
</linearGradient>
<linearGradient id="paint35_linear_115_11" x1="719.102" y1="247.331" x2="1635.54" y2="1050.35" gradientUnits="userSpaceOnUse">
<stop stop-color="#1BA4E5" stop-opacity="0.5"/>
<stop offset="1" stop-color="#B40FE7"/>
</linearGradient>
<linearGradient id="paint36_linear_115_11" x1="720.147" y1="251.001" x2="1629.33" y2="1047.66" gradientUnits="userSpaceOnUse">
<stop stop-color="#1BA4E5" stop-opacity="0.5"/>
<stop offset="1" stop-color="#B40FE7"/>
</linearGradient>
<linearGradient id="paint37_linear_115_11" x1="721.178" y1="254.689" x2="1623.1" y2="1044.98" gradientUnits="userSpaceOnUse">
<stop stop-color="#1BA4E5" stop-opacity="0.5"/>
<stop offset="1" stop-color="#B40FE7"/>
</linearGradient>
<linearGradient id="paint38_linear_115_11" x1="722.192" y1="258.395" x2="1616.85" y2="1042.33" gradientUnits="userSpaceOnUse">
<stop stop-color="#1BA4E5" stop-opacity="0.5"/>
<stop offset="1" stop-color="#B40FE7"/>
</linearGradient>
<linearGradient id="paint39_linear_115_11" x1="723.188" y1="262.122" x2="1610.59" y2="1039.7" gradientUnits="userSpaceOnUse">
<stop stop-color="#1BA4E5" stop-opacity="0.5"/>
<stop offset="1" stop-color="#B40FE7"/>
</linearGradient>
<linearGradient id="paint40_linear_115_11" x1="724.167" y1="265.868" x2="1604.31" y2="1037.08" gradientUnits="userSpaceOnUse">
<stop stop-color="#1BA4E5" stop-opacity="0.5"/>
<stop offset="1" stop-color="#B40FE7"/>
</linearGradient>
<linearGradient id="paint41_linear_115_11" x1="725.128" y1="269.635" x2="1598.01" y2="1034.49" gradientUnits="userSpaceOnUse">
<stop stop-color="#1BA4E5" stop-opacity="0.5"/>
<stop offset="1" stop-color="#B40FE7"/>
</linearGradient>
<linearGradient id="paint42_linear_115_11" x1="726.069" y1="273.424" x2="1591.69" y2="1031.91" gradientUnits="userSpaceOnUse">
<stop stop-color="#1BA4E5" stop-opacity="0.5"/>
<stop offset="1" stop-color="#B40FE7"/>
</linearGradient>
<linearGradient id="paint43_linear_115_11" x1="726.991" y1="277.235" x2="1585.36" y2="1029.37" gradientUnits="userSpaceOnUse">
<stop stop-color="#1BA4E5" stop-opacity="0.5"/>
<stop offset="1" stop-color="#B40FE7"/>
</linearGradient>
<linearGradient id="paint44_linear_115_11" x1="727.892" y1="281.07" x2="1579" y2="1026.84" gradientUnits="userSpaceOnUse">
<stop stop-color="#1BA4E5" stop-opacity="0.5"/>
<stop offset="1" stop-color="#B40FE7"/>
</linearGradient>
<linearGradient id="paint45_linear_115_11" x1="728.773" y1="284.928" x2="1572.62" y2="1024.34" gradientUnits="userSpaceOnUse">
<stop stop-color="#1BA4E5" stop-opacity="0.5"/>
<stop offset="1" stop-color="#B40FE7"/>
</linearGradient>
<linearGradient id="paint46_linear_115_11" x1="729.633" y1="288.81" x2="1566.22" y2="1021.86" gradientUnits="userSpaceOnUse">
<stop stop-color="#1BA4E5" stop-opacity="0.5"/>
<stop offset="1" stop-color="#B40FE7"/>
</linearGradient>
<linearGradient id="paint47_linear_115_11" x1="841.457" y1="583.563" x2="1681.65" y2="1319.77" gradientUnits="userSpaceOnUse">
<stop stop-color="#1BA4E5" stop-opacity="0.5"/>
<stop offset="1" stop-color="#B40FE7"/>
</linearGradient>
<linearGradient id="paint48_linear_115_11" x1="613.25" y1="-60.7713" x2="1458.53" y2="679.896" gradientUnits="userSpaceOnUse">
<stop stop-color="#1BA4E5" stop-opacity="0.5"/>
<stop offset="1" stop-color="#B40FE7"/>
</linearGradient>
<linearGradient id="paint49_linear_115_11" x1="732.083" y1="300.604" x2="1582.46" y2="1045.74" gradientUnits="userSpaceOnUse">
<stop stop-color="#1BA4E5" stop-opacity="0.5"/>
<stop offset="1" stop-color="#B40FE7"/>
</linearGradient>
<linearGradient id="paint50_linear_115_11" x1="732.857" y1="304.584" x2="1588.34" y2="1054.19" gradientUnits="userSpaceOnUse">
<stop stop-color="#1BA4E5" stop-opacity="0.5"/>
<stop offset="1" stop-color="#B40FE7"/>
</linearGradient>
<linearGradient id="paint51_linear_115_11" x1="733.61" y1="308.587" x2="1594.21" y2="1062.67" gradientUnits="userSpaceOnUse">
<stop stop-color="#1BA4E5" stop-opacity="0.5"/>
<stop offset="1" stop-color="#B40FE7"/>
</linearGradient>
<linearGradient id="paint52_linear_115_11" x1="734.343" y1="312.614" x2="1600.06" y2="1071.19" gradientUnits="userSpaceOnUse">
<stop stop-color="#1BA4E5" stop-opacity="0.5"/>
<stop offset="1" stop-color="#B40FE7"/>
</linearGradient>
<linearGradient id="paint53_linear_115_11" x1="735.056" y1="316.662" x2="1605.91" y2="1079.73" gradientUnits="userSpaceOnUse">
<stop stop-color="#1BA4E5" stop-opacity="0.5"/>
<stop offset="1" stop-color="#B40FE7"/>
</linearGradient>
<linearGradient id="paint54_linear_115_11" x1="735.752" y1="320.731" x2="1611.75" y2="1088.31" gradientUnits="userSpaceOnUse">
<stop stop-color="#1BA4E5" stop-opacity="0.5"/>
<stop offset="1" stop-color="#B40FE7"/>
</linearGradient>
<linearGradient id="paint55_linear_115_11" x1="736.43" y1="324.82" x2="1617.59" y2="1096.92" gradientUnits="userSpaceOnUse">
<stop stop-color="#1BA4E5" stop-opacity="0.5"/>
<stop offset="1" stop-color="#B40FE7"/>
</linearGradient>
<linearGradient id="paint56_linear_115_11" x1="737.093" y1="328.926" x2="1623.43" y2="1105.56" gradientUnits="userSpaceOnUse">
<stop stop-color="#1BA4E5" stop-opacity="0.5"/>
<stop offset="1" stop-color="#B40FE7"/>
</linearGradient>
<linearGradient id="paint57_linear_115_11" x1="737.741" y1="333.048" x2="1629.27" y2="1114.24" gradientUnits="userSpaceOnUse">
<stop stop-color="#1BA4E5" stop-opacity="0.5"/>
<stop offset="1" stop-color="#B40FE7"/>
</linearGradient>
<linearGradient id="paint58_linear_115_11" x1="738.377" y1="337.185" x2="1635.12" y2="1122.94" gradientUnits="userSpaceOnUse">
<stop stop-color="#1BA4E5" stop-opacity="0.5"/>
<stop offset="1" stop-color="#B40FE7"/>
</linearGradient>
<linearGradient id="paint59_linear_115_11" x1="739.002" y1="341.335" x2="1640.98" y2="1131.68" gradientUnits="userSpaceOnUse">
<stop stop-color="#1BA4E5" stop-opacity="0.5"/>
<stop offset="1" stop-color="#B40FE7"/>
</linearGradient>
<linearGradient id="paint60_linear_115_11" x1="739.616" y1="345.497" x2="1646.85" y2="1140.45" gradientUnits="userSpaceOnUse">
<stop stop-color="#1BA4E5" stop-opacity="0.5"/>
<stop offset="1" stop-color="#B40FE7"/>
</linearGradient>
<linearGradient id="paint61_linear_115_11" x1="740.219" y1="349.67" x2="1652.73" y2="1149.25" gradientUnits="userSpaceOnUse">
<stop stop-color="#1BA4E5" stop-opacity="0.5"/>
<stop offset="1" stop-color="#B40FE7"/>
</linearGradient>
<linearGradient id="paint62_linear_115_11" x1="740.778" y1="353.894" x2="1658.61" y2="1158.13" gradientUnits="userSpaceOnUse">
<stop stop-color="#1BA4E5" stop-opacity="0.5"/>
<stop offset="1" stop-color="#B40FE7"/>
</linearGradient>
</defs>
</svg>
