<svg width="27" height="26" viewBox="0 0 27 26" fill="none" xmlns="http://www.w3.org/2000/svg">
<path d="M5.625 13.8229C5.625 12.352 5.625 11.6165 5.93377 10.9701C6.24254 10.3236 6.82241 9.84499 7.98216 8.88774L9.10716 7.95917C11.2034 6.22894 12.2515 5.36383 13.5 5.36383C14.7485 5.36383 15.7966 6.22894 17.8928 7.95917L19.0178 8.88774C20.1776 9.84499 20.7575 10.3236 21.0662 10.9701C21.375 11.6165 21.375 12.352 21.375 13.8229V18.4167C21.375 20.4594 21.375 21.4808 20.716 22.1154C20.057 22.75 18.9963 22.75 16.875 22.75H10.125C8.00368 22.75 6.94302 22.75 6.28401 22.1154C5.625 21.4808 5.625 20.4594 5.625 18.4167V13.8229Z" stroke="#828282" stroke-width="1.5"/>
<path d="M16.3125 22.75V17.25C16.3125 16.6977 15.8648 16.25 15.3125 16.25H11.6875C11.1352 16.25 10.6875 16.6977 10.6875 17.25V22.75" stroke="#828282" stroke-width="1.5" stroke-linecap="round" stroke-linejoin="round"/>
</svg>
