<svg width="24" height="25" viewBox="0 0 24 25" fill="none" xmlns="http://www.w3.org/2000/svg">
<path d="M9.84799 6.34569C10.7599 4.11523 11.2159 3 12 3C12.7841 3 13.2401 4.11523 14.152 6.34569L14.1945 6.44955C14.7097 7.70965 14.9673 8.3397 15.4923 8.72265C16.0173 9.1056 16.7065 9.16616 18.0848 9.28726L18.334 9.30916C20.5899 9.50737 21.7178 9.60647 21.9592 10.3105C22.2005 11.0145 21.3629 11.7622 19.6876 13.2576L19.1284 13.7566C18.2804 14.5136 17.8563 14.8921 17.6587 15.3881C17.6218 15.4807 17.5912 15.5755 17.567 15.6719C17.437 16.1891 17.5612 16.7381 17.8096 17.8363L17.8869 18.1781C18.3433 20.1962 18.5715 21.2053 18.173 21.6405C18.0241 21.8032 17.8306 21.9203 17.6157 21.9778C17.0404 22.1318 16.2237 21.4789 14.5902 20.173C13.5176 19.3156 12.9813 18.8868 12.3656 18.7904C12.1234 18.7524 11.8766 18.7524 11.6344 18.7904C11.0187 18.8868 10.4824 19.3156 9.40979 20.173C7.77633 21.4789 6.95961 22.1318 6.38434 21.9778C6.16938 21.9203 5.97587 21.8032 5.82698 21.6405C5.42854 21.2053 5.65674 20.1962 6.11314 18.1781L6.19045 17.8363C6.43879 16.7381 6.56296 16.1891 6.43305 15.6719C6.40881 15.5755 6.37817 15.4807 6.3413 15.3881C6.14366 14.8921 5.71963 14.5136 4.87156 13.7566L4.31243 13.2576C2.63713 11.7622 1.79948 11.0145 2.04083 10.3105C2.28218 9.60647 3.41011 9.50737 5.66598 9.30916L5.91516 9.28726C7.29352 9.16616 7.9827 9.1056 8.50771 8.72265C9.03272 8.3397 9.29032 7.70965 9.80553 6.44955L9.84799 6.34569Z" stroke="#828282" stroke-width="1.5"/>
</svg>
